<svg id="Capa_1" data-name="Capa 1" xmlns="http://www.w3.org/2000/svg" viewBox="0 0 745.58 929.4"><defs><style>.cls-1{fill:#fff;}</style></defs><path class="cls-1" d="M708.1,1005a21.28,21.28,0,0,0-2.81-.59,206.87,206.87,0,0,1-34.9-5.44,156.38,156.38,0,0,1-34.08-12.33c-8.92-4.55-17.24-10-24.25-17.2-1.88-1.94-3.53-4.09-5.31-6.13a10.71,10.71,0,0,1-2.39-5.24c-1.12-6.39-2.33-12.77-3.34-19.17-1.3-8.23-2.59-16.46-3.63-24.72-1.13-9-2-18.06-2.91-27.1-.52-5.49-.76-11-1.09-16.52a12.27,12.27,0,0,1,1.48-7.1c.92-.16.93.55,1.13,1,.63,1.38,1.18,2.79,1.81,4.17a85.37,85.37,0,0,0,32.52,37A126.22,126.22,0,0,0,662.87,920a214.06,214.06,0,0,0,31.73,6.59,385.57,385.57,0,0,0,50.48,3.23c.94,0,1.95.29,2.91-.5a10.63,10.63,0,0,0,0-1.17,251.7,251.7,0,0,1,.16-30.83c.08-1.29.12-2.59.19-3.89.16-3.16,1.27-4.64,4.3-5.69a5.66,5.66,0,0,1,1.15-.09c.29.76.64,1.52.87,2.32a15.23,15.23,0,0,0,7.83,9.49,27.07,27.07,0,0,0,9.25,2.87,64.62,64.62,0,0,0,13.27.47c13-.87,25.64-3.8,38.21-7.08,1.05-.27,2.09-.58,3.14-.8a6.54,6.54,0,0,1,6,1.77c2.71,2.41,3.51,7.89.55,10.83a66.84,66.84,0,0,1-10.2,8.51,90.7,90.7,0,0,1-19.48,9.54A162,162,0,0,1,774,932.85a250,250,0,0,1-54,2.48,244.64,244.64,0,0,1-63.65-11.58,148.66,148.66,0,0,1-28.14-12.42c-9-5.2-17.07-11.43-23.63-19.54a9.35,9.35,0,0,0-.86-.83c-.87.16-.78.78-.78,1.28,0,3.24,0,6.49.07,9.74.49,17.14,2.29,34.11,7,50.65,2.11,7.35.59,5.29,6.73,11,9.93,9.28,21.49,16,34,21.11a168.52,168.52,0,0,0,35.88,9.9,223.46,223.46,0,0,0,49.82,2.44c27.64-1.56,54.44-7.07,80-18,4.77-2,9.33-4.55,14-6.71,4.44-2,6.42-5.62,6.83-10.25.26-3,.39-6,.55-9.07.52-9.94.87-19.9,1.58-29.82.51-7,1.51-14,2.26-21a23,23,0,0,0,.23-3.88c-.28-4.54-3.53-7.07-8-6.19q-12.42,2.46-25,4a243.14,243.14,0,0,1-27.49,2c-3.57,0-7.14-.27-10.69-.52A16.5,16.5,0,0,1,767,897c-5.22-1.65-7.54-6.52-5.57-11.62a11.79,11.79,0,0,1,6-6.53,76.88,76.88,0,0,1,13.39-4.88,197.78,197.78,0,0,1,25.73-5.22c8.46-1.17,16.94-2.22,25.44-3.09,6.88-.7,13.8-1.09,20.71-1.54,4.74-.3,9.5-.45,14.26-.68.39,0,.77-.1,1.15-.15,0-.89-.63-1-1.09-1.21-2.17-1-4.35-1.93-6.5-2.95a277.18,277.18,0,0,1-69.34-47,351.05,351.05,0,0,1-57.81-69,438.47,438.47,0,0,1-47.23-99,499,499,0,0,1-18.07-71c-2-11.07-3.55-22.21-4.84-33.39a530,530,0,0,1-3.42-59.6c0-13.63.25-27.27,1.43-40.87.71-8.19,1.34-16.39,2.27-24.56,1.24-10.85,2.92-21.64,4.87-32.4a500.07,500.07,0,0,1,15-61.06c12-38.07,28.37-74.11,50.1-107.64a351,351,0,0,1,56.9-68.06,280,280,0,0,1,65.09-45.22,237.36,237.36,0,0,1,59.65-20.47,230,230,0,0,1,50-4.2,227.59,227.59,0,0,1,67.11,12.1,257.38,257.38,0,0,1,71.07,37.73c24.05,17.88,44.87,39,63.14,62.72a408.74,408.74,0,0,1,51.75,89,481.06,481.06,0,0,1,28.09,88.62c2.79,12.9,5.13,25.88,6.87,39,1.16,8.68,2,17.4,2.88,26.12,2.21,22.66,2.44,45.38,1.73,68.11-.28,8.76-.93,17.51-1.69,26.24-.78,8.94-1.71,17.87-2.9,26.77-1.88,14.16-4.44,28.2-7.54,42.14a481.84,481.84,0,0,1-26.09,82.47,411.58,411.58,0,0,1-51.79,90.45,326.35,326.35,0,0,1-62.21,62.75,267,267,0,0,1-52.88,31.44c-.79.35-1.56.74-2.32,1.12-.08,0-.11.19-.17.29.08.8.72.62,1.2.64,4.86.22,9.72.42,14.59.63,11.57.5,23.1,1.53,34.59,2.87a276.45,276.45,0,0,1,37.05,6.4,88.42,88.42,0,0,1,13.55,4.46c1,.43,2,.87,2.93,1.37a11.5,11.5,0,0,1,5.36,5.87c2.7,6.21-1,10.69-5.58,12.08a17.08,17.08,0,0,1-3.82.73c-3.77.24-7.56.57-11.34.49a259.12,259.12,0,0,1-27.81-2.16c-7.94-1-15.86-2.15-23.68-3.88-4.45-1-8.11,1.92-8.17,7.08a25,25,0,0,0,.37,3.54c1.81,13.31,2.85,26.68,3.34,40.1.18,4.75.35,9.51.59,14.27a63.4,63.4,0,0,0,.62,6.45,10.88,10.88,0,0,0,5.9,8.4,192.11,192.11,0,0,0,35,14.55,250.29,250.29,0,0,0,41.17,8.84,247.33,247.33,0,0,0,45.67,1.72c20-1.08,39.5-4.67,58.15-12.2a113.17,113.17,0,0,0,30.17-17.57c2.66-2.2,5.11-4.67,7.68-7a7.55,7.55,0,0,0,2.13-3.56,183.14,183.14,0,0,0,5.26-22.41,244.19,244.19,0,0,0,3-40.42c0-1,.37-2.15-.62-3.19-.42.42-.82.76-1.15,1.16-6.29,7.75-14,13.77-22.56,18.83a154.39,154.39,0,0,1-35.16,14.88,245.6,245.6,0,0,1-38.72,8,272.73,272.73,0,0,1-50.21,1.69c-16.13-.94-32-3.33-47.49-8.3a102.9,102.9,0,0,1-19.63-8.43,60.28,60.28,0,0,1-13.21-9.9c-.38-.38-.77-.76-1.13-1.17a7.52,7.52,0,0,1,.37-10.76,6.37,6.37,0,0,1,6.24-1.83c2.42.58,4.83,1.21,7.23,1.84a202.22,202.22,0,0,0,27.35,5.4,72.19,72.19,0,0,0,19.09.24,31.85,31.85,0,0,0,9-2.51,15.45,15.45,0,0,0,9-10.47c.16-.6.43-1.17.63-1.71,3.67.42,5.39,2,5.56,5.23.52,9.83,1,19.67.66,29.52-.09,2.26-.28,4.52-.43,6.92a9.88,9.88,0,0,0,2,.39c6.49-.13,13-.23,19.46-.48q7.62-.28,15.23-.92c17.17-1.41,34.15-3.94,50.67-9a126.12,126.12,0,0,0,29.28-13c16-9.86,27.74-23.29,35-40.64.36-.87.8-1.7,1.29-2.74a9.36,9.36,0,0,1,1.79,6.37c-.07,4-.19,8-.5,12q-.66,8.73-1.62,17.44c-.88,7.85-1.78,15.7-2.9,23.51-1.3,9.1-2.83,18.17-4.29,27.25-.43,2.66-1,5.31-1.45,8a13.44,13.44,0,0,1-3,6.38,71.8,71.8,0,0,1-8.69,9.17,92.62,92.62,0,0,1-15.94,11.14,149.74,149.74,0,0,1-36.16,14.12,205.8,205.8,0,0,1-37.41,6.06,26.56,26.56,0,0,0-3.16.58h-29.22a15.51,15.51,0,0,0-2.5-.55,219.13,219.13,0,0,1-29.86-4.07,207,207,0,0,1-58.08-20.84c-3.8-2.06-7.49-4.33-11.19-6.57a14,14,0,0,1-6.93-11.46,25.62,25.62,0,0,1,.07-4.2c.25-3,.62-6,.88-9a9.55,9.55,0,0,0-.24-2,650.58,650.58,0,0,0-155.81-8.86c-19.88,1.2-69,6.95-74.25,9.16a3,3,0,0,0-.16.91c.24,2.58.52,5.16.77,7.74.16,1.62.39,3.23.39,4.85a14.4,14.4,0,0,1-7.13,13l-1.92,1.21A203.44,203.44,0,0,1,776,999.07a223.47,223.47,0,0,1-35.56,5.34,14.64,14.64,0,0,0-2.49.56Zm367.81-67a15.48,15.48,0,0,0,.14-2c-.46-5.71-.82-11.44-1.46-17.14-.67-6-1.57-12-2.44-18a14.64,14.64,0,0,1,.24-5.16c1.27-6,6.66-10.75,12.78-10.22,3.77.32,7.56.54,11.29,1.1,9.63,1.43,19.22,3.08,28.84,4.54a203.7,203.7,0,0,0,20.34,1.94,9.59,9.59,0,0,0,3.2-.38,8.31,8.31,0,0,0,2.83-1.47,3.42,3.42,0,0,0,.86-4.4,9,9,0,0,0-2-2.5,18.57,18.57,0,0,0-3.25-2.13,57.83,57.83,0,0,0-11.44-4.52c-9.88-2.93-20-4.49-30.24-5.73-11-1.33-22-2.14-33-2.51-11.68-.39-23.36-.39-35-.6a23.62,23.62,0,0,0-7.94,1.31,227.66,227.66,0,0,1-64,11.26,226.62,226.62,0,0,1-77.3-11.29,24.66,24.66,0,0,0-8.59-1.33c-12.11.33-24.22.55-36.33,1a326.78,326.78,0,0,0-36.81,3.41,145.36,145.36,0,0,0-23.41,5.16,52.67,52.67,0,0,0-10.42,4.46,11.11,11.11,0,0,0-3.69,3.12,4,4,0,0,0,1.33,6.08,8.47,8.47,0,0,0,5,1.09c5.07-.35,10.16-.59,15.19-1.29,9.95-1.39,19.86-3.14,29.81-4.58,5.13-.75,10.3-1.23,15.47-1.7,6-.55,10.77,3.9,12.4,8.59a17.86,17.86,0,0,1,.51,8.34c-.93,7-2,13.92-2.8,20.9-.5,4.29-.64,8.63-.9,13a9.13,9.13,0,0,0,.37,2l7.55-.93c8.16-1,16.3-2.09,24.48-2.92q13.07-1.32,26.18-2.19c10.9-.71,21.82-1.34,32.73-1.7,9.51-.32,19-.31,28.56-.29,8.44,0,16.88.13,25.31.47,9.73.38,19.45,1,29.16,1.62,6.48.41,13,.87,19.41,1.54,10.65,1.1,21.27,2.39,31.91,3.6C1072.35,937.57,1074,937.72,1075.91,937.93ZM1250.5,478.49q-.26-17.7-1.39-35.36-.91-14.1-2.59-28.11-2.24-19-5.92-37.81a480.32,480.32,0,0,0-21.53-76.74,418.06,418.06,0,0,0-46.79-91c-17-24.84-36.75-47.32-59.82-66.76a261.12,261.12,0,0,0-67.06-41.54,222.91,222.91,0,0,0-82.92-17.68A224.75,224.75,0,0,0,910.65,89a235.16,235.16,0,0,0-68.87,27.87,289.31,289.31,0,0,0-62.94,51.3,367.6,367.6,0,0,0-53.29,74.13,447.67,447.67,0,0,0-37,89.13,498.58,498.58,0,0,0-14.15,62.27c-1.76,10.89-3.12,21.83-4.21,32.82-1.13,11.53-1.92,23.08-2.26,34.65A535.18,535.18,0,0,0,670.9,537c1.22,10.75,2.7,21.45,4.53,32.12A489.81,489.81,0,0,0,691.16,634a436.1,436.1,0,0,0,43,95.64,350.5,350.5,0,0,0,57.46,72.16c20.18,19.24,42.49,35.49,67.53,47.85,30.11,14.86,61.87,23.13,95.54,23.74a217.56,217.56,0,0,0,40.39-2.91,227.78,227.78,0,0,0,60.09-19.07c26.84-12.75,50.61-29.88,72-50.41a345.82,345.82,0,0,0,51-62.44c20.66-32,36.35-66.34,48-102.57a497.37,497.37,0,0,0,19.65-88.54c1.64-12.67,2.88-25.37,3.57-38.12C1250,499.05,1250.15,488.77,1250.5,478.49ZM1167,900.05c-1.19.78-1.9,1.22-2.59,1.7a35.56,35.56,0,0,1-10.8,5.1,51.31,51.31,0,0,1-12.8,1.88,90.3,90.3,0,0,1-20.91-2.22,181.56,181.56,0,0,1-23.62-6.94,23.64,23.64,0,0,0-2.46-.82,3,3,0,0,0-3,4.66,14.75,14.75,0,0,0,2,2.11,65.68,65.68,0,0,0,12.89,9.25,103.35,103.35,0,0,0,19.67,8.31,148.3,148.3,0,0,0,37.61,6.44,10.5,10.5,0,0,0,4.32-.25,13.8,13.8,0,0,0,.4-2.13C1167.93,918.28,1168.17,909.42,1167,900.05Zm-413.44,29.3a23.59,23.59,0,0,0,5.78.12,161.28,161.28,0,0,0,20-2.35A127.84,127.84,0,0,0,809,918a72.49,72.49,0,0,0,17.8-11.15,38.93,38.93,0,0,0,3.26-3.16,2.74,2.74,0,0,0,.33-3.57,2.89,2.89,0,0,0-3.35-1.32c-.83.22-1.64.54-2.45.83a192.77,192.77,0,0,1-20.46,6.21A92.28,92.28,0,0,1,780,908.72c-8.92-.3-17.34-2.3-24.61-7.85a7.36,7.36,0,0,0-1.49-.58A202.66,202.66,0,0,0,753.59,929.35Z" transform="translate(-587.73 -75.57)"/><path class="cls-1" d="M1333.31,652.35a31.12,31.12,0,0,0-.54,3.44c-.12,2.27-.14,4.55-.16,6.82a215,215,0,0,1-2.66,32.64,95.32,95.32,0,0,1-6.87,23.94,56.81,56.81,0,0,1-27.15,28.57c-3.77,1.88-7.67,3.5-11.5,5.28-3.23,1.5-6.51,2.93-9.64,4.63a25.62,25.62,0,0,0-13.68,19.06c-.14.82-.44,1.61-.67,2.44a6.35,6.35,0,0,1-1.12-.32c-8.55-4.5-15.93-10.38-21.49-18.38a42.17,42.17,0,0,1-7.1-16.57,39.26,39.26,0,0,1,4.43-27A49.89,49.89,0,0,1,1249,701.2a76.88,76.88,0,0,1,14.22-8.41c7-3.22,14-6.24,21-9.36a145.81,145.81,0,0,0,20.43-10.58,132,132,0,0,0,27.95-25.05,7.14,7.14,0,0,1,.69-.65Zm-6.72,11.07c-1.14,1-1.72,1.43-2.25,1.92a85.93,85.93,0,0,1-12.82,9.9,185.31,185.31,0,0,1-23.26,12.84c-3.35,1.51-6.73,3-10,4.58-5.15,2.51-10.31,5-15.34,7.73A57.67,57.67,0,0,0,1249,711a41.78,41.78,0,0,0-7,9.32,30.47,30.47,0,0,0-3.75,15.9,37.56,37.56,0,0,0,4.45,15.79,67.51,67.51,0,0,0,11.73,15.85,8.29,8.29,0,0,0,1.35.95c.46-.67.85-1.18,1.19-1.72a41.88,41.88,0,0,1,7.58-8.84,60.44,60.44,0,0,1,9.61-7.16c4.84-2.85,9.76-5.57,14.68-8.28,2.46-1.36,5-2.56,7.5-3.85a46.49,46.49,0,0,0,22.74-25.58,85.38,85.38,0,0,0,4.52-18.22c1.31-8.78,1.79-17.63,2.57-26.47C1326.34,667.18,1326.43,665.68,1326.59,663.42Z" transform="translate(-587.73 -75.57)"/><path class="cls-1" d="M624.09,895.71c-10.62-8.9-18.3-19.4-21.62-32.69-2.73-10.92-1.2-21.48,3.44-31.64a69.89,69.89,0,0,1,16.59-22.21,97.56,97.56,0,0,1,17.24-12.64c6.35-3.7,12.76-7.32,19-11.17,4.78-3,9.45-6.1,14-9.34A61.81,61.81,0,0,0,684,765.76,47.17,47.17,0,0,0,695.19,740c.25-2,.45-4.07.76-6.82a23.9,23.9,0,0,1,.9,3c.71,5,1.57,10,2,15.11a301.15,301.15,0,0,1,.3,41.84q-.68,11.49-1.55,23a61.44,61.44,0,0,1-2.47,14A30.71,30.71,0,0,1,683.9,846c-2.78,2-5.74,3.86-8.7,5.64-6.31,3.77-12.72,7.39-19,11.21a131.14,131.14,0,0,0-16.37,11.67,66.3,66.3,0,0,0-8.74,8.67,33,33,0,0,0-6.36,11.22A12.58,12.58,0,0,1,624.09,895.71Zm68.26-127.12a9.65,9.65,0,0,0-1.21.94c-4.88,6.21-11,11-17.61,15.18-5,3.19-10.19,6.14-15.28,9.2-6,3.61-12.1,7.15-18.06,10.87a89.58,89.58,0,0,0-14.1,10.89A60.06,60.06,0,0,0,615,829.53a41.31,41.31,0,0,0-4.42,31.3,63.4,63.4,0,0,0,10.23,21.55c.16.23.49.34.82.55a9.28,9.28,0,0,0,.84-1,36.43,36.43,0,0,1,7.28-8.23c3-2.53,6-5,9.13-7.29,4.83-3.45,9.8-6.73,14.76-10,3.7-2.44,7.48-4.76,11.2-7.17a93.61,93.61,0,0,0,11.9-9,40.68,40.68,0,0,0,12.75-21.74,107.34,107.34,0,0,0,2.33-19.3c.39-9.29.49-18.6.7-27.9C692.49,770.57,692.41,769.84,692.35,768.59Z" transform="translate(-587.73 -75.57)"/><path class="cls-1" d="M1224.93,733.54a119.13,119.13,0,0,0,2.09,12.58,46.83,46.83,0,0,0,12.75,22.59,66.92,66.92,0,0,0,9.92,8.34c4.92,3.33,9.9,6.6,15,9.7,5.53,3.39,11.19,6.56,16.79,9.83a97.72,97.72,0,0,1,17,12.43A72.23,72.23,0,0,1,1314,828.84a49.65,49.65,0,0,1,5.72,27.88A46.46,46.46,0,0,1,1316,871.1c-4.1,9.53-10.49,17.34-18.19,24.16a3.93,3.93,0,0,1-.72.36,11.27,11.27,0,0,1-.68-1.4,33.92,33.92,0,0,0-6.22-10.93,71.85,71.85,0,0,0-11.23-10.75,158.37,158.37,0,0,0-17.14-11.69c-5.19-3.12-10.47-6.09-15.69-9.16-2.42-1.43-4.82-2.89-7.16-4.45A32.26,32.26,0,0,1,1225,826.49a72.15,72.15,0,0,1-1.27-8,438.78,438.78,0,0,1-2.06-58,157.5,157.5,0,0,1,2.59-24.5C1224.45,735.16,1224.72,734.35,1224.93,733.54Zm4.59,35.21-.68.38a10.74,10.74,0,0,0-.15,1.24c.09,12.86.11,25.74,1.43,38.55a82.53,82.53,0,0,0,2.06,11.47,39.39,39.39,0,0,0,12.72,20.29,110.25,110.25,0,0,0,13,9.59c6.81,4.41,13.63,8.79,20.38,13.28a112.61,112.61,0,0,1,12.84,9.88,41.53,41.53,0,0,1,7.52,8.46,8,8,0,0,0,1.09,1.08c.35-.38.6-.6.79-.86a65.58,65.58,0,0,0,9.7-20,41.23,41.23,0,0,0,.07-22.73,47.94,47.94,0,0,0-8.73-16.52,74.14,74.14,0,0,0-12.74-12.42,141.58,141.58,0,0,0-14.79-9.95c-5.58-3.31-11.21-6.52-16.81-9.78a161.67,161.67,0,0,1-15.8-10.19,59.7,59.7,0,0,1-11-10.43C1230.09,769.64,1229.82,769.18,1229.52,768.75Z" transform="translate(-587.73 -75.57)"/><path class="cls-1" d="M588.07,647.5c1,1.12,1.84,2,2.66,2.85,2.93,3,5.77,6.16,8.81,9.09a110.63,110.63,0,0,0,31.83,21.5c6.91,3.08,13.87,6.07,20.78,9.14a127.78,127.78,0,0,1,15,7.72,53.58,53.58,0,0,1,15.93,14.57,40.06,40.06,0,0,1,3.35,42.93,48.85,48.85,0,0,1-8.12,11.29,62.18,62.18,0,0,1-15.18,11.55,24,24,0,0,1-2.43,1,13.42,13.42,0,0,1-.49-1.36c-.27-1.16-.46-2.34-.75-3.49a24.39,24.39,0,0,0-10.82-15.21,79.18,79.18,0,0,0-7.69-4.17c-2.62-1.27-5.36-2.31-8-3.51s-5.31-2.42-7.92-3.74a57.15,57.15,0,0,1-27.31-29.26,96,96,0,0,1-6.35-22.08,210.05,210.05,0,0,1-2.7-27.42c-.28-6.81-.61-13.62-.91-20.43A4.73,4.73,0,0,1,588.07,647.5Zm6.61,16.35c-.36,2,.18,3.66.32,5.34.63,7.55,1.27,15.09,2,22.62a90.28,90.28,0,0,0,3.33,16.84c2.5,8.3,6.43,15.8,12.71,21.93a52.07,52.07,0,0,0,12.4,8.77c5.75,3,11.5,6,17.18,9.12a78,78,0,0,1,11.56,7.79,44.33,44.33,0,0,1,10,11,18.19,18.19,0,0,0,1.25,1.58c.6-.53,1.12-.91,1.55-1.36a72.15,72.15,0,0,0,9.56-12.26,46.64,46.64,0,0,0,4.63-10c3.13-9.79,1.93-19-3.76-27.58a54.31,54.31,0,0,0-5.51-6.79,56.39,56.39,0,0,0-11.65-9.26,137.66,137.66,0,0,0-14.94-7.81c-5.59-2.58-11.27-5-16.76-7.77-11.7-5.91-23.11-12.31-32.69-21.47A5.73,5.73,0,0,0,594.68,663.85Z" transform="translate(-587.73 -75.57)"/><path class="cls-1" d="M1285.55,644c0-5.4,0-10.81,0-16.21,0-2.7.16-5.41.39-8.1a13.84,13.84,0,0,1,.88-3.75,2.43,2.43,0,0,1,3.46-1.39,11.63,11.63,0,0,1,2.27,1.24c1.06.74,2.08,1.55,3.09,2.36a31.43,31.43,0,0,0,14.68,6.41,57.09,57.09,0,0,1,8.51,2,14.21,14.21,0,0,1,9.43,9.94c1,3.5.9,6.83-1.6,9.77-1.61,1.89-3.1,3.89-4.8,5.69a117.91,117.91,0,0,1-22.16,18.38,72,72,0,0,1-7.7,4.12,12.58,12.58,0,0,1-3.74,1,2.16,2.16,0,0,1-2.46-1.66,15.91,15.91,0,0,1-.59-2.84,100.6,100.6,0,0,1-.29-16.19c.12-3.57.33-7.13.49-10.69Zm5.56-19.39a7.4,7.4,0,0,0-.5,1.68c-.06,1.4,0,2.81,0,4.21q.24,9.57.54,19.13.18,5.68.5,11.34a15.62,15.62,0,0,0,.52,3.19c.47,1.79,1.32,2.28,3.11,1.84a10,10,0,0,0,2.42-.91c1.7-.94,3.4-1.89,5-3a93,93,0,0,0,15.44-13.33c1.17-1.27,2.23-2.64,3.33-4a5.83,5.83,0,0,0,1.26-3.61c.17-5.25-2.9-8.89-8.15-9.44a41.24,41.24,0,0,1-8.55-1.77c-3-1-5.86-2.22-8.78-3.34C1295.36,625.86,1293.55,624.83,1291.11,624.58Z" transform="translate(-587.73 -75.57)"/><path class="cls-1" d="M636.06,645.55c0,7.89,0,15.78,0,23.67a19.3,19.3,0,0,1-.71,4.45,2.13,2.13,0,0,1-2.44,1.69,10.86,10.86,0,0,1-3.14-.71,47.3,47.3,0,0,1-5.81-2.84,115.56,115.56,0,0,1-26.62-22c-1.36-1.53-2.54-3.23-3.75-4.88a7.46,7.46,0,0,1-1.28-5.55c.81-6.38,4.14-10.84,10.26-12.93a46,46,0,0,1,7.88-1.82,31.81,31.81,0,0,0,15.53-6.82c1.09-.89,2.22-1.74,3.38-2.52,3-2,5-.7,5.46,2.15a31.15,31.15,0,0,1,.57,4.49c.1,4.11.06,8.22.11,12.33,0,3.78.16,7.56.24,11.34ZM629.9,624.7a6.22,6.22,0,0,0-1.47.15c-1.43.49-2.86,1-4.24,1.6-5.94,2.67-12,4.82-18.59,5.36a7,7,0,0,0-3.88,1.48,9,9,0,0,0-1.55,12.18c.66.86,1.35,1.7,2.07,2.49a94,94,0,0,0,16.88,14.61,47.53,47.53,0,0,0,4.49,2.59A9.12,9.12,0,0,0,626,666c1.64.35,2.52-.15,2.87-1.78a25.93,25.93,0,0,0,.67-4.8c.33-10.48.6-21,.87-31.45A5,5,0,0,0,629.9,624.7Z" transform="translate(-587.73 -75.57)"/><path class="cls-1" d="M659.64,982.74c-.47-3.73-.4-18.3.07-20.75a16.83,16.83,0,0,1,1.89.24c4.41,1.07,8.83,2.1,13.2,3.32a19.78,19.78,0,0,1,5,2.18,10.18,10.18,0,0,1,2.91,3c1.21,1.83.85,3.47-.81,4.86a12.52,12.52,0,0,1-1.38.88c.15,1,1.05,1.06,1.51,1.58a16,16,0,0,1,2.28,2.69,4.1,4.1,0,0,1-2.46,6,7.51,7.51,0,0,1-4.15.26c-3.58-.8-7.17-1.56-10.75-2.39C664.54,984,662.15,983.38,659.64,982.74Zm6.2-2.13c3.18.76,6.2,1.48,9.23,2.18a3.93,3.93,0,0,0,1.28.05,1.93,1.93,0,0,0,1.81-1.13,2.14,2.14,0,0,0-.33-2.14,5.28,5.28,0,0,0-2.9-1.94q-3.57-1-7.17-1.93a11.9,11.9,0,0,0-1.89-.18A13.37,13.37,0,0,0,665.84,980.61Zm.25-9.08a65.7,65.7,0,0,0,8.33,2,3.87,3.87,0,0,0,1.27,0,1.67,1.67,0,0,0,1.1-2.7,4.5,4.5,0,0,0-2.64-1.72q-3.58-.93-7.18-1.8a2.77,2.77,0,0,0-.9.08A5.93,5.93,0,0,0,666.09,971.53Z" transform="translate(-587.73 -75.57)"/><path class="cls-1" d="M723.12,992.16a14.06,14.06,0,0,1-5.17,0,4.49,4.49,0,0,1-.4-.34.55.55,0,0,1-.13-.28q-.06-8.26-.13-16.52v-3.35a12,12,0,0,1,2-.39c4.32,0,8.65,0,13,0a20.88,20.88,0,0,1,4.17.53,8,8,0,0,1,2.66,1.1,5,5,0,0,1-.17,8.59,29.35,29.35,0,0,1-3.74,1.61c1.5,1.41,3,2.71,4.37,4.14a53.4,53.4,0,0,1,3.75,4.3c-.56,1.1-1.41.75-2.09.74-5.35-.06-3.76.68-7.5-3.17-1-1-1.92-2.05-2.92-3-2.32-2.3-3.11-2.57-6.82-2.39C722.78,986.35,724,989.25,723.12,992.16Zm.46-12.07a40,40,0,0,0,9-.2c1.65-.28,2.61-1.26,2.56-2.41a2.69,2.69,0,0,0-2.69-2.32,55.42,55.42,0,0,0-8.74,0,11.11,11.11,0,0,0-.26,1.72C723.46,977.82,723.53,978.78,723.58,980.09Z" transform="translate(-587.73 -75.57)"/><path class="cls-1" d="M1238.64,979.94c-.57,2.85.14,5.68-.48,8.47a16.26,16.26,0,0,1-5.52,1,5,5,0,0,1-.37-1.24q0-9.23,0-18.45a3.67,3.67,0,0,1,.26-.8,21.94,21.94,0,0,1,2.28-.72c4.12-.86,8.23-1.73,12.37-2.48a20.52,20.52,0,0,1,4.82-.33c3.84.24,5.61,3.58,3.78,7a8,8,0,0,1-2.93,3c-.81.5-1.66.94-2.66,1.51.78,1.13,2,1.33,2.88,2.1s1.81,1.53,2.69,2.33,1.7,1.62,2.48,2.37c-.09.88-.69.92-1.17,1-1.26.29-2.54.51-3.8.77a3,3,0,0,1-3-.79c-1.18-1.11-2.46-2.11-3.69-3.16C1243.85,979.12,1242.71,978.67,1238.64,979.94Zm.13-3.94a39,39,0,0,0,8.53-1.72,5.56,5.56,0,0,0,1.93-1.1,2.23,2.23,0,0,0,.79-2.58,2.35,2.35,0,0,0-2.11-1.21,1.14,1.14,0,0,0-.32,0,57.89,57.89,0,0,0-9,2C1238.45,973,1238.16,974.5,1238.77,976Z" transform="translate(-587.73 -75.57)"/><path class="cls-1" d="M1176.3,939.41c1-.06,1.63-.13,2.27-.13,3.89,0,7.77.05,11.66.18a28.88,28.88,0,0,1,4.8.59,7.42,7.42,0,0,1,2.66,1.11c3.54,2.4,3.24,7-.58,8.91-.95.48-2,.77-3.26,1.25,1.51,1.46,3,2.77,4.34,4.22a45.62,45.62,0,0,1,4.09,4.9,20.28,20.28,0,0,1-4.27.18,6.15,6.15,0,0,1-1.93-.12,5.19,5.19,0,0,1-1.84-1.2c-1.67-1.69-3.29-3.43-4.88-5.19a6.71,6.71,0,0,0-6.86-2.25,8.86,8.86,0,0,0-.37,1.73c-.05,2,0,4.08,0,6.19-2,.75-3.74.37-5.71.24-.51-2.3-.22-4.56-.26-6.78s0-4.54,0-6.8A62.58,62.58,0,0,1,1176.3,939.41Zm6,8.18a28.6,28.6,0,0,0,9.38.34,4.4,4.4,0,0,0,.62-.18,2.18,2.18,0,0,0,1.46-2,2,2,0,0,0-1.29-2,6.3,6.3,0,0,0-2.16-.54c-2.27-.1-4.54-.11-6.8-.11a5.35,5.35,0,0,0-1.26.35A9.49,9.49,0,0,0,1182.34,947.59Z" transform="translate(-587.73 -75.57)"/><path class="cls-1" d="M1153.72,936.15a26.41,26.41,0,0,1,9.89,1.94,16,16,0,0,1,5.13,3.33,11.16,11.16,0,0,1,3.43,9.71,7.5,7.5,0,0,1-4.5,6.28,12.51,12.51,0,0,1-5.67,1.18,25.24,25.24,0,0,1-10.66-2.38,15.3,15.3,0,0,1-4.67-3.43,11.12,11.12,0,0,1-2.7-9.94,7.68,7.68,0,0,1,5.1-5.84A10.67,10.67,0,0,1,1153.72,936.15Zm6.39,18.42a12.07,12.07,0,0,0,2-.26,4.47,4.47,0,0,0,3.47-3.1,8.1,8.1,0,0,0-1-7.42c-2.25-3.14-8.18-4.48-11.19-3.21a4.88,4.88,0,0,0-3.14,3.81,7.91,7.91,0,0,0,4.35,8.94A11.79,11.79,0,0,0,1160.11,954.57Z" transform="translate(-587.73 -75.57)"/><path class="cls-1" d="M799.18,981.86c-.41-3.91-.34-18.25.11-20.88,4.53-1.68,9.17-3.43,13.83-5.11a12.63,12.63,0,0,1,3.16-.67c3.72-.38,6.22,1.55,6.93,5.23a12.54,12.54,0,0,1-1.13,7.88,15.18,15.18,0,0,1-5.72,6.47,26.94,26.94,0,0,1-4.26,2.3c-3.79,1.55-7.64,3-11.47,4.45A11.55,11.55,0,0,1,799.18,981.86ZM805,962.74c-.37,5.33-.27,10.53.22,12.84,3-.25,7.86-2.29,9.58-4.16a9.55,9.55,0,0,0,1.69-2.72,10.52,10.52,0,0,0,.58-5.42c-.32-2.77-1.7-3.84-4.42-3.32A27.21,27.21,0,0,0,805,962.74Z" transform="translate(-587.73 -75.57)"/><path class="cls-1" d="M695.66,973.49a6.21,6.21,0,0,0,.2,3.66c2.3.88,4.84.68,7.26,1.11s4.7.59,6.93.85c1,1.12.43,2.18.53,3.41-2.63.32-5-.41-7.45-.57s-4.71-.53-7-.8c-.78,2.19-.79,2.32-.23,5.3,5.3,1,10.8,1.24,16.38,2.17l.16,2.94a3.66,3.66,0,0,1-1,.42,14,14,0,0,1-1.94-.09q-9-1-18-2.12a14.14,14.14,0,0,1-1.84-.46c-.49-2.68-.49-17.61,0-20.57,2.44-.31,4.84.47,7.28.63s4.95.46,7.4.87,5,.21,7.44,1.15v3.06a13.82,13.82,0,0,1-2,.06c-3.44-.37-6.87-.81-10.31-1.17C698.16,973.21,696.87,972.71,695.66,973.49Z" transform="translate(-587.73 -75.57)"/><path class="cls-1" d="M627.31,916.81l5.85,3.08.16,8.18c3.63,2.07,7.24,3.95,11.12,5.94a12.46,12.46,0,0,0,.45-2c.07-1.72.06-3.43.09-5.36,2.32.35,3.88,1.72,5.77,2.62.56,2.2.22,4.47.27,6.71s0,4.75,0,7.12.06,4.48-.06,7c-2.33-.63-4-1.87-5.77-2.76-.63-3,0-5.93-.43-8.93-1.47-1.54-3.55-2.25-5.43-3.23s-3.6-2.33-6-2.76c0,1.46,0,2.74-.07,4s0,2.56,0,3.86c-2.13-.27-2.6-.48-5.89-2.62A184.72,184.72,0,0,1,627.31,916.81Z" transform="translate(-587.73 -75.57)"/><path class="cls-1" d="M736.79,939.49h6.3a65.06,65.06,0,0,1,4.28,6.84c1.36,2.2,2.7,4.42,4,6.68s3,4.44,3.89,7.15a15.05,15.05,0,0,1-1.74.27c-1.5,0-3,0-4.58,0l-2.79-4.4a56.75,56.75,0,0,0-12.26-.19l-2.59,4.25c-2,.61-4,.31-6.21.21a5,5,0,0,1,.26-1.41q5.4-9.4,10.85-18.77A4.14,4.14,0,0,1,736.79,939.49Zm-.69,12.06c3.56.63,5.37.57,7.3-.24a38.14,38.14,0,0,0-2.67-5.06,7.08,7.08,0,0,0-1.2-1.16Z" transform="translate(-587.73 -75.57)"/><path class="cls-1" d="M774.73,983l-2.4,4.72c-1.85,1.1-4,.85-5.74,1.41-.76-.72-.27-1.18-.06-1.6q5.31-10.54,10.64-21.08c2-1,4.22-1,6.5-1.43a56.19,56.19,0,0,1,4.12,6.1c1.32,2,2.58,4,3.85,6s2.72,4.08,4,6.48a20.36,20.36,0,0,1-6.54,1.15l-2.65-3.89C782.48,981.38,778.59,982.06,774.73,983Zm5.74-11.79a26.65,26.65,0,0,0-3.22,7.08,13.37,13.37,0,0,0,6.8-1.27A20.31,20.31,0,0,0,780.47,971.18Z" transform="translate(-587.73 -75.57)"/><path class="cls-1" d="M1256.72,932.14a208.7,208.7,0,0,1,11.74,18.21c-2,1-3.21,1.27-6.29,1.31l-2.52-3.62c-2.57,0-4.92,1-7.37,1.17-3.2.26-5.54,1.51-6.39,4.83a5.89,5.89,0,0,1-.69,1.24c-1.9.34-3.77,1.24-6,.82.3-.76.49-1.37.77-1.93,3.16-6.28,6.38-12.53,9.47-18.84a3.83,3.83,0,0,1,3.43-2.48A37.08,37.08,0,0,0,1256.72,932.14ZM1249.87,946c2.86-.54,5.09-.69,7.32-1.61a22.84,22.84,0,0,0-3.47-6C1252.05,940.58,1251.23,943,1249.87,946Z" transform="translate(-587.73 -75.57)"/><path class="cls-1" d="M683.1,957.36l-6-1.32c-.7-1.38-1.4-2.71-2-4.06a2.37,2.37,0,0,0-1.63-1.45q-5.07-1-10.14-2.06c-.09,0-.2.07-.53.18l-2.37,3.63a21.47,21.47,0,0,1-6.19-1.55q5.58-9.11,11.09-17.85c2.1-.29,3.83.47,5.6.85a2.37,2.37,0,0,1,1.41,1.18c3.64,7.22,7.23,14.48,10.83,21.73C683.21,956.72,683.15,956.85,683.1,957.36Zm-14.4-18.6a24.12,24.12,0,0,0-2.86,4.45,13.5,13.5,0,0,0-.68,1.59,29.8,29.8,0,0,0,6.88,1.57A35.43,35.43,0,0,0,668.7,938.76Z" transform="translate(-587.73 -75.57)"/><path class="cls-1" d="M1260.07,983.42c.26-.74.39-1.23.6-1.68,3.14-6.88,6.31-13.74,9.4-20.65a4.26,4.26,0,0,1,2.94-2.7c1.34-.35,2.66-.81,4.15-1.27a59.45,59.45,0,0,1,3.94,5.54c1.3,1.86,2.58,3.74,3.81,5.64s2.74,3.59,3.69,5.93l-6,2-2.65-3.56a15.77,15.77,0,0,0-2.07.41c-2.47.79-4.9,1.7-7.39,2.43-1.36.4-2.43,1-2.73,2.44-.72,3.37-3.15,4.65-6.16,5.28C1261.16,983.36,1260.75,983.36,1260.07,983.42Zm14-19.28a14.23,14.23,0,0,0-2.86,7.39,26.35,26.35,0,0,0,6.23-2.28C1276.14,966.24,1275.72,965.62,1274.11,964.14Z" transform="translate(-587.73 -75.57)"/><path class="cls-1" d="M1144.6,967.29c2-.2,3.73.53,5.6.93a7.73,7.73,0,0,1,.36,1.58c0,3.56,0,7.13,0,10.7a25.15,25.15,0,0,1-.35,3.22,4.16,4.16,0,0,1-3.32,3.56,11.7,11.7,0,0,1-3.53.38,27.66,27.66,0,0,1-9.74-2.22,17.47,17.47,0,0,1-3.59-2.16,7.35,7.35,0,0,1-3.07-5.83c-.09-4.43,0-8.86-.06-13.29a2.36,2.36,0,0,1,.28-.69c1.84-.28,3.51.51,5.4.9a22.15,22.15,0,0,1,.31,2.26c0,2.38,0,4.75,0,7.13,0,.87,0,1.73,0,2.6,0,2,.14,3.95,2,5.22a10.25,10.25,0,0,0,7.35,1.87,2.25,2.25,0,0,0,2-1.92,14.73,14.73,0,0,0,.21-2.58c0-3,0-6.05,0-9.08C1144.45,969,1144.54,968.19,1144.6,967.29Z" transform="translate(-587.73 -75.57)"/><path class="cls-1" d="M1117.49,927.67c2,.48,3.8.89,5.57,1.34,3.34.85,6.69,1.7,10,2.62a11.27,11.27,0,0,1,5.65,3.63,6.68,6.68,0,0,1,1.69,4.76,4.07,4.07,0,0,1-2.55,3.8,8.57,8.57,0,0,1-5.4.47c-2.12-.41-4.22-.92-6.33-1.37-.73-.15-1.47-.23-2.28-.35-.84,2.28,0,4.6-.61,7-2.08.44-3.88-.53-5.71-1.06C1117.1,945.92,1117.05,931.2,1117.49,927.67Zm6.18,10.89c2.09.5,4,1,5.86,1.39a8.27,8.27,0,0,0,2.58.09,1.93,1.93,0,0,0,1.45-3.12,5.21,5.21,0,0,0-2.77-2.14,31.51,31.51,0,0,0-7-1.72A12.62,12.62,0,0,0,1123.67,938.56Z" transform="translate(-587.73 -75.57)"/><path class="cls-1" d="M821.68,943.16,815.43,945c-.95-1.1-1.85-2.14-2.83-3.29a14.62,14.62,0,0,0-1.86.27c-2.7.79-5.37,1.67-8.08,2.4a3.09,3.09,0,0,0-2.57,2.16c-.77,3-2.9,4.34-5.78,4.79-.51.08-1,.23-1.48.33-.61-.62-.22-1.12,0-1.56,3.08-6.44,6.2-12.86,9.24-19.31a3.88,3.88,0,0,1,2.8-2.4c1.46-.34,2.89-.81,4.25-1.19A177.62,177.62,0,0,1,821.68,943.16Zm-15.13-9.89c-2.14,3-3.12,5.49-3,7.37,2.14-.76,4.39-1,6.61-2.27Z" transform="translate(-587.73 -75.57)"/><path class="cls-1" d="M1220.48,971.07a12.44,12.44,0,0,1,5.32-.44,11.6,11.6,0,0,1,.29,1.88c0,3.46.06,6.91,0,10.36-.09,5.4-2,7.91-7.25,9.21a36.66,36.66,0,0,1-7.68.93,11.87,11.87,0,0,1-4.38-.93,5,5,0,0,1-3.29-4.42,123.3,123.3,0,0,1,.11-14.72,13,13,0,0,1,5.36-.57c.08.84.2,1.57.2,2.3,0,2.91,0,5.83,0,8.74a24.81,24.81,0,0,0,.09,2.59,3,3,0,0,0,2.57,2.91,9.19,9.19,0,0,0,6-.63,3.49,3.49,0,0,0,2.2-3,28.86,28.86,0,0,0,.22-3.22c0-2.81,0-5.61,0-8.42C1220.29,972.82,1220.41,972,1220.48,971.07Z" transform="translate(-587.73 -75.57)"/><path class="cls-1" d="M1121.55,966.4c-1.84.35-3.43-.58-5.26-.63-.47-.69-.9-1.43-1.42-2.1a10.81,10.81,0,0,0-8.33-4.34c-2.41-.12-3.62.87-4,3.28a9.3,9.3,0,0,0,2.55,8.64,11.27,11.27,0,0,0,6.23,3.23c1.67.28,3.24.06,4.33-1.49a6.65,6.65,0,0,1,.83-.78l5.33,3.08a4.55,4.55,0,0,1-4.18,3.63,13.86,13.86,0,0,1-4.5-.1,24.31,24.31,0,0,1-13.16-7.18,13.76,13.76,0,0,1-3.86-8,10.69,10.69,0,0,1,0-2.26c.42-4.11,2.65-6.36,6.77-6.34a22.12,22.12,0,0,1,17.1,7.88A5.85,5.85,0,0,1,1121.55,966.4Z" transform="translate(-587.73 -75.57)"/><path class="cls-1" d="M705.64,952.36l5,1.69c.55.93.07,1.47-.26,2a7.69,7.69,0,0,1-4.92,3.45,17.7,17.7,0,0,1-14.53-2.71,10.56,10.56,0,0,1-4.69-10.4c.34-3.39,2-6,5.24-7.21a17.38,17.38,0,0,1,16.65,2.13,5.78,5.78,0,0,1,2.64,3.91c-.74.8-1.66.53-2.47.6s-1.72,0-2.75,0c-.27-.35-.57-.77-.91-1.18-2.26-2.76-5.28-3.22-8.52-2.53a4.45,4.45,0,0,0-3.62,4.1,15.71,15.71,0,0,0-.1,2.91,7.4,7.4,0,0,0,8.73,7C703.21,955.73,704.56,954.47,705.64,952.36Z" transform="translate(-587.73 -75.57)"/><path class="cls-1" d="M744.38,971c8.26-.91,16.16-1.88,24.06-2.53a3.22,3.22,0,0,1,.37,3.21c-1.39.84-2.95.6-4.42.81l-4.18.59c-.54,2.95-.2,5.75-.27,8.54s0,5.58-.06,8.38a14.44,14.44,0,0,1-6,.68c-.71-1.82-.3-3.67-.37-5.47s0-3.67,0-5.5,0-3.64-.07-5.56c-1.66-.66-3.11-.06-4.57.06a20,20,0,0,1-4.35.13Z" transform="translate(-587.73 -75.57)"/><path class="cls-1" d="M1200.15,973v3.33c-2.9.53-5.72-.23-8.62.26a17.1,17.1,0,0,0-.32,2.23c0,3.78,0,7.56,0,11.35,0,1.05-.1,2.11-.16,3.33a16.59,16.59,0,0,1-6-.34c-.46-2.81-.16-5.61-.21-8.4s0-5.37,0-8.23c-3-.93-5.92-.36-8.73-.91-.64-1.09-.35-2.1-.22-3.22a6.63,6.63,0,0,1,1.36-.24C1184.74,972.39,1192.29,972.68,1200.15,973Z" transform="translate(-587.73 -75.57)"/><path class="cls-1" d="M623.16,944.05a4.53,4.53,0,0,1,1.11.2c1.61.87,3.2,1.77,4.85,2.7.08.83.21,1.56.21,2.3,0,3.89,0,7.78,0,11.67,0,1.07.07,2.13.12,3.34l15.13,8.57a4.26,4.26,0,0,1-.05,3.28c-2.53-1-17.14-9-21.57-11.9-.17-3.27-.11-6.72-.06-10.16S622.61,947.43,623.16,944.05Z" transform="translate(-587.73 -75.57)"/><path class="cls-1" d="M769.49,957.25a180.34,180.34,0,0,1-.1-20.4,11.61,11.61,0,0,1,6-1.33,67.57,67.57,0,0,1,.18,8.05c.05,2.69-.06,5.38.07,7.94a4,4,0,0,0,3.07,0c3-.67,5.9-1.38,8.85-2,1-.23,2.09-.39,3.36-.62l.24,3.12a11.11,11.11,0,0,1-1.83.79c-4.42,1-8.85,2-13.27,3Z" transform="translate(-587.73 -75.57)"/><path class="cls-1" d="M1162.65,987.86l14,2a3.88,3.88,0,0,1,.12,3.31,5.17,5.17,0,0,1-1.19.11q-9-1.18-17.95-2.41a5,5,0,0,1-1.12-.44,172.16,172.16,0,0,1,0-20.07c2.17-.33,2.27-.32,5.8.68.21,2.7,0,5.49.1,8.28A79.47,79.47,0,0,0,1162.65,987.86Z" transform="translate(-587.73 -75.57)"/><path class="cls-1" d="M1217.47,938.88c2.83-.82,3-.84,5.63-.53.52,2.74.14,5.54.24,8.32a75,75,0,0,0,.23,8.15c4.82-.21,9.33-1.2,13.91-1.45a3.4,3.4,0,0,1,.33,3.11c-2.29.77-16.07,2.64-20.24,2.73a3.85,3.85,0,0,1-.33-1.11q0-9.23,0-18.43A3.47,3.47,0,0,1,1217.47,938.88Z" transform="translate(-587.73 -75.57)"/><path class="cls-1" d="M648,978.17c-.38-8.1-.25-17.74.27-20.37a2.83,2.83,0,0,1,.92,0c1.62.59,3.22,1.22,4.76,1.81.42,2.63.46,17.3.07,20.66C651.83,980.16,650,979.13,648,978.17Z" transform="translate(-587.73 -75.57)"/><path class="cls-1" d="M722.12,959.92c-.55.05-1.17.15-1.79.15-1.17,0-2.34-.06-3.68-.1a16.28,16.28,0,0,1-.37-2.26c-.33-9.64-.16-16,.49-18.42a13.53,13.53,0,0,1,5.5-.07,17.67,17.67,0,0,1,.38,2.21C723,951.32,722.81,957.39,722.12,959.92Z" transform="translate(-587.73 -75.57)"/><path class="cls-1" d="M977.93,890.44a10.75,10.75,0,0,1,1.17.94,3.67,3.67,0,0,1-1.33,5.71,4.57,4.57,0,0,1-1.51.54,27.49,27.49,0,0,1-7.64-.24,56.74,56.74,0,0,1,.28-13.13,23.09,23.09,0,0,1,7.6.11c2.41.36,3.28,2.34,2.29,4.62A16.56,16.56,0,0,1,977.93,890.44Zm-5.53,1.61a2.33,2.33,0,0,0,0,3,16.4,16.4,0,0,0,2.42,0,1.52,1.52,0,0,0,1.31-1.6,1.4,1.4,0,0,0-1.24-1.3A18.74,18.74,0,0,0,972.4,892.05Zm-.28-5.32.35,2.71a13.28,13.28,0,0,0,2.33-.41,1.26,1.26,0,0,0,.55-1,1.28,1.28,0,0,0-.64-1A14.08,14.08,0,0,0,972.12,886.73Z" transform="translate(-587.73 -75.57)"/><path class="cls-1" d="M907.26,911.18a62.35,62.35,0,0,1,7.11-1c5.93,0,8,6.28,5.83,10.2a6.38,6.38,0,0,1-4,3.05,34.08,34.08,0,0,1-3.48.72c-.94.15-1.91.2-3,.31-1.27-2-1-4.39-1.48-6.55S907.61,913.72,907.26,911.18Zm5.4,10c2,.17,3.6-.4,4.33-2.18a4.38,4.38,0,0,0-.8-4.82c-1.32-1.4-3-1.48-4.82-.6A32.6,32.6,0,0,0,912.66,921.18Z" transform="translate(-587.73 -75.57)"/><path class="cls-1" d="M1019.39,895.75c1.07,2,2,3.73,3.12,5.76-1.17,0-2,0-2.83,0a2.13,2.13,0,0,1-1.8-1.2c-.63-1.13-1.28-2.25-1.94-3.37a1.42,1.42,0,0,0-1.79-.83c-.31,1.29-.64,2.7-1,4.31l-2.78-.16c-.49-2.78-.27-5.21,1.18-13.14a7.17,7.17,0,0,1,1.75-.22c1.72.17,3.42.43,5.14.66a4.8,4.8,0,0,1,.63.15c3.4,1,4.24,4.14,1.81,6.77C1020.49,894.86,1020.05,895.18,1019.39,895.75Zm-5-2.49a23.5,23.5,0,0,0,2.58,0,1.65,1.65,0,0,0,1.34-1.59,1.46,1.46,0,0,0-1.09-1.43,7.86,7.86,0,0,0-1.88-.21c-.17,0-.35.2-.7.41C1014.61,891.12,1014.54,892,1014.43,893.26Z" transform="translate(-587.73 -75.57)"/><path class="cls-1" d="M906.12,886.35a64.59,64.59,0,0,1,7.54-.42c5.28.38,7.23,6.15,5.22,9.91a6,6,0,0,1-3.59,3.08,20,20,0,0,1-7.79.73C906.7,895.3,906.65,891,906.12,886.35Zm4.66,10.12c2.76.3,4.09-.21,4.75-1.85a4.44,4.44,0,0,0-.73-4.82,3.74,3.74,0,0,0-1.91-1.06,2.53,2.53,0,0,0-2.83.65C910.29,891.68,910.54,894.1,910.78,896.47Z" transform="translate(-587.73 -75.57)"/><path class="cls-1" d="M1038.59,896.48c-.18,4.45-3,7.27-7.1,7.08-4.39-.21-7.33-3.16-7-7.21.36-4.59,3-7.23,7.16-7.05C1035.1,889.44,1038.94,891.56,1038.59,896.48Zm-3.68,0c-.1-1-.11-1.5-.22-2a2.89,2.89,0,0,0-2.37-2.32,2.62,2.62,0,0,0-2.82,1.11,5.79,5.79,0,0,0-1,5.44,3,3,0,0,0,5.32.68A17.81,17.81,0,0,0,1034.91,896.44Z" transform="translate(-587.73 -75.57)"/><path class="cls-1" d="M983.65,884.47c2.32.15,4.47.26,6.6.44a4,4,0,0,1,3.81,2.54,3.94,3.94,0,0,1-1.18,4.41c-.38.36-.73.74-1.15,1.17l3.34,5.24c-1.62.49-1.62.49-3.82.09-1.73-1.36-2.11-4-4.2-5.05-1.51,1.47-.51,3.37-1.53,4.93l-2.64-.21C982.39,895.48,982.84,887.38,983.65,884.47Zm3.06,6.34a16.26,16.26,0,0,0,2.76-.31,1.29,1.29,0,0,0,.92-1.51,1.85,1.85,0,0,0-.85-1.23,6.87,6.87,0,0,0-2.18-.26c-.17,0-.34.21-.65.43Z" transform="translate(-587.73 -75.57)"/><path class="cls-1" d="M958.15,914.05c-1.43-1.75-2.12-3.23-1.22-4.87a4.49,4.49,0,0,1,4.42-2.15,11.41,11.41,0,0,1,3.77.66c2.29.9,2.73,2.88,1.27,5-.24.34-.53.65-.82,1a11.91,11.91,0,0,1,1.23,1.55,3.65,3.65,0,0,1-1.48,5.25,8,8,0,0,1-7.47-.11c-2.17-1.1-2.55-3.45-1-5.44A5.94,5.94,0,0,1,958.15,914.05Zm5.62,3.35c-.19-.41-.24-.77-.45-.95a7.69,7.69,0,0,0-1.57-1c-.89-.42-1.53-.25-1.93.41a1.71,1.71,0,0,0,.31,2.28,2.51,2.51,0,0,0,2.94.23A3.55,3.55,0,0,0,963.77,917.4Zm-.78-5.07c.82-.89,1-1.65.18-2.37a2,2,0,0,0-2.37-.18,1,1,0,0,0-.23,1.62A3.14,3.14,0,0,0,963,912.33Z" transform="translate(-587.73 -75.57)"/><path class="cls-1" d="M965.08,884.24v2.28c-1.76.07-3.36.09-5,.23a1.27,1.27,0,0,0-.85.74.86.86,0,0,0,.73,1.18c.64.1,1.29.08,1.94.12l2.51.15a5.26,5.26,0,0,1,.37,1,5,5,0,0,1-.09,1c-1.6,1.15-3.61,0-5.49,1,0,.68-.09,1.48-.13,2.17.38.24.55.43.73.44,1.7.12,3.41.2,5.19.29v2.35a25.33,25.33,0,0,1-9.37-.15,68.85,68.85,0,0,1,.1-12.86A23.58,23.58,0,0,1,965.08,884.24Z" transform="translate(-587.73 -75.57)"/><path class="cls-1" d="M932.65,897.9a65.72,65.72,0,0,1-9.51.63c-.79-2.38-.64-4.65-.72-6.88a38,38,0,0,1-.13-6.61l4.6-.28,4.39-.28c.94.79.77,1.61.42,2.7l-3.42.22c-.43,0-.86,0-1.29.09a1,1,0,0,0-1,1.06.93.93,0,0,0,1,1c1.4,0,2.81,0,4.42,0l.51,1.95c-.41.26-.66.54-.94.58-1.48.22-3,.38-4.61.58v2.6c2,.64,4-.24,6,.27C932.48,896.25,932.55,896.94,932.65,897.9Z" transform="translate(-587.73 -75.57)"/><path class="cls-1" d="M894.25,890.4c-2.14.2-4.43-.18-5.36,2.64a9.09,9.09,0,0,0,1.24,0c.32,0,.61-.23.93-.28,2.66-.43,4.57.55,5.23,2.65a4.83,4.83,0,0,1-2.64,6.23c-3.91,1.77-7.52-.12-8.24-4.36a15.19,15.19,0,0,1-.16-3.23,6.11,6.11,0,0,1,4.74-5.86,15.09,15.09,0,0,1,2.23-.4C893.93,887.61,894.17,887.89,894.25,890.4Zm-3.49,5a1.52,1.52,0,0,0-1.56,2.17,5,5,0,0,0,1.18,1.85,1.29,1.29,0,0,0,1.78-.06,2.1,2.1,0,0,0,.61-2.63A2,2,0,0,0,890.76,895.39Z" transform="translate(-587.73 -75.57)"/><path class="cls-1" d="M933.09,912.87c.08,1,.12,1.62.17,2.24-1.72,1.15-3.77.36-5.56,1.37.1.81.21,1.63.32,2.45,2,.62,3.79-.47,5.83,0,.16.56.35,1.24.52,1.81-.87,1.19-2,.91-3.08,1s-2.16.18-3.23.28-2.11.51-3.39,0c-.7-4.14-1-8.42-1.36-12.66a22.27,22.27,0,0,1,9.74-1.12c0,.66.09,1.37.15,2.19-.88.14-1.61.26-2.34.36s-1.72.17-2.57.33-1,.52-.56,2.07Z" transform="translate(-587.73 -75.57)"/><path class="cls-1" d="M998.23,885.63c3.49-.23,6.41.56,9.55.64v2.36c-1.53.45-2.91,0-4.28,0s-2,.27-1.9,1.08c.11,1.08,1,.94,1.7,1l3.61.47a7.64,7.64,0,0,1,.17,1.34,4.66,4.66,0,0,1-.34,1.06c-1.65.48-3.35-.21-5-.06-.7,1.2-.7,1.2-.57,2.81l5.79,1-.3,2.3c-3.18.25-6.14-.37-9.24-.7-.78-2.26.11-4.46.21-6.66S998,888,998.23,885.63Z" transform="translate(-587.73 -75.57)"/><path class="cls-1" d="M980,909.13c-.2,1.94-.39,3.75-.55,5.57a2,2,0,0,0,1,2.16c.73.45.69,2.07,0,2.18-1.84.3-1.41,1.92-2,3.17l-2.79-.29c-.12-1-.22-1.87-.31-2.66-1-.83-2.1-.58-3.14-.73l-2.66-.36a2.86,2.86,0,0,1,.61-3.47c1.52-1.53,3.1-3,4.51-4.62S977.72,907.83,980,909.13Zm-4.18,3.45a6.37,6.37,0,0,0-2.73,2.63c-.08.13,0,.39.1.69h2.47c.16-.87.33-1.58.41-2.31A3.46,3.46,0,0,0,975.86,912.58Z" transform="translate(-587.73 -75.57)"/><path class="cls-1" d="M943,884.16c2.68-.13,4.92-.25,7.16-.33.74,0,1.47.07,2.4.12.06.85.1,1.55.15,2.27a4.09,4.09,0,0,1-1,.37c-1.29.07-2.58.07-3.87.15a1.06,1.06,0,0,0-1.15,1.22,1,1,0,0,0,1,1c1,.05,1.94,0,2.91,0,.41,0,.83.11,1.41.19.06.77.11,1.46.16,2.17-1.69,1-3.54.1-5.31.89l-.27,5a3.88,3.88,0,0,1-3.38.18C943,893.12,943.07,888.85,943,884.16Z" transform="translate(-587.73 -75.57)"/><path class="cls-1" d="M874.48,904.79l-.65-2,2.41-1.15c.19-2.16-.63-4.07-.88-6.18l-2.52-.31c-.56-.49-.67-1.52-.2-1.8a9,9,0,0,0,2.65-2.27c.4-.53,1.54-.5,2.45-.76,1.39,3.5,1.23,7.17,2.4,10.36.22.17.3.29.39.3l2.06.13a3.89,3.89,0,0,1,.43,1.47c-.1.75-.83.88-1.48,1Z" transform="translate(-587.73 -75.57)"/><path class="cls-1" d="M983.68,922.89l.3-2.1,2.57-.34c.85-1.92.75-4,1.05-5.94a20.93,20.93,0,0,1-2.31-1.69c-.18-.16.07-.78.1-1.06,1.22-.53,2.29-.94,3.32-1.45a3.26,3.26,0,0,1,2.93.21c.16,3.51-1.19,6.91-1.13,10.47l2.46,1.15-.58,2Z" transform="translate(-587.73 -75.57)"/><path class="cls-1" d="M950.33,917.77c2.54.76,2.54.76,2.5,2.58a7.74,7.74,0,0,1-1.46.32c-2,.09-4.09.16-6.13.18-.94,0-1.06-.22-1.27-2l2.64-1.07a26.14,26.14,0,0,0-.17-6.16l-2.5-.62v-1.77c1.16-.44,2.41-.71,3.25-1.84.57-.77,1.6-.31,2.57-.33.74,1.81.33,3.64.44,5.41S950.29,916,950.33,917.77Z" transform="translate(-587.73 -75.57)"/><path class="cls-1" d="M671.92,475.3c.35-8.85.55-20.87,1.35-32.85A505.13,505.13,0,0,1,693.18,330.9c11-36.66,26-71.51,46.14-104.12a344.88,344.88,0,0,1,54.54-68.3A270.94,270.94,0,0,1,858.1,112.1a227,227,0,0,1,61.41-21.22,211.21,211.21,0,0,1,52.34-3.27,219.58,219.58,0,0,1,84.63,22.78c26,12.8,48.93,29.76,69.57,50,22.27,21.78,40.9,46.38,56.69,73.18a438.63,438.63,0,0,1,42.1,97.45A496.86,496.86,0,0,1,1239,392.26c1.75,10.56,3.1,21.18,4.22,31.84a532.2,532.2,0,0,1,2.74,54.44c0,11.69-.29,23.37-1.08,35-2.89,42.6-10.53,84.3-23.9,124.9-11.87,36-27.78,70.16-48.71,101.86a337.66,337.66,0,0,1-52.1,62,268.41,268.41,0,0,1-62.55,43.76,218.42,218.42,0,0,1-85.8,23.3,204,204,0,0,1-30.48-.33,215.29,215.29,0,0,1-52.85-11.19c-26.33-9.11-50.21-22.65-72.11-39.8a316.88,316.88,0,0,1-59.44-61.82A401.07,401.07,0,0,1,710,673a474.71,474.71,0,0,1-27.26-88.52q-3.79-18.43-6.24-37.1c-1.24-9.55-2.16-19.13-2.92-28.73C672.52,505.29,672.26,491.88,671.92,475.3Zm566.72,3.7c-.42-10.7-.67-20.88-1.26-31q-.81-13.92-2.25-27.81c-1.18-11.3-2.88-22.53-4.89-33.71a480.51,480.51,0,0,0-17.65-69.08,417.56,417.56,0,0,0-44.25-92.93,330.23,330.23,0,0,0-54.54-65.39c-20.74-19-43.69-34.66-69.48-46a211.2,211.2,0,0,0-70.43-17.72,203,203,0,0,0-39.2.93,211.61,211.61,0,0,0-34.28,7,231.55,231.55,0,0,0-67.15,32.54,293,293,0,0,0-59,54.89,375,375,0,0,0-48.78,77.18,453.24,453.24,0,0,0-31.15,87.57,498.45,498.45,0,0,0-9.5,49c-1.56,10.92-2.72,21.89-3.59,32.9q-1.37,17.32-1.59,34.69a493.55,493.55,0,0,0,3,62.22c1,9,2.12,18,3.54,27a476.86,476.86,0,0,0,12.76,57.61,434.19,434.19,0,0,0,41.57,98.72c15.85,27.29,34.66,52.29,57.31,74.33a264.37,264.37,0,0,0,63,45.91A214,214,0,0,0,948,862a203.11,203.11,0,0,0,45.27-2.57,216.47,216.47,0,0,0,56.12-17.71c24.8-11.67,46.88-27.28,66.84-46a330.43,330.43,0,0,0,50.2-60.2c20.37-31,35.85-64.4,47.41-99.62a494.63,494.63,0,0,0,23.27-121.08C1237.93,502.71,1238.16,490.59,1238.64,479Z" transform="translate(-587.73 -75.57)"/><path class="cls-1" d="M738.9,474.27c.28-6.83.45-17.66,1.21-28.45,3.2-45,12.53-88.58,29.63-130.41,10.86-26.56,24.57-51.53,42-74.38a242.15,242.15,0,0,1,42.46-43.61C871,184.19,889.33,173.75,909.67,167a156.75,156.75,0,0,1,38.06-7.62c29-2.15,56.35,3.79,82.3,16.58,19.59,9.66,36.83,22.6,52.35,37.91,19.09,18.83,34.68,40.31,47.71,63.68a372.2,372.2,0,0,1,33.68,83.77,425.34,425.34,0,0,1,10.28,49.19c1.56,10.48,2.69,21,3.55,31.59a481.28,481.28,0,0,1,1,57.09c-.45,11.89-1.53,23.74-3,35.57a422,422,0,0,1-19.7,86.5A346.29,346.29,0,0,1,1119,697.93,261.7,261.7,0,0,1,1074,751a193.86,193.86,0,0,1-52.63,34,158.53,158.53,0,0,1-43.66,11.89,154.79,154.79,0,0,1-33.68.37c-26.94-2.61-51.45-12-74.11-26.52a221.92,221.92,0,0,1-48-42.35,301.85,301.85,0,0,1-42.24-64.8,387.4,387.4,0,0,1-29.27-83.37q-4.33-18.66-7-37.63c-1.26-9-2.2-18-2.95-27.09C739.42,503.13,739.11,490.7,738.9,474.27Zm432.66,4.88c-.35-9.44-.67-18.53-1-27.61-.43-10.49-1.53-20.93-2.87-31.34a418.51,418.51,0,0,0-7.66-42.45,377,377,0,0,0-30.43-84.67,290.08,290.08,0,0,0-39.18-59.1c-14-16.14-29.66-30.29-47.78-41.65-22.56-14.15-46.94-22.87-73.66-24.73a146.59,146.59,0,0,0-30.42,1.08,152.13,152.13,0,0,0-38.33,10.67,185.4,185.4,0,0,0-50.38,32.17,249.63,249.63,0,0,0-42.54,49.24,334.21,334.21,0,0,0-36.87,74.56c-13.89,39.25-21.25,79.77-23.26,121.29a445.78,445.78,0,0,0,1,59q1.38,16.5,3.89,32.86a410.69,410.69,0,0,0,12.52,55.33A353.29,353.29,0,0,0,798.32,682a266.69,266.69,0,0,0,43.42,56,195,195,0,0,0,47,34.3c20.7,10.6,42.6,16.68,65.94,17.33a148.4,148.4,0,0,0,49.86-7.1,172.82,172.82,0,0,0,50.9-26.72,230.2,230.2,0,0,0,44.37-44.42c16.86-21.93,30.14-45.9,40.7-71.41,17.22-41.56,26.56-85,29.71-129.73C1171,499.8,1171.15,489.29,1171.56,479.15Z" transform="translate(-587.73 -75.57)"/><path class="cls-1" d="M828.21,749.1c1.31.17,2,1.25,2.84,2,6.78,6.21,13.5,12.48,20.3,18.67a60.76,60.76,0,0,0,5.84,4.62c3.71,2.61,7.54,5.05,11.26,7.66a61,61,0,0,1,5.61,4.4,10.17,10.17,0,0,1,3.11,11.21c-1.4,4.64-4.4,7.94-9.36,8.89a14,14,0,0,1-4.18-.13,23.67,23.67,0,0,1-3.07-.73c-.62.5-.34,1-.16,1.51a19.69,19.69,0,0,1,1,7c-.07,4.65-.16,9.29-.25,14.21a5.77,5.77,0,0,1-1.6-.45c-2.41-1.62-4.9-3.14-7.23-5,0-3.75,0-7.42,0-11.09,0-1.95-.06-3.9-.05-5.84a7.89,7.89,0,0,0-3.79-7.1l-2.06-1.31a13.65,13.65,0,0,0-1.29,1.41c-2.32,3.4-4.6,6.81-6.9,10.22-.61.88-1.24,1.75-1.94,2.74-2.66-1.18-4.74-3.06-7.29-4.56.61-1,1-1.85,1.57-2.63l16.31-24.21c.6-.88,1.14-1.8,1.68-2.64-1.38-2-5.82-6.25-9.13-8.7-.71.72-1.48,1.45-2.2,2.22q-9.78,10.62-19.57,21.23c-.71.78-1.48,1.51-2.38,2.42l-5.95-5.46c0-1.37.89-1.9,1.51-2.58,6.5-7.1,13-14.17,19.55-21.25.8-.87,1.57-1.77,2.51-2.82l-9-8.52,2.86-4.1Zm28,33.62c-2.13,3.12-4.09,5.81-5.93,9,.42.27.78.5,1.13.74,2.62,1.72,5.22,3.47,7.85,5.16a14.27,14.27,0,0,0,2.29,1.2,4.43,4.43,0,0,0,5.08-.95,5.17,5.17,0,0,0,1.76-5.26,5,5,0,0,0-2-2.85C863.09,787.46,859.8,785.2,856.21,782.72Z" transform="translate(-587.73 -75.57)"/><path class="cls-1" d="M1050.69,782.89a7.16,7.16,0,0,0,1.25,3.62q8.14,15.69,16.28,31.38c.53,1,1,2.11,1.57,3.28a41.71,41.71,0,0,1-7,3.75c-1.91-2.9-3.25-6-4.82-8.9s-3-5.76-4.48-8.63a88.93,88.93,0,0,0-5-8.74,7.76,7.76,0,0,0,0,1.67c1.94,8.31,3.92,16.62,5.87,24.93.27,1.15.49,2.3.74,3.52a45.54,45.54,0,0,1-7.12,3.89,8.07,8.07,0,0,1-2.62-2.47c-5.54-6.22-11-12.47-16.58-18.69a5.09,5.09,0,0,0-2.48-2c2.3,4.8,4.67,9.12,6.92,13.5l6.91,13.39c-2,1.85-4.43,2.64-6.84,3.87a7.8,7.8,0,0,1-1-1.23q-9.27-17.85-18.5-35.71a4.65,4.65,0,0,1-.27-.85,65.16,65.16,0,0,1,11.31-6c.55.52,1.21,1,1.78,1.67q7.55,8.26,15.08,16.55c.71.78,1.5,1.5,2.41,2.4a2.3,2.3,0,0,0,.2-2.18q-2-9-4.08-18c-.56-2.52-1.1-5-1.62-7.46a78.24,78.24,0,0,1,12.19-6.39Z" transform="translate(-587.73 -75.57)"/><path class="cls-1" d="M708.55,539.88a17,17,0,0,1,4,4,41.82,41.82,0,0,1,7.13,14.1A92.9,92.9,0,0,1,723,574.12c.27,2.14.52,4.28.76,6.33.91.7,1.55,0,2.18-.21a14.79,14.79,0,0,1,6.28-1.41,10.69,10.69,0,0,1,3.48.6,4.63,4.63,0,0,1,2,7.47,8.6,8.6,0,0,1-4.2,2.93c-1.64.54-3.35.84-5,1.23-.51.12-1,.18-1.53.26-.27,1.24.5,2,.93,2.78A74.62,74.62,0,0,1,734.28,610a57.25,57.25,0,0,1,1.08,24.12,5.18,5.18,0,0,1-.29.84c-.82.22-1.25-.33-1.73-.74a34.88,34.88,0,0,1-9.49-13.37,49.47,49.47,0,0,1-3.41-14.14,77,77,0,0,1-.37-11.66c0-.52-.07-1-.12-1.83-1,.34-1.76.58-2.52.9a13.62,13.62,0,0,1-6.33,1.09,7.23,7.23,0,0,1-3.64-1.23,4.34,4.34,0,0,1-.91-6.73,8.94,8.94,0,0,1,4-2.63c1.43-.47,2.92-.76,4.37-1.16.6-.17,1.18-.4,2-.69L715,579.53a59.44,59.44,0,0,1-7.86-20.13,39.05,39.05,0,0,1,.33-16.11C707.76,542.27,708.12,541.27,708.55,539.88Z" transform="translate(-587.73 -75.57)"/><path class="cls-1" d="M1207.75,539.52a28.3,28.3,0,0,1,2.13,9.87,44.16,44.16,0,0,1-3,17.47,72.28,72.28,0,0,1-6.31,12.78c-.55.91-1.07,1.83-1.75,3,1.49.32,2.71.61,4,.85a19.74,19.74,0,0,1,6.42,2.17,12.33,12.33,0,0,1,3.22,2.65,3.73,3.73,0,0,1-.87,5.64,7.27,7.27,0,0,1-3.64,1.26,17,17,0,0,1-7.64-1.06l-3.23-1.21a23.33,23.33,0,0,0-.19,2.36,82.8,82.8,0,0,1-.61,14.25,46.28,46.28,0,0,1-4.77,15.08,33.8,33.8,0,0,1-7.37,9.39,18.74,18.74,0,0,1-1.55,1.13c-1.89-4.64-2.07-14.24-.42-22.47,1.51-7.49,4.6-14.39,8.33-21.23-.7-.3-1.25-.58-1.83-.79a38.34,38.34,0,0,1-4.26-1.5,9.32,9.32,0,0,1-2.8-2.15,4,4,0,0,1,.42-5.8,8.45,8.45,0,0,1,3.13-1.56,9.18,9.18,0,0,1,5.43.36c.71.25,1.42.47,2.24.74a31.27,31.27,0,0,0,.87-5.82,98.22,98.22,0,0,1,2.67-15.32,45.55,45.55,0,0,1,6.19-14.2A29.38,29.38,0,0,1,1207.75,539.52Z" transform="translate(-587.73 -75.57)"/><path class="cls-1" d="M1111.46,760.13c4.38-1,8.11-.46,11.83.25,3.08.58,6.15,1.22,9.22,1.87a13.71,13.71,0,0,1,1.86.71c-.4.52-.62.88-.91,1.19-1.92,2-3.86,4.07-5.87,6.19l-8.67-1.4c-2.67-.42-5.36-.74-8-1.28a8.06,8.06,0,0,0-8.14,2.82c-.43.47-.84,1-1.34,1.56,1.8,2.43,4.15,4.17,6.19,6.21s4.19,4,6.36,6.12a59.51,59.51,0,0,1-5.7,6.23c-2.23-1.52-28.29-26.12-31.19-29.43.34-.44.68-.95,1.09-1.39,3.87-4.09,7.71-8.2,11.64-12.22a58.5,58.5,0,0,1,5.29-4.78,11,11,0,0,1,13.54.12c4.54,3.45,6.19,8.45,4.37,13.46-.22.61-.52,1.19-.78,1.79S1111.86,759.12,1111.46,760.13Zm-15.59,7a8.46,8.46,0,0,0,1.19-.86q3.33-3.54,6.61-7.12a13,13,0,0,0,1.52-2.09,4.21,4.21,0,0,0,.25-4c-1.66-3.59-5.47-4.56-8.26-2.18-.65.56-1.27,1.17-1.87,1.79-1.87,1.94-3.74,3.89-5.58,5.86a18.75,18.75,0,0,0-1.25,1.61Z" transform="translate(-587.73 -75.57)"/><path class="cls-1" d="M828.21,749.1l-1.46,1.34c-1.13.82-2.31,1.58-3.38,2.47Q811,763.17,798.73,773.47c-1,.83-2,1.64-3,2.43a23.83,23.83,0,0,1-5.88-6.69c3.08-9.74,6.51-19.49,9.73-29.56a3.29,3.29,0,0,0-2.39,1.18l-15.68,13.09c-.82.69-1.67,1.35-2.62,2.12a10.74,10.74,0,0,1-2.69-2.78c-.86-1-1.64-2-2.57-3.13a15.07,15.07,0,0,1,1.3-1.41q15.16-12.71,30.35-25.37a13.22,13.22,0,0,1,1.15-.79A44.33,44.33,0,0,1,812,729c-1.7,5-3.43,10-5.06,15S803.41,754,802,759c1,.57,1.36-.21,1.79-.56q8.37-6.93,16.69-13.9c.82-.69,1.68-1.32,2.69-2.11C825,744.68,827.34,746.31,828.21,749.1Z" transform="translate(-587.73 -75.57)"/><path class="cls-1" d="M748.62,296.33c.33.07.59.22.71.15,3.4-2.05,7.18-2.9,11-3.55,2.87-.48,5.74-1,8.62-1.46a10.79,10.79,0,0,1,1.73,0,13.1,13.1,0,0,1-.45,1.67c-1,2.49-2.07,5-3.17,7.59l-10.46,2.16c-1.9.4-3.78.91-5.7,1.23-4.21.71-6.17,3.5-7.23,7.55,5.18,2.54,10.62,4.29,15.77,6.8a8.21,8.21,0,0,1-.29,1.44c-.85,2.09-1.74,4.16-2.55,6.08a5.25,5.25,0,0,1-.53.18.71.71,0,0,1-.32,0l-37.42-15.46a6.47,6.47,0,0,1-.93-.66c.19-.58.35-1.18.58-1.76,2.14-5.19,4.26-10.39,6.47-15.55a42.23,42.23,0,0,1,2.95-5.76c2.94-4.72,7.54-6.34,12.88-4.72,5.55,1.69,8.72,6,8.5,11.57C748.78,294.67,748.69,295.51,748.62,296.33ZM737,309a93.88,93.88,0,0,0,4.7-11.74,3.6,3.6,0,0,0,.15-.63,4.55,4.55,0,0,0-2-4.76c-2.89-2-5.89-1.32-7.65,1.8a17.52,17.52,0,0,0-.8,1.76c-1.09,2.58-2.18,5.16-3.23,7.76a14.85,14.85,0,0,0-.5,1.93Z" transform="translate(-587.73 -75.57)"/><path class="cls-1" d="M1205.31,495c-3,4.23-7,6.53-10.85,8.86l-7.29,4.35c-.26-.45-.52-.7-.52-1,0-2.91,0-5.83,0-8.77.8-.6,1.45-1.15,2.16-1.61,2.71-1.78,5.45-3.52,8.17-5.29,1.27-.82,2.49-1.72,3.77-2.52,3.49-2.17,4.31-5.39,3.88-9.4-2.87-.54-5.67-.28-8.44-.44s-5.61-.19-8.58-.29a9.37,9.37,0,0,1-.38-1.85c0-2,.06-4.09.09-6,.85-.95,1.77-.7,2.59-.69q12.16.17,24.33.38c3.89.06,7.78.18,11.67.29,1.07,0,2.13.1,3.39.16a9.68,9.68,0,0,1,.35,1.87c-.09,6.27-.17,12.54-.35,18.81a28.71,28.71,0,0,1-.67,5.14,10.45,10.45,0,0,1-9.48,8.44,17.43,17.43,0,0,1-3.23,0,10.38,10.38,0,0,1-9.2-6.65C1206.24,497.84,1205.91,496.71,1205.31,495Zm6.49-15.33a88,88,0,0,0,0,12.57,4.69,4.69,0,0,0,.09.64,4.52,4.52,0,0,0,4,3.7c3.43.49,5.73-1.17,6-4.68.27-3.76.22-7.55.29-11.32,0-.18-.19-.36-.41-.73A58.33,58.33,0,0,0,1211.8,479.68Z" transform="translate(-587.73 -75.57)"/><path class="cls-1" d="M688.85,458.61a35.88,35.88,0,0,1,.52-8.45l9.23-4.82c3.07-1.59,6.17-3.15,9.22-4.77s6.17-3,9-4.83c-.21-.93-.81-.85-1.32-.89l-21-1.46c-1.17-.09-2.34-.22-3.64-.34a18.91,18.91,0,0,1,.4-7.8,13.24,13.24,0,0,1,1.69-.11q19.57,1.39,39.14,2.82a4.23,4.23,0,0,1,1,.38c.5,2.79-.45,5.5-.36,8.38-4.72,2.47-9.32,4.85-13.89,7.28s-9,4.58-13.25,7.32c8.5,1.31,17,1.39,25.55,2.38a19.91,19.91,0,0,1-.4,7.6,16.37,16.37,0,0,1-2.19.16q-7.44-.45-14.89-1t-14.88-1.09C695.57,459.15,692.35,458.88,688.85,458.61Z" transform="translate(-587.73 -75.57)"/><path class="cls-1" d="M912.7,817.68a28.44,28.44,0,0,1-7.87,17.86c-4.68,4.86-10.5,6.58-17.17,5.28a26.5,26.5,0,0,1-7.58-2.75c-7.5-4-12-11.22-10.08-21.49a30.27,30.27,0,0,1,5.46-12.35,19.09,19.09,0,0,1,13.22-8,15.62,15.62,0,0,1,3.55-.06,25.54,25.54,0,0,1,11.51,4C909.74,804.13,912.77,809.65,912.7,817.68Zm-34.21,4.55a31.12,31.12,0,0,0,.82,3.7c2.29,6.8,12.41,10.4,18.62,3.79A21.88,21.88,0,0,0,903.82,816c.36-4.86-2.17-8.73-6.77-10.74s-9.22-1.28-12.53,2.21C880.74,811.47,878.88,816.34,878.49,822.23Z" transform="translate(-587.73 -75.57)"/><path class="cls-1" d="M1207.11,420.94c2.33.21,4.19.19,6,.55,7.18,1.45,14.34,6.21,15.55,17.15a24.45,24.45,0,0,1-.39,8.69A17.93,17.93,0,0,1,1217.64,460a28.3,28.3,0,0,1-17.78,1.63c-7.4-1.63-12.11-6.31-14.09-13.65a23.88,23.88,0,0,1-.24-12.19c1.93-7.53,7-12,14.38-13.82A71.17,71.17,0,0,1,1207.11,420.94Zm1.52,9.1a23.07,23.07,0,0,0-9.24,1.52,11,11,0,0,0-7,11.33,10.68,10.68,0,0,0,8.49,9.86,22.29,22.29,0,0,0,14-1.14,10.16,10.16,0,0,0,6.42-9.35,11,11,0,0,0-9.82-12C1210.34,430.08,1209.15,430.07,1208.63,430Z" transform="translate(-587.73 -75.57)"/><path class="cls-1" d="M918.56,154.28a7,7,0,0,1-.53-1.38c-2-13.32-4-26.65-6-40.1a10.64,10.64,0,0,1,1.64-.58c5.55-.82,11.1-1.67,16.67-2.39a21.21,21.21,0,0,1,5.16,0,15,15,0,0,1,10,5.94c4.3,5.27,6.94,17.94,4,25.68a15.12,15.12,0,0,1-9.63,9.38,37.87,37.87,0,0,1-6,1.38c-4,.68-8.11,1.26-12.16,1.85C920.7,154.16,919.64,154.19,918.56,154.28Zm7.62-8.46c3.68-.38,7.42-.68,11-2a6.33,6.33,0,0,0,4.26-4.91,26.9,26.9,0,0,0-2.5-17.57,7.2,7.2,0,0,0-7.21-4c-3.1.2-6.17.79-9.26,1.23-.17,0-.31.26-.47.4C922.15,122.92,925.31,143.35,926.18,145.82Z" transform="translate(-587.73 -75.57)"/><path class="cls-1" d="M843.07,142.39c.57-.38,1-.71,1.46-1,4.37-2.38,8.72-4.78,13.11-7.11a33.08,33.08,0,0,1,4.43-2,14.61,14.61,0,0,1,11.94.8,19.38,19.38,0,0,1,6.06,4.81A35.93,35.93,0,0,1,886.86,150a20.07,20.07,0,0,1,.81,9.6,14.62,14.62,0,0,1-5.59,9.21,29.21,29.21,0,0,1-4,2.7c-4.44,2.48-8.91,4.88-13.38,7.31-.45.24-.95.42-1.39.61C861.67,177.31,844.47,145.77,843.07,142.39Zm24.5,26.6c2.76-1.57,5.44-3,8-4.58a11.41,11.41,0,0,0,3-2.91c1.38-1.88,1.26-4.06.68-6.21a33,33,0,0,0-6.4-12.24,11.21,11.21,0,0,0-2.41-2.14,7.09,7.09,0,0,0-6.45-1.08,24.06,24.06,0,0,0-3.3,1.3,32.11,32.11,0,0,0-6.38,3.64C855.58,148,865.86,166.76,867.57,169Z" transform="translate(-587.73 -75.57)"/><path class="cls-1" d="M801.78,239.15l-32.1-26.84a17.22,17.22,0,0,1,1.07-1.71c3.18-3.83,6.36-7.65,9.59-11.44a37.3,37.3,0,0,1,3.15-3.26,14.71,14.71,0,0,1,13.24-3.63c.42.08.84.2,1.26.31,7,1.76,15.22,8.59,18.23,15.1a15.36,15.36,0,0,1-.81,15.18,13.38,13.38,0,0,1-1.06,1.63q-5.9,7.13-11.81,14.22A3.52,3.52,0,0,1,801.78,239.15ZM802,228c1.68-2,3.16-3.67,4.58-5.42a25.83,25.83,0,0,0,2.23-3.17,6.79,6.79,0,0,0,.05-7.36c-.28-.46-.52-1-.84-1.38a31.9,31.9,0,0,0-10.79-9.11c-4.13-2.08-7.31-1.51-10.58,1.79-1.67,1.68-3.16,3.53-4.7,5.34a12.72,12.72,0,0,0-1,1.7Z" transform="translate(-587.73 -75.57)"/><path class="cls-1" d="M1177.56,382.55c3.06-1,38.75-7.17,41.47-7.18a14.91,14.91,0,0,1,.53,1.75c.83,4.67,1.67,9.35,2.42,14a41.93,41.93,0,0,1,.48,5.48,13.69,13.69,0,0,1-4.65,11,20.18,20.18,0,0,1-4.74,3.33,31.61,31.61,0,0,1-18.25,3.09c-7.42-1-12.14-5.21-14-12.52-.76-3-1.23-6.13-1.79-9.21-.49-2.66-.94-5.32-1.38-8A16.82,16.82,0,0,1,1177.56,382.55Zm35.43,2.66c-3.67.15-24.34,3.8-26.81,4.78a54.57,54.57,0,0,0,1.93,10.07,6.79,6.79,0,0,0,5.77,5.05,21.23,21.23,0,0,0,4.83.29,50.79,50.79,0,0,0,7.35-1.23,19.66,19.66,0,0,0,4.78-1.94,7.48,7.48,0,0,0,4-7,41.67,41.67,0,0,0-1.38-9.61C1213.45,385.5,1213.19,385.38,1213,385.21Z" transform="translate(-587.73 -75.57)"/><path class="cls-1" d="M775.27,739.77a40.86,40.86,0,0,1-5.86,4,4.72,4.72,0,0,1-.81-.71q-8.34-12.76-16.63-25.55a4.27,4.27,0,0,1-.34-1,6.74,6.74,0,0,1,.93-.85c11.48-7.49,23-15,34.6-22.54a12.09,12.09,0,0,1,1.15,1.27q8,12.23,15.9,24.47a6,6,0,0,1,.35.74c-1.54,1.78-3.73,2.69-5.79,4.07a22.22,22.22,0,0,1-1.41-1.77q-4.71-7.18-9.39-14.4c-.58-.89-1.21-1.76-1.92-2.78a38.07,38.07,0,0,0-7.77,5l11.38,17.54c-.58,1.22-1.76,1.61-2.7,2.27s-2,1.26-3.12,2c-.52-.65-1-1.19-1.42-1.8-2.84-4.34-5.66-8.69-8.5-13-.58-.89-1.21-1.76-1.79-2.61a38.9,38.9,0,0,0-9.51,6c1.72,3.42,4.08,6.49,6.13,9.75S773,736.24,775.27,739.77Z" transform="translate(-587.73 -75.57)"/><path class="cls-1" d="M1050.69,782.89l.09.14c0-.42,0-.93.18-1.21a7.8,7.8,0,0,1,1.46-1.28l21.46-16.81c.42-.33.88-.62,1.35-1,1.23.48,1.73,1.63,2.47,2.51s1.45,1.88,2.3,3c-5.91,4.88-12,9.36-17.92,14.2a48.62,48.62,0,0,0,5.46,7.15,19.5,19.5,0,0,0,1.94-1.16c4.1-3.19,8.18-6.4,12.27-9.59.84-.66,1.71-1.28,2.68-2a24.24,24.24,0,0,1,4.52,5.75l-16.3,12.81c.7,2,3.28,5.56,6.49,8.89,1,.17,1.55-.62,2.21-1.12,4.69-3.65,9.37-7.34,14.06-11,.83-.65,1.71-1.26,2.64-2a31.89,31.89,0,0,1,4.39,5.48,9.24,9.24,0,0,1-1.09,1.2q-11.6,9.13-23.24,18.22c-.33.25-.71.44-1.24.77-.79-.94-1.56-1.81-2.28-2.73q-10.72-13.66-21.42-27.33C1052.37,784.85,1051.52,783.88,1050.69,782.89Z" transform="translate(-587.73 -75.57)"/><path class="cls-1" d="M729.69,350.52c3.49,1.39,6.94,2.16,10.51,3.28.4-1.08.78-1.95,1-2.85,1.72-5.69,3.4-11.39,5.11-17.08.21-.71.48-1.41.78-2.25,2.37-.06,4.37,1,6.64,1.62a6.48,6.48,0,0,1-.08,1.32q-4.12,14-8.28,28a10.91,10.91,0,0,1-.63,1.38c-2.67-.3-28.14-7.64-38.69-11.13a16.25,16.25,0,0,1-1.8-.87c2.92-9.94,5.8-19.76,8.84-29.68a24,24,0,0,1,6.8,1.92c-.62,3.73-2,7.15-2.94,10.66s-2.08,7-3.18,10.7a9.91,9.91,0,0,0,1.67.95c2.16.68,4.34,1.28,6.67,2a11.15,11.15,0,0,0,.89-1.7c1.54-5.06,3-10.14,4.55-15.21.3-1,.67-2,1-3.12a29.35,29.35,0,0,1,6.76,2.07C733.72,337.24,731.33,343.7,729.69,350.52Z" transform="translate(-587.73 -75.57)"/><path class="cls-1" d="M996.58,110.82c-.27,2.39-.11,4.55-.86,6.8a23.32,23.32,0,0,1-2.51,0c-5.91-.62-11.82-1.27-17.72-1.89a17.54,17.54,0,0,0-1.92,0,3.15,3.15,0,0,0-.45.9c-.29,2.45-.54,4.91-.81,7.45a6.49,6.49,0,0,0,3.45.94c4.83.51,9.67,1,14.5,1.51.86.1,1.7.3,2.64.47a14.94,14.94,0,0,1-.55,6.85,8.39,8.39,0,0,1-1.56.12c-4.73-.51-9.45-1-14.18-1.58a25.27,25.27,0,0,0-4.73-.27,37,37,0,0,0-1.29,10.82c3.71,1,7.61,1,11.43,1.49s7.5.76,11.16,1.27c.77,1.33.22,2.49.11,3.64s-.28,2.11-.45,3.36c-2.8.24-5.42-.45-8.07-.63s-5.36-.62-8-.92-5.16-.53-7.73-.81a61,61,0,0,1-8.18-1.13c1.51-13.86,3-27.58,4.5-41.47a9.75,9.75,0,0,1,2-.24c2.8.23,5.59.51,8.38.81q9.36,1,18.69,2A22.23,22.23,0,0,1,996.58,110.82Z" transform="translate(-587.73 -75.57)"/><path class="cls-1" d="M1055.17,149.92a39.22,39.22,0,0,1-3.09,6.3c-.74-.29-1.44-.51-2.09-.82-4.59-2.18-9.16-4.39-13.75-6.57-1-.46-2-.87-3.09-1.37-2,3.16-3.22,6.49-4.93,9.81.85.51,1.53,1,2.28,1.37,5.26,2.53,10.54,5,15.79,7.56a6,6,0,0,1,2.85,1.89c-.52,1.17-1.06,2.44-1.66,3.69-.36.76-.82,1.47-1.35,2.4-9.69-4.57-19.21-9.14-28.68-13.72.68-2.46,16-34.7,18.06-38.07a10.21,10.21,0,0,1,1.69.47q12.73,6.06,25.45,12.17a6.08,6.08,0,0,1,.91.66c0,1.17-.78,2.13-1.23,3.18s-1,1.91-1.55,3a18.21,18.21,0,0,1-2.12-.68c-5.08-2.41-10.14-4.84-15.22-7.26-1-.46-2-.87-2.88-1.29a21.86,21.86,0,0,0-4,7.94c.67.4,1.36.89,2.11,1.25,4.57,2.21,9.16,4.39,13.74,6.59C1053.26,148.88,1054.1,149.35,1055.17,149.92Z" transform="translate(-587.73 -75.57)"/><path class="cls-1" d="M761.85,245.48l-3.65,7.33c-.75-.09-1.38-.12-2-.24a5.49,5.49,0,0,0-5.53,1.93,11.08,11.08,0,0,0-3.14,7.28c0,3.06,2.46,4.51,5.07,2.93a16.75,16.75,0,0,0,3-2.44c1.62-1.59,3.1-3.32,4.74-4.89a39.33,39.33,0,0,1,4.64-4c4.48-3.15,9.15-3,13.66-.13s6.6,7.18,5.77,12.47a25.18,25.18,0,0,1-7.8,14.62c-4.44,4.19-10.52,4.84-16.33,1.86a16.68,16.68,0,0,1,1.48-3.82,10.44,10.44,0,0,1,1.79-3.47c1.18.13,2.35.3,3.53.39a7.16,7.16,0,0,0,6.52-2.88c1.7-2.16,3-4.53,2.84-7.4a5.1,5.1,0,0,0-2.13-4.17,3.5,3.5,0,0,0-4-.37,11.85,11.85,0,0,0-2.6,1.89c-1.71,1.66-3.26,3.47-5,5.1a38.13,38.13,0,0,1-5.41,4.61,10.93,10.93,0,0,1-12,.4c-4.31-2.44-6.4-7.33-5.25-12.57a24.06,24.06,0,0,1,7.47-13c3.81-3.44,8.25-4,13-2.21A7.56,7.56,0,0,1,761.85,245.48Z" transform="translate(-587.73 -75.57)"/><path class="cls-1" d="M1102.36,201.68l5.78,5.65c-.54,1-1,1.79-1.46,2.63a7.59,7.59,0,0,0,.37,8.27,13.59,13.59,0,0,0,3.79,4,6.42,6.42,0,0,0,3.33,1.13c3.66.16,5.72-2.35,4.72-5.85a22.13,22.13,0,0,0-1.21-3c-.87-1.86-1.86-3.66-2.67-5.55a38.64,38.64,0,0,1-2.12-5.76,11.25,11.25,0,0,1,1.82-9.86,11,11,0,0,1,12.11-4,13.12,13.12,0,0,1,3.25,1.43,23.7,23.7,0,0,1,9.64,11.47,11.85,11.85,0,0,1-2.51,13.21,2.38,2.38,0,0,1-.51.39,2,2,0,0,1-.47.16c-2.1-1.55-3.65-3.76-5.64-5.73.41-.85.76-1.61,1.13-2.36a5.27,5.27,0,0,0,.28-4.4,11.58,11.58,0,0,0-5.77-6.31,3.27,3.27,0,0,0-4.82,3.88,36,36,0,0,0,1.3,3.65c.78,1.78,1.75,3.48,2.51,5.26a49.22,49.22,0,0,1,2.4,6.35,12.6,12.6,0,0,1-19.11,13.5,26.8,26.8,0,0,1-9.91-11.31,13.36,13.36,0,0,1,.54-12.76A12.89,12.89,0,0,1,1102.36,201.68Z" transform="translate(-587.73 -75.57)"/><path class="cls-1" d="M1028.37,842.47l-8.6,2.25c-2.48-2.47-4-5.52-6.27-8.07-2.85.06-5.45,1.2-8.15,1.85s-5.41,1.42-8.12,2.13c-.94,3.4-.68,6.8-1.33,10.26a58.21,58.21,0,0,1-8.35,2.2,4,4,0,0,1-.32-1.12c1.61-14.71,3.24-29.41,4.85-44,1.36-1.28,3-1.24,4.38-1.68s2.92-.76,4.26-1.1a3.53,3.53,0,0,1,.44.16.69.69,0,0,1,.27.17L1027,839.88c.38.52.76,1,1.12,1.59A4.84,4.84,0,0,1,1028.37,842.47Zm-29.11-25.39c-.68,5.37-1.1,10.23-1.41,15.12a27.09,27.09,0,0,0,10.24-2.57C1007.2,827.42,1002,819.89,999.26,817.08Z" transform="translate(-587.73 -75.57)"/><path class="cls-1" d="M1188.34,674.6a46.66,46.66,0,0,1-4,8.23c-3.45.37-6.73-.73-10.21-.65-1.7,2.23-2.68,4.87-4,7.32s-2.55,5-3.85,7.52c2,2.85,4.64,5,6.62,7.58a25.54,25.54,0,0,1-4.08,8c-2.12-1.8-28.89-32-30.33-34.2,1-2.65,2.51-5.14,3.85-7.78,4-.35,7.83.55,11.69.76s7.52.72,11.28,1.07,7.74.69,11.61,1Zm-22.69,6.74c-4.42-.92-8.71-1.1-12.93-1.71a15.13,15.13,0,0,0-2.3,0,5,5,0,0,0,.51,1.08q4.39,4.77,8.82,9.49a5.44,5.44,0,0,0,1.24.68A88.47,88.47,0,0,0,1165.65,681.34Z" transform="translate(-587.73 -75.57)"/><path class="cls-1" d="M1167.78,345.47a50.52,50.52,0,0,1-2.25-8.48,6.53,6.53,0,0,1,1.37-.13q21.75,2.22,43.47,4.47a60.88,60.88,0,0,1,2.44,8.43c-.09.24-.12.34-.17.44a.81.81,0,0,1-.18.26l-34.25,26.15a9.49,9.49,0,0,1-1.1.67c-.08.05-.21,0-.51,0-1.1-2.61-1.56-5.46-2.46-8.26,2.33-2.57,5.44-4,7.8-6.3-.07-2.23-2.48-11.45-4.2-16.06C1174.6,345.79,1171.21,346.07,1167.78,345.47Zm33.37,3c-4.84-.87-9.38-.82-13.86-1.32a5.75,5.75,0,0,0-1.4.23,85.11,85.11,0,0,0,2.72,10C1190.86,356.46,1198.4,351.12,1201.15,348.51Z" transform="translate(-587.73 -75.57)"/><path class="cls-1" d="M1133.88,267.13c1.68-3,4-5.37,5.7-8.15a113.55,113.55,0,0,0-8.92-14.09c-3.29.07-6.4,1.66-9.92,1.63a57.72,57.72,0,0,1-4.44-7.26c2.41-1.12,4.91-1.18,7.27-1.74s4.87-1,7.31-1.43l7.62-1.49c2.44-.49,4.87-1,7.3-1.48s4.87-1,7.31-1.44,4.86-.92,7.34-1.38a66.13,66.13,0,0,1,4.88,7.44,13,13,0,0,1-.89,1.7q-12.29,17.1-24.61,34.19c-.25.35-.56.64-1,1.15A57.33,57.33,0,0,1,1133.88,267.13Zm19.63-27.26c-.91.1-1.45.1-2,.21-3.79.82-7.59,1.66-11.37,2.53a5,5,0,0,0-1.26.71c2.27,4.45,4.31,7.44,5.81,8.56C1147.56,248.8,1152.3,242.4,1153.51,239.87Z" transform="translate(-587.73 -75.57)"/><path class="cls-1" d="M812.05,166.4l6.42-5.48c2.5.86,36.07,18.49,40.22,21.1a6.1,6.1,0,0,1-.86,1.21c-1.87,1.63-3.79,3.21-5.82,4.92-3.09-1.4-5.88-3.28-8.82-4.64a117.9,117.9,0,0,0-12.88,10.79c.75,3.13,2.42,6.09,3.15,9.43a51.42,51.42,0,0,1-6.65,5.61C825.39,206.51,812.59,169.3,812.05,166.4Zm23.58,13.36c-.43-.47-.6-.77-.85-.91q-5.61-3.19-11.24-6.34c-.33-.19-.78-.44-1.25.32.79,2.14,1.62,4.46,2.51,6.75s1.41,4.67,2.87,6.88A94.41,94.41,0,0,0,835.63,179.76Z" transform="translate(-587.73 -75.57)"/><path class="cls-1" d="M689.06,505.26a39.39,39.39,0,0,1-.14-8.38c.88-.1,1.7-.26,2.53-.28,5.62-.1,11.24-.15,16.85-.27,2.92-.06,5.84-.18,8.75-.38,4.42-.31,6.9-2.82,7.25-7.19a11.33,11.33,0,0,0-.58-4.8,5.44,5.44,0,0,0-4.39-3.86,33.63,33.63,0,0,0-5.48-.42c-5.4.06-10.8.24-16.2.36q-3.4.07-6.81.1c-.63,0-1.26-.06-1.83-.1a20.23,20.23,0,0,1-.46-8.27,8.15,8.15,0,0,1,1.74-.37q13-.18,25.93-.29c1,0,1.95.05,2.92.13,6.61.51,11,4.44,12.16,11a32.74,32.74,0,0,1,0,11.3,12.59,12.59,0,0,1-11,10.73c-2,.22-4.08.51-6.13.57-7.23.22-14.47.35-21.71.5C691.42,505.36,690.36,505.29,689.06,505.26Z" transform="translate(-587.73 -75.57)"/><path class="cls-1" d="M757.85,695.49l1.44,8.41a24.31,24.31,0,0,1-2.56.63c-6.41.81-11.73-1.15-15.71-6.35a20.83,20.83,0,0,1-4.31-9.68,18.1,18.1,0,0,1,5.84-16.74,29.33,29.33,0,0,1,18-8,16.74,16.74,0,0,1,11.08,3,20.47,20.47,0,0,1,9.21,17c.12,4.94-1.65,8.49-5.66,11.93a48.49,48.49,0,0,1-5.62-6.44l1.33-1.77a8.49,8.49,0,0,0,1-9.17c-1.56-3.39-4.1-5.58-7.91-5.89a13.86,13.86,0,0,0-4.49.38,29,29,0,0,0-10.87,5.59,13.06,13.06,0,0,0-2.27,2.31,9.13,9.13,0,0,0-.87,10.35,8.61,8.61,0,0,0,8.49,4.86C755.14,695.82,756.32,695.64,757.85,695.49Z" transform="translate(-587.73 -75.57)"/><path class="cls-1" d="M1141.25,698.7c-1,2.83-1.94,5.35-2.9,8a11.5,11.5,0,0,1-1.63-.09,8.47,8.47,0,0,0-9.28,3.79c-2.29,3.29-2.69,6.8-.7,10.37a13.76,13.76,0,0,0,2.35,3.07,29.15,29.15,0,0,0,10.29,6.62,11.36,11.36,0,0,0,5.7.81c5.7-.78,11-7.84,6.36-14.65-.55-.8-1.14-1.56-1.79-2.45.64-1.45,2.1-2.09,3.2-3.05a11.73,11.73,0,0,1,3.35-2.43,16.1,16.1,0,0,1,4.66,16.58,21.76,21.76,0,0,1-6.17,9.75,18,18,0,0,1-18.13,3.92,29.06,29.06,0,0,1-14.77-10.09c-4.9-6.32-5.48-13.21-2-20.4a20.52,20.52,0,0,1,6.54-7.92C1130.82,697.39,1135.65,696.87,1141.25,698.7Z" transform="translate(-587.73 -75.57)"/><path class="cls-1" d="M1203.19,317.49c.93,2.69,2.26,5.17,2.78,8-3.12.46-42,1.33-44.62,1-1.38-2.5-2.15-5.32-3.28-8.12a13.25,13.25,0,0,1,1.27-1.41q15.63-13.41,31.28-26.8c.4-.34.85-.64,1.44-1.08a52.55,52.55,0,0,1,3.4,8.45c-2.6,2.55-5.46,4.68-8.17,7s-5.31,4.43-8,6.65-5.41,4.45-8.62,7.23a54.27,54.27,0,0,0,8.84-.18c2.6-.12,5.19-.17,7.78-.28s5.4-.37,8.1-.43S1200.58,317,1203.19,317.49Z" transform="translate(-587.73 -75.57)"/><path class="cls-1" d="M740.72,383.29c-.63,3.11-1.2,5.95-1.75,8.68-2.75.87-39.41,6.36-44.19,6.63-.6-1.5.3-2.9.47-4.33s.61-2.93,1-4.53c10.47-1.65,20.88-2.72,31.22-4.31.15-1.14-.75-1.27-1.33-1.6Q714.84,377.4,703.56,371c-1-.59-2-1.2-3-1.76a27.62,27.62,0,0,1,1.7-8.59,1.08,1.08,0,0,1,.29-.09.67.67,0,0,1,.31.07c4.19,2.48,8.38,4.94,12.55,7.44C723.76,373.06,732.08,378.09,740.72,383.29Z" transform="translate(-587.73 -75.57)"/><path class="cls-1" d="M1084.31,149.77c-1.81,2.62-3.57,4.92-5.28,7.26s-3.33,4.53-5,6.79-3.49,4.68-5.18,7.06-3.52,4.34-4.85,7c5.49,4.31,11.19,8.19,16.76,12.53a36.21,36.21,0,0,1-4.28,5.54,8.76,8.76,0,0,1-1.19-.61q-11-8.07-21.92-16.16a3,3,0,0,1-.55-.72c1.16-2.24,22.12-30.87,24.59-33.57C1079.82,146.07,1081.8,147.89,1084.31,149.77Z" transform="translate(-587.73 -75.57)"/><path class="cls-1" d="M1178.46,261.3a49.09,49.09,0,0,1,3.58,7.58c-10.27,5.18-20.61,10-31,15.25,3,6.54,6.19,12.62,9.08,18.92a28.68,28.68,0,0,1-6.43,3.17c-4.45-8.76-8.61-17.52-13-26.37a7.11,7.11,0,0,1,1.23-1q17.6-8.64,35.22-17.23A7.19,7.19,0,0,1,1178.46,261.3Z" transform="translate(-587.73 -75.57)"/><path class="cls-1" d="M1136.81,758.61c-2.81-1.8-31.56-24.45-33.28-26.23a23.89,23.89,0,0,1,5.12-6.64,9.36,9.36,0,0,1,1,.6L1142,751.71A21.7,21.7,0,0,1,1136.81,758.61Z" transform="translate(-587.73 -75.57)"/><path class="cls-1" d="M762.8,222.49,797.67,246a36.09,36.09,0,0,1-4.67,7c-2.42-1.14-32.43-21.34-35-23.53A44.38,44.38,0,0,1,762.8,222.49Z" transform="translate(-587.73 -75.57)"/><path class="cls-1" d="M692.71,413.53a54.47,54.47,0,0,1,1.13-8c3.07-.1,38.13,4.63,41.72,5.61.28,1.33-.21,2.69-.32,4.05s-.42,2.53-.66,3.9a24.69,24.69,0,0,1-3,0c-6.86-.91-13.71-1.86-20.57-2.8L694.64,414A19.86,19.86,0,0,1,692.71,413.53Z" transform="translate(-587.73 -75.57)"/><path class="cls-1" d="M942.67,596.61a17.19,17.19,0,0,0-1.85.17,145.86,145.86,0,0,1-21.24,2.52c-7.06.23-14.06-.09-20.89-2.13-7.27-2.17-12-7.12-14.68-14a9.06,9.06,0,0,1,.54-7c1.05-2.43.56-4.67-.14-6.94a9.82,9.82,0,0,0-2.86-4.27,4.37,4.37,0,0,0-3.22-1.23,16.69,16.69,0,0,1-4.17-.42,3.76,3.76,0,0,1-2.89-4.42c.07-.65.26-1.28.3-1.93.17-2.79-.87-4.55-3.58-5.43a6.88,6.88,0,0,1-5.07-5.72,6,6,0,0,1,.33-3.15,34.27,34.27,0,0,0,1.19-4.69A1.12,1.12,0,0,0,863,536.7a9.59,9.59,0,0,0-3,1c-2.87,1.89-5.84,1.32-8.73.41a19.6,19.6,0,0,1-4.55-2.44,5.33,5.33,0,0,1-2.42-5.33,29.46,29.46,0,0,1,.65-3.83,151.26,151.26,0,0,0,3.51-24.05c.68-8.3,1.61-16.58,2.34-24.88.42-4.74.74-9.51-.42-14.21a14.75,14.75,0,0,0-1.64-4.19,11.24,11.24,0,0,1-1.56-5.22c-.24-3.12-.49-6.25-.71-9.38a21.14,21.14,0,0,0-1-5.29c-.9.21-1.71.36-2.51.59a8.37,8.37,0,0,1-8.67-2.16,25.26,25.26,0,0,1-3-3.36q-10.63-14.87-5.21-32.35a53.17,53.17,0,0,1,12.65-21.27A71,71,0,0,1,852,369.91a8.19,8.19,0,0,0,3.06-3.6,106.49,106.49,0,0,1,5.39-10c4.14-6.6,8.46-13.08,12.72-19.6q3.46-5.3,7-10.56A253.39,253.39,0,0,0,901,288.4q5.34-12,11.15-23.79A143,143,0,0,1,928.79,238a60.72,60.72,0,0,1,8.53-8.88A40.18,40.18,0,0,1,962,219.66a60.93,60.93,0,0,1,22.32,3.2c.3.11.61.2.92.3a138.35,138.35,0,0,1,21.2,8.94,29.32,29.32,0,0,1,6.56,4.69,51.22,51.22,0,0,0,6.89,5.38,56,56,0,0,0,7.65,4.25c11.44,5.16,21,12.85,29.41,22a121.69,121.69,0,0,1,11.71,15.13,59.73,59.73,0,0,1,8.81,22.84,79,79,0,0,1,1.2,17.77,8,8,0,0,0,1.58,5.42,65.72,65.72,0,0,1,6.66,11.49,44.1,44.1,0,0,1,4,15,41.93,41.93,0,0,1-1.35,12.86,83.51,83.51,0,0,1-9.14,23.15q-4.47,7.73-9.11,15.35a106,106,0,0,0-8.27,16.15,50.67,50.67,0,0,0-3.41,25.13c.27,2.14.2,4.32.31,6.48,0,.72.12,1.45.21,2.36,1-.29,1.82-.48,2.62-.76a23.62,23.62,0,0,1,15.29,0,32.83,32.83,0,0,1,7.88,3.77,14.45,14.45,0,0,1,2.72,2.27,49.46,49.46,0,0,1,13.33,27.25,52.73,52.73,0,0,1,.23,10.05,89.45,89.45,0,0,1-2.61,18.93,52.5,52.5,0,0,1-2.63,7.3,22.19,22.19,0,0,1-2.73,4.39c-1.76,2.33-3.67,4.54-5.5,6.8a41.21,41.21,0,0,1-27.88,15.55c-4.83.61-9.64,1.38-14.53,1.1-2.9-.17-5.79-.55-8.72-.83-.76.86-.31,1.84-.13,2.75a99.16,99.16,0,0,0,4.7,16.18,126.67,126.67,0,0,0,8.48,18.22c3.63,6.29,7.85,12.17,13.63,16.78a27.86,27.86,0,0,1,9.94,16.66,60.54,60.54,0,0,1,.48,24.17c-5.43,27.79-16.62,52.93-34.72,74.83-2.69,3.25-5.52,6.39-8.38,9.49-9.23,10-20.73,15.79-34,18.22a68,68,0,0,1-9,.9,271.31,271.31,0,0,1-32.76-.35c-3.34-.24-6.69-.51-10-.61a68.85,68.85,0,0,1-15.92-2.86,97.43,97.43,0,0,1-38.37-19.67c-3.26-2.77-3-1.64-3.36-6.52a35.9,35.9,0,0,1,2.68-17.13,63.41,63.41,0,0,1,15.81-22.7,140.22,140.22,0,0,0,19.11-21.17A52.42,52.42,0,0,0,932,649.26a151.16,151.16,0,0,0,10.53-40c.35-3.11.52-6.24.69-9.37A4.89,4.89,0,0,0,942.67,596.61ZM891.83,720.49a9.67,9.67,0,0,0,1.37-1.72c1.35-2.82,2.66-5.67,3.9-8.55.73-1.68,1.29-3.44,2-5.15a8.42,8.42,0,0,1,3.14-4,49.87,49.87,0,0,1,4.89-3.18c3.55-1.82,7.13-3.64,10.83-5.14a25.31,25.31,0,0,0,8.87-5.83c2.26-2.33,4.45-4.72,6.65-7.11a206.73,206.73,0,0,1,31.38-28.1A293.83,293.83,0,0,1,994.44,633c3.87-2.15,7.85-4.12,11.9-5.92a165,165,0,0,1,30.54-9.75c7.07-1.6,14.22-2.75,21.39-3.79.48-.07,1.12.05,1.3-.84a13.64,13.64,0,0,0-.92-1.16,93.71,93.71,0,0,1-17-26.68,195,195,0,0,1-8.85-25.74c-.73-2.6-1.44-5.2-2.17-7.8a25.18,25.18,0,0,1-8-5c-1.83-1.83-3.63-3.71-5.32-5.68a16.89,16.89,0,0,1-4.12-9.69c-.19-2.16-.29-4.32-.39-6.48,0-.35-.23-.9.61-1.11.29.47.65,1,.94,1.52.93,1.7,1.81,3.45,2.77,5.13a26.57,26.57,0,0,0,9.4,9.67,45.1,45.1,0,0,0,11.24,5,62.6,62.6,0,0,0,19.94,1.95,36.29,36.29,0,0,0,15.5-4.27c7.8-4.18,13.79-10.35,19-17.34a19.72,19.72,0,0,0,1.75-3.11,16,16,0,0,0,.7-2c-.31-.35-.54-.57-.74-.83-1.37-1.78-1.41-2.06-.16-4a11.83,11.83,0,0,0,2.08-5.05,5.21,5.21,0,0,1,.45-1.55,13.88,13.88,0,0,0,1-6.68,58,58,0,0,0-2.82-14.94,40.17,40.17,0,0,0-8.83-16.07c-5.81-6.19-12.87-8.46-21.18-6.89-1.89.36-3.76.85-5.71,1.3l-5.11-5.32c.07-1.22.11-2.19.19-3.15.4-5,.82-9.92,1.2-14.88a13.81,13.81,0,0,0-.11-2c-4.72-1.21-9.21-2.38-13.7-3.52a22.08,22.08,0,0,0-2.86-.61c-2.46-.31-4.9-1-7.41-.63a20.39,20.39,0,0,0-14.6,8.7c-.62.88-1.22,1.77-1.79,2.59a3.27,3.27,0,0,1-3.26-.39,8.68,8.68,0,0,1,0-1.25,20.46,20.46,0,0,0-1-9c-2.15-7.27-6.41-9.54-13.75-8.65-.32,0-.64.11-1,.18a8.62,8.62,0,0,0-6.34,5.07,30.56,30.56,0,0,0-1.51,4.6c-1,3.77.12,7,2.57,9.95a21.09,21.09,0,0,0,5.51,4.49,4.34,4.34,0,0,0,5.14-.36c.26-.19.46-.46.72-.66a1.64,1.64,0,0,1,1.8-.31,1.47,1.47,0,0,1,.69,1.67,18.19,18.19,0,0,1-.57,2.83,15.42,15.42,0,0,1-.77,1.78,16,16,0,0,0,1.28,15.5c1,1.64,2.14,3.25,3.24,4.86a22.62,22.62,0,0,0,11.72,8.81,55.55,55.55,0,0,0,15,2.63,15,15,0,0,0,2.59-.15,28.28,28.28,0,0,0,20-11.33,22.09,22.09,0,0,1,1.44-1.76,1.07,1.07,0,0,1,1.46-.22,2.65,2.65,0,0,1,.87,1.27,2.26,2.26,0,0,1-.29,1.22A25.73,25.73,0,0,1,1049,490.62a35.78,35.78,0,0,1-20.42,5.31c-10.35-.45-18.68-4.89-25.17-12.88a26.29,26.29,0,0,1-4.49-8.58,35.3,35.3,0,0,1-1.52-12.17c0-1.06.39-2.14-.18-3.26-1.65-.3-3.36-.49-5-.93-4-1.08-7.43-3.32-9.33-7-2.91-5.67-3.32-11.62-.36-17.48,1.07-2.11,2.5-4,3.75-6.06.31-.51.58-1,1-1.75l-3.51-1.41c-2.59-1-3.3-2.13-3.11-5a13.8,13.8,0,0,1,3.22-8.33c1.41-1.63,3-3.08,4.53-4.63.74-.76,1.8-1.24,2.16-2.55l-2.4-1.88c.54-.3.93-.48,1.28-.72,2-1.32,2.39-2.36,1.9-4.65a9,9,0,0,0-4.5-6.08,6.82,6.82,0,0,0-3-1,7.75,7.75,0,0,0-6.4,2.58,19.47,19.47,0,0,0-2.19,3.2,25.38,25.38,0,0,1-4.94,6.39c-.46.43-.87.92-1.35,1.42.2.71.35,1.33.55,1.94a61.51,61.51,0,0,0,5.81,11.93c.43.71.76,1.49,1.15,2.27a39.63,39.63,0,0,1-7.33,4.5,6.19,6.19,0,0,0-2.13,1.41c-3.74,4.55-6.1,9.56-5.92,15.7.16,5.08,4.4,11.39,10.18,12.92a24.27,24.27,0,0,0,7.73.51c1.06-.07,2.11-.19,3.48-.32a7.67,7.67,0,0,1-.73,1.66c-.9,1.07-1.86,2.1-2.83,3.11a8.15,8.15,0,0,1-8.64,2.2,34.76,34.76,0,0,1-8.87-3.91,7.79,7.79,0,0,0-7.81,0c.32.8.55,1.51.89,2.17a35.06,35.06,0,0,0,6.77,9.06c2.86,2.74,5.94,5,10.09,5.35a6.76,6.76,0,0,1,1.27.23c2.69.81,5.42,1.51,8,2.5a23,23,0,0,1,4.16,2.48,2.83,2.83,0,0,1-.59,4.82,8.57,8.57,0,0,1-3.12.54,10.31,10.31,0,0,1-2.55-.47,42.59,42.59,0,0,1-16.14-8,34.75,34.75,0,0,1-11.69-15.27,5,5,0,0,0-3.68-3.26,4.88,4.88,0,0,0-2.21-.12,2.6,2.6,0,0,0-2.21,2c.5,1.34,1,2.85,1.63,4.36a69.7,69.7,0,0,0,15.6,23.69c9.13,9.4,20.58,13.22,33.51,12.88a84.06,84.06,0,0,1,11.66.38,27.23,27.23,0,0,1,16.75,7.72c.45.45.81,1,1.08,1.29-.09,2-2.12,1.9-2.79,3.09.22.49.37.9.58,1.27a24.73,24.73,0,0,0,9.93,9.55,55.23,55.23,0,0,0,15.16,5.6c6.55,1.42,13.18,1.55,19.54-.73,10.24-3.67,17.11-10.69,20-21.33.32-1.15.52-2.34.92-3.45a1.89,1.89,0,0,1,1.15-1,1.83,1.83,0,0,1,2.28,2.22c-.9,3.34-1.79,6.69-2.88,10A23.26,23.26,0,0,1,1081,524c-2.63,2.57-5.38,5-8.21,7.37a20.87,20.87,0,0,1-8.66,4.25,48.74,48.74,0,0,1-19.65.49,52.32,52.32,0,0,1-13.2-4.41,33.16,33.16,0,0,1-13.16-10.77c-1.51-2.11-3-4.25-4.52-6.34a5.23,5.23,0,0,1-1.09-3.64c0-.43.05-.86.05-1.29a2.08,2.08,0,0,0-1.37-2,10.81,10.81,0,0,0-2.5-.64,2.8,2.8,0,0,0-3,1.54,9.93,9.93,0,0,0-1,2.4c-.33,1.25-.55,2.54-.76,3.81a11.84,11.84,0,0,1-2.44,5.59,15.3,15.3,0,0,1-11.17,5.81,6.28,6.28,0,0,1-2.22-.34,2.26,2.26,0,0,1-1.63-1.84c-.65-3.14.34-5.5,3.55-6.17,1.16-.24,2.34-.43,3.51-.56a11.43,11.43,0,0,0,6.65-3.11,6.63,6.63,0,0,0,2.16-3.89c.24-1.59-.42-2.54-2-2.66a15.08,15.08,0,0,0-5.77.64c-.66,1.05-1.25,2.07-1.94,3a6.41,6.41,0,0,1-1.23,1c-.17-.54-.28-.84-.35-1.15-.83-3.54-1.28-3.44-4.23-3.78A45.18,45.18,0,0,1,959.5,493.8a76.09,76.09,0,0,1-11.82-15.4c-2.67-4.58-5.14-9.28-7.71-13.91-1.47-2.65-3-5.27-4.44-7.92a3.92,3.92,0,0,0-2.43-2c-1.64-.52-3.26-1.16-4.9-1.68a4.57,4.57,0,0,1-2.71-2.15c-1.88-3.16-3.89-6.24-5.74-9.41a12.43,12.43,0,0,0-11.15-6.62c-1.29,0-2.59.1-3.89.1-3.68,0-7.36.12-11-.12a34.73,34.73,0,0,1-18.43-6.42,53.93,53.93,0,0,1-13.14-13.35,90.09,90.09,0,0,1-7.26-13c-.45-1-1-1.9-1.5-3a15,15,0,0,0-2.28.42,14.3,14.3,0,0,0-6.72,5.42,36.4,36.4,0,0,0-4.84,9.5,17.76,17.76,0,0,1-1.07,2.71,4.17,4.17,0,0,1-1.37,1.3,1.05,1.05,0,0,1-1.54-.66,8.61,8.61,0,0,1-.12-2.26c.3-2.35.65-4.71,1.07-7a9.52,9.52,0,0,1,2.5-4.85c1.61-1.75,3.26-3.47,4.93-5.16,1.37-1.38,2.82-2.68,4.19-4.07.29-.3,1-.56.46-1.33-1.92,1.43-3.81,2.88-5.74,4.26a14.21,14.21,0,0,1-2.54,1.39,1,1,0,0,1-1.43-1.17,15.51,15.51,0,0,1,1.18-3.33,24.45,24.45,0,0,1,6.56-7.54c1.25-1,2.52-2,3.68-2.94.12-1.55.23-2.92.35-4.46a10.27,10.27,0,0,0-5,2.81c-2.36,2.21-4.58,4.58-6.8,6.94a23.59,23.59,0,0,0-5.41,9.87,42.94,42.94,0,0,0-1.49,17c1,8.22,5.33,14.23,12.27,18.49a6.32,6.32,0,0,0,1.65.42c0-3.27,0-6.29,0-9.31A81.78,81.78,0,0,1,847,411.48a13.83,13.83,0,0,1,.85-2.77,1.23,1.23,0,0,1,1.72-.28,3.44,3.44,0,0,1,1,1.58,13.34,13.34,0,0,1,0,3.22,91.76,91.76,0,0,0,0,14.92c.34,5,.82,9.93.79,14.9a32.63,32.63,0,0,0,4.27,17.08,7.29,7.29,0,0,1,1,2.69,73.25,73.25,0,0,1-.31,22c-1.29,7.56-2.06,15.21-2.93,22.84-.8,7-1.37,14-3.87,20.67a1.84,1.84,0,0,0,0,.62,2.1,2.1,0,0,0,.29.58,3.74,3.74,0,0,0,.74.63c2.58,1.8,5.46,1.82,8.42,1.44a4.7,4.7,0,0,0,3.38-1.72A4.92,4.92,0,0,1,866,528.1a40.7,40.7,0,0,0,6.62-1.52,3.59,3.59,0,0,0,2.12-5.46,38.18,38.18,0,0,0-2.4-3.46,10.47,10.47,0,0,1-.57-1.12c.53-.13.86-.32,1.12-.25,5.58,1.33,8.61,8.73,5.52,13.56a7.67,7.67,0,0,1-5.87,3.6c-1,.12-2.14-.2-3.12.48.18,1.25.33,2.42.54,3.58a2.16,2.16,0,0,1-.89,2.27,5.75,5.75,0,0,0-.8.86c.21,3.53,2.2,5.63,5.13,7.35l5-2.39c2.13.76,4.26,2,6.68,1.61l2.83-2.26a19,19,0,0,1,6.29,4.37l-1.34,2.94h-3.73c-2.6,0-5.2,0-7.79.06a8.7,8.7,0,0,0-3.1.75,2.85,2.85,0,0,0-1.52,3.28c.25,1.26.94,1.81,2.52,2.08a6.32,6.32,0,0,1,2.18.45c4.47,2.72,7.61,6.38,7.92,11.89.1,1.73.12,3.46.14,5.19.12,7.54,4.35,13.25,11.48,15.5a14.19,14.19,0,0,0,2.19.59,76.52,76.52,0,0,0,9,1.22c5.95.17,11.9,0,17.85,0a11.37,11.37,0,0,0,1.93-.19,117.52,117.52,0,0,0,41.39-15.44A58.51,58.51,0,0,0,984,569.31c1.53-1.51,3.21-2.89,4.86-4.29.33-.28.74-.86,1.38-.27-.86,2.82-2.81,4.82-4.91,6.7a110.92,110.92,0,0,1-34.27,21.28c-.89.34-1.75.77-2.63,1.15-.28,3.51-.54,6.84-.8,10.18a171.7,171.7,0,0,1-2.34,17.35c-1.25,6.85-3.62,13.34-5.89,19.88-4.91,14.18-12.57,26.53-23.9,36.51-2.51,2.22-4.88,4.6-7.25,7a81.41,81.41,0,0,0-9.64,11.8,32.07,32.07,0,0,0-5.46,15.1c-.27,2.8-.34,5.6-1.35,8.27-.06.18,0,.42.08.63l-.48.17.23.26Zm149.28-322.43a16.11,16.11,0,0,0,6.3,1.05q8.76-.21,17.5-.6A9.7,9.7,0,0,0,1072,395a32.15,32.15,0,0,0,2.45-3.42c1.32-2,2.55-4,3.88-6a41.58,41.58,0,0,0,5.86-12.59,60.58,60.58,0,0,0,1.85-15.41,29.54,29.54,0,0,0-2.29-11.69,62.58,62.58,0,0,0-10.21-17.24,6.74,6.74,0,0,1-1.75-5,18.69,18.69,0,0,1,1.63-7.23,7.42,7.42,0,0,0,.71-5,71.33,71.33,0,0,0-2.37-8.41,70.42,70.42,0,0,0-22.51-30.41c-1.36-1.07-2.59-2.3-3.88-3.45-3.56-3.16-7-6.4-10.7-9.45a41.14,41.14,0,0,0-9.67-5.88,16,16,0,0,0-3.66-1.31c-4.16-.71-7.34-3-10.17-5.94a53.6,53.6,0,0,0-22.38-14.44c-10.36-3.41-20.89-5.52-31.84-5.21a31.53,31.53,0,0,0-5.14.52c-5.74,1.13-10.33,4.29-14.32,8.42a51.85,51.85,0,0,0-8,11c-3.94,7.08-8,14.13-11.72,21.32-6.75,12.95-13.31,26-20,39-.69,1.35-1.32,2.74-2.13,4-4.11,6.49-8.23,13-12.43,19.4A120,120,0,0,1,874.71,342a76.7,76.7,0,0,0-12.54,20.75,9.39,9.39,0,0,0-1.16,4.17,13.37,13.37,0,0,0,2.17.38c4.76.07,9.51.14,14.27.12s8.56-2,11.86-5.22a23.26,23.26,0,0,0,4.18-5.76c.36-.66.68-1.35,1-2a1.37,1.37,0,0,1,1.64-.7c.63.13.89.7.66,1.58q-.69,2.67-1.47,5.31a29.23,29.23,0,0,0-.3,14.77c1,4.78,2.42,9.42,5.87,13.15,2,2.15,3.75,4.49,5.77,6.59a51,51,0,0,0,16.72,11.54A36.6,36.6,0,0,0,950,408.19a69.63,69.63,0,0,0,15.53-7.28,32,32,0,0,0,5.45-4.56,19.58,19.58,0,0,0,4.63-7.73,3.07,3.07,0,0,0-1.2-4,15.39,15.39,0,0,0-2.3-1.13c-.41.64-.73,1.07-1,1.53a30.71,30.71,0,0,1-8.42,9.34c-.94.72-1.92,1.41-2.84,2.16a25.64,25.64,0,0,1-20.67,5.58,60.42,60.42,0,0,1-18.52-5.7,33.29,33.29,0,0,1-11.54-9.29c-1.53-1.95-3-3.93-4.5-5.95a22.93,22.93,0,0,1-4.45-13.65,44.82,44.82,0,0,1,8-25.94,26.94,26.94,0,0,1,8.75-8.07,12.48,12.48,0,0,1,7.44-1.82A24.52,24.52,0,0,1,936,335.47a11.21,11.21,0,0,1,5.21,7.87c.91,5.35-.77,10.08-3.78,14.36-1.75,2.5-6,3.14-8.52,1.42-1.94-1.33-2.42-3.07-.77-4.94.42-.48,1-.87,1.42-1.32,2-1.87,2.24-2.93,1.24-5.48a14.69,14.69,0,0,0-1.18-2.3,3.91,3.91,0,0,0-2.9-1.88c-3.81-.46-7.37.07-10.19,3a16.86,16.86,0,0,0-2.26,2.75,32.47,32.47,0,0,0-5,15.61c-.42,7,2,13.12,6.33,18.6,6.14,7.73,19.14,13.49,30.57,11.4a27.46,27.46,0,0,0,11.85-5,19.91,19.91,0,0,0,7.33-20.77,101.05,101.05,0,0,0-5.51-16.26,122.27,122.27,0,0,0-14.28-23.91c-.71-1-1.42-1.91-2.14-2.86a2.21,2.21,0,0,1-.27-2.44,2.37,2.37,0,0,1,2.44-1.24,6.43,6.43,0,0,1,3.85,1.53,36.83,36.83,0,0,1,6.48,6.78,61.46,61.46,0,0,1,6.53,11.2,130.75,130.75,0,0,1,7.17,20.14,9.37,9.37,0,0,0,.77,2.47,32.23,32.23,0,0,1,2.78,6.91,23.16,23.16,0,0,0,12,13.83,46.32,46.32,0,0,0,11.61,4c.49.1,1,.12,1.56.18a4.52,4.52,0,0,0,.15-1.11c-.39-2.46-.73-4.93-1.24-7.36a55.45,55.45,0,0,0-6.65-16.48q-3.85-6.57-8.07-12.93a62.67,62.67,0,0,1-5.42-10.32,33.7,33.7,0,0,1-2.68-13.25c-.07-17.53-.25-35.06-1.43-52.56-.21-3.13-.37-6.26-1.57-9.23a7.75,7.75,0,0,1-.28-2.23c-.1-1.39-.18-2.79-.24-4.18,0-.39-.24-.88.56-1.12a7.13,7.13,0,0,1,3.29,4.44,35.68,35.68,0,0,1,1.38,9.92c.12,14.93-.3,29.87.62,44.79.23,3.78.36,7.57.76,11.33a44,44,0,0,0,3.25,12.85,15.8,15.8,0,0,0,2.11,3.62,91,91,0,0,1,17.93,35.65c.1.38.07.91.91,1a14.76,14.76,0,0,0,1.2-1.19c1.59-1.92,3.09-3.91,4.74-5.77a27.51,27.51,0,0,1,3.73-3.59,9.2,9.2,0,0,1,8.25-1.74c2.93.74,5.91,1.33,8.89,1.85,4.38.76,8.78,1.31,13.23.49a19.38,19.38,0,0,1,2.52-.13c-.56,1-.94,1.72-1.39,2.42a3.92,3.92,0,0,0-.51,3.68,12.53,12.53,0,0,1,.54,3.18,37.67,37.67,0,0,1-1.47,15.4C1041.36,396.93,1041.29,397.35,1041.11,398.06Zm22.28,218.71c-.79,0-1.32,0-1.85,0-4.3.4-8.63.66-12.91,1.26a144.4,144.4,0,0,0-35.84,9.9,208.28,208.28,0,0,0-50.06,30.33,260.49,260.49,0,0,0-32.36,31.35,14.52,14.52,0,0,1-4.22,3.47c-3.85,2-7.68,4-11.56,5.88-2.43,1.18-4.93,2.22-7.43,3.24a4.59,4.59,0,0,0-2.49,2.39,38,38,0,0,0-3.34,8.42,13.57,13.57,0,0,1-3.86,7,11.85,11.85,0,0,0-1.09,1.4,17,17,0,0,0,5.79,8.63c1.42,1.16,3,2.18,4.43,3.28,2.25,1.7,4.44,1.1,6.6-.17a12.11,12.11,0,0,0,1.26-1c.85-.68,1.68-1.37,2.55-2a10.07,10.07,0,0,1,1.47-.64c-.51,1.14-.8,1.81-1.11,2.47-2,4.24-1.33,6,3.22,7.44,5.45,1.74,10.91,3.49,16.45,4.93a126.14,126.14,0,0,0,28.78,4.46c8.11.19,16.22.19,24.32-.33a72,72,0,0,0,13.45-2.08c5.59-1.45,11-3.54,15.49-7.18a92.55,92.55,0,0,0,13.72-13.77,6.63,6.63,0,0,0,.64-1.6l-5.67.44a18.66,18.66,0,0,1,.92-1.63c.9-1.22,1.84-2.41,2.77-3.61a7.38,7.38,0,0,1,6.11-3.09c.74,0,1.48-.09,2.35-.15,1.24-2.07,2.54-4.06,3.65-6.15,4.58-8.59,9.1-17.21,13.63-25.82.36-.67.68-1.36,1-2.05.85-1.89.88-2.31-.76-3.58s-1.2-2.46-.35-3.62c.38-.52.89-.94,1.3-1.44a49.6,49.6,0,0,0,3.2-4.06c1.59-2.44,3-5,4.51-7.49a6,6,0,0,0,.51-1.52,68.65,68.65,0,0,0,1.75-12.51c0-.28-.21-.58-.41-1.07a25,25,0,0,1-2.82.45,26.64,26.64,0,0,1-4.19,0,1.87,1.87,0,0,1-1.66-1.75,2.27,2.27,0,0,1,1-2.53,21.23,21.23,0,0,1,2.11-.78c1.6-.65,3.19-1.29,4.76-2a2.74,2.74,0,0,0,1.5-2.33,23.53,23.53,0,0,0-.6-9c-.26-1-.27-2.17-1.2-3l-3.92-.72c0-2.06,1.48-3.27,2.08-4.91ZM1014,436.64a8.34,8.34,0,0,0,2.26-.58c1.66-1,3.26-2.11,4.82-3.26s2.82-2.36,4.3-3.45c3.53-2.6,7.24-3.49,11.55-1.73a72.19,72.19,0,0,0,9.91,3,16.23,16.23,0,0,0,9.39,0c.32-.75.71-1.51,1-2.31a82.84,82.84,0,0,1,6.62-14.07c1.51-2.62,3.1-5.19,4.63-7.8a9.16,9.16,0,0,0,.54-1.51,5.81,5.81,0,0,0-1.22,0,45.54,45.54,0,0,1-14.16,1.06,79.84,79.84,0,0,0-8.75.14,23.63,23.63,0,0,0-11.62,3.65,13.74,13.74,0,0,1-2.61,1.28,1.26,1.26,0,0,1-1.81-1.2,2.57,2.57,0,0,1,.84-2.31,22,22,0,0,0,3.34-3.49c1.65-2.27,3.14-4.66,4.63-7a13.21,13.21,0,0,0,1.81-5.16,23.22,23.22,0,0,0-.48-8.06c-.33-1.66-.45-3.43-1.57-5-.92-.17-1.87-.39-2.83-.49a40.85,40.85,0,0,1-13.37-3.65,9.66,9.66,0,0,0-12.2,3,20.57,20.57,0,0,0-4.28,11,15.75,15.75,0,0,1-.86,4.43c-2.4,6.15-5.9,11.51-11.49,15.31a38.22,38.22,0,0,0-4.22,3.52,6.48,6.48,0,0,0-1.85,3.71,4.33,4.33,0,0,0,1.31,3.83,3.45,3.45,0,0,0,3.39,1.37,42.24,42.24,0,0,1,12.6.41c5.8.9,10.55,4.28,10.39,11.89C1014,434.26,1014,435.33,1014,436.64Zm-161-58.5c2,1.26,3.26,2.52,3.72,4.51A18,18,0,0,1,859,382a16.71,16.71,0,0,1,3.85-.26,19.22,19.22,0,0,1,14.41,8.89c2.59,3.9,2.62,8.12,1.11,12.42-.15.45-.39,1.06-1.26.79-.65-1.25-1.29-2.62-2-3.92s-1.4-2.86-2.81-3.81c-.22.36-.38.51-.4.69s0,.65,0,1c-.37,2.48-1.86,3.2-4.14,2a32.12,32.12,0,0,0-3.47-1.74,7.18,7.18,0,0,0-4.85-.55,8.72,8.72,0,0,0,0,1.92,35.66,35.66,0,0,0,1.35,4.67,31,31,0,0,0,16.11,17.37c7.18,3.36,14.81,4.64,22.59,5.35a2.75,2.75,0,0,0,2.75-1c-.22-.38-.36-1-.74-1.25a14.4,14.4,0,0,0-3.27-2,43.83,43.83,0,0,0-5.31-1.45c-4.42-1-8.86-2-13.25-3.11a20.27,20.27,0,0,1-4.78-2c-2.9-1.64-4.27-4.12-4.56-7.78a4.91,4.91,0,0,1,1.21.22,144.43,144.43,0,0,0,24.93,8.14,16.69,16.69,0,0,1,7.88,4.25,31.26,31.26,0,0,0,6.88,4.83,71.84,71.84,0,0,0,14.68,6c1.87.54,3.73,1.1,5.56,1.74,4.65,1.64,8.41,4.3,10.67,8.88a14.7,14.7,0,0,0,6.25,6.43,16.93,16.93,0,0,0,3.63,1.32,1.74,1.74,0,0,0,2-1.2,4.39,4.39,0,0,0,.25-1.6,26.62,26.62,0,0,0-.54-4.48,9.66,9.66,0,0,1,.37-6,44.9,44.9,0,0,1,4.06-8.82,3.25,3.25,0,0,0,.43-3.35c-1-2.16-1.93-4.34-3.06-6.42a9.43,9.43,0,0,0-3.6-3.8l-2.45.65A38.9,38.9,0,0,1,937,416.34a61.48,61.48,0,0,1-22.45-5.89c-5.84-2.76-11.08-6.3-15.08-11.49-.65-.86-1.38-1.67-2.09-2.48A39.85,39.85,0,0,1,888,375.81c-.26-1.69-.59-3.38-.9-5.12a5.53,5.53,0,0,0-5.48,1.33,9.33,9.33,0,0,1-6.5,2.5c-1.62,0-3.24-.09-4.86-.13-2,0-3.9-.2-5.83-.07A25.86,25.86,0,0,0,853,378.14Zm115.09,40c-.86-1.68-1.64-3.34-2.52-4.94s-1.37-3.62-2.75-5.2c-1.91.48-3.5,1.16-4,3.32.68,1.15,1.36,2.26,2,3.38s1.34,2.47,2,3.69.84,2.44,1.94,3.49Z" transform="translate(-587.73 -75.57)"/><path class="cls-1" d="M887.59,485.9c2.16.6,4-1.11,6.13-.2-.25.45-.37,1-.72,1.26a30.72,30.72,0,0,1-2.84,1.51,2.43,2.43,0,0,0-.09,2.47,10.78,10.78,0,0,1,.45,4.48c-.18,3.18-1.74,5.21-5,6.18a16,16,0,0,1-.48-1.86c-.15-1.18-.18-2.38-.36-3.55-.34-2.17-1-4.27-2.73-5.73-2.21-1.84-2-4.13-1.36-6.51a20.35,20.35,0,0,1,1.25-2.72c-.87-2.87-2.33-5.25-5.48-6.23a3.89,3.89,0,0,1-2.59-3.07c-.09-.32-.11-.64-.18-1-.69-3-.69-3-3.75-3.3a6.33,6.33,0,0,1-5.13-8.65,10.06,10.06,0,0,1,3.48-4.19,12.26,12.26,0,0,1,6.23-2.54c4.42-.36,8.84-.81,13.27-.8,8.46,0,16.77,1.54,25,3.35.41.09.81.25,1.19.37-.15,1.44-.15,1.44-1.54,2.67-10.39-1.3-20.87-1-31.35-.89a11.81,11.81,0,0,0-5.64,1.28c-1.23.67-1.3,1.69-.23,2.57a6.53,6.53,0,0,0,4.18,1.5c2.05,0,4.11.06,6.15.29,7.78.84,14.46,4.22,20.39,9.18,2.27,1.9,2.23,3.12-.2,4.86a31.47,31.47,0,0,1-5.39,2.92c-2.06.93-4.27,1.54-6.34,2.46-1.87.83-3.65,1.87-5.44,2.87C888.16,485.1,888,485.49,887.59,485.9ZM879.34,469c5,1,12,1.53,14.27,1.09,0-.73-.61-.8-1.09-1a34.63,34.63,0,0,0-10.47-1.9,4.87,4.87,0,0,0-1.89.3A1.11,1.11,0,0,0,879.34,469Zm12.8,6.44a18.66,18.66,0,0,0-2.4.16,1.51,1.51,0,0,0-1,.65,3,3,0,0,0,.25,3,1.91,1.91,0,0,0,2,.52,17.84,17.84,0,0,0,3.09-.74,3.79,3.79,0,0,0,1.47-1.15,1.24,1.24,0,0,0-.76-2.16C893.88,475.53,892.92,475.47,892.14,475.39Zm-8.34.46c-.52,1.51-.52,1.51.8,2.26C884.33,477.34,884.12,476.74,883.8,475.85Z" transform="translate(-587.73 -75.57)"/><path class="cls-1" d="M1085,493.61a8.14,8.14,0,0,1,.57,4.43,24.55,24.55,0,0,1-1.67,7.24c-1.17,2.79-2.4,5.56-3.79,8.24a19.85,19.85,0,0,1-7.23,7.74c-1.46.93-2.91,1.89-4.45,2.67a14.71,14.71,0,0,1-3.63,1.3,2.86,2.86,0,0,1-3.48-1.68c-.83-1.9-.55-3.64.78-4.75a5.88,5.88,0,0,1,3.3-1.2,19.68,19.68,0,0,0,3.52-.53,13.54,13.54,0,0,0,5.5-3.32,24.14,24.14,0,0,0,5.7-7.83c1.41-3.15,2.6-6.4,3.87-9.61C1084.3,495.52,1084.58,494.72,1085,493.61Z" transform="translate(-587.73 -75.57)"/><path class="cls-1" d="M1079.06,488.72c-.18,1.71-.25,3.44-.57,5.13a18.15,18.15,0,0,1-4.19,8.62,27.3,27.3,0,0,1-10.5,7.89,17.25,17.25,0,0,1-6.3,1.29c-1,0-2,0-2.53-1.06-.38-.76.69-2,2.13-2.43.82-.25,1.69-.35,2.52-.58a22.31,22.31,0,0,0,12.4-8.31c3.54-4.81,4.19-10.29,2.42-16-.31-1-.76-2-1-3.05a1.52,1.52,0,0,1,1.71-2c1.57.09,2.07.45,2.58,1.95A29.81,29.81,0,0,1,1079.06,488.72Z" transform="translate(-587.73 -75.57)"/><path class="cls-1" d="M1045.13,642a6.52,6.52,0,0,1-.41-1.87,5.39,5.39,0,0,1,5.5-4.82,3.94,3.94,0,0,1,1,.08c2.33.58,4-.44,5.19-2.3.42-.63.83-1.26,1.23-1.9a5.55,5.55,0,0,1,6.67-2.44,1.44,1.44,0,0,1,1,1.46c0,2.75-1.39,5-4.32,5s-4.92,1-5.89,3.9a4,4,0,0,1-3.14,2.55A22.48,22.48,0,0,1,1045.13,642Z" transform="translate(-587.73 -75.57)"/><path class="cls-1" d="M1019.33,720.37a1.34,1.34,0,0,1-1.39-1.93,7.21,7.21,0,0,1,1.08-2,35.88,35.88,0,0,1,10.52-8.94,5,5,0,0,1,.88-.4,1.59,1.59,0,0,1,2.24,1.52,4.17,4.17,0,0,1-.25,1.57A15.83,15.83,0,0,1,1020,720.36,3.42,3.42,0,0,1,1019.33,720.37Z" transform="translate(-587.73 -75.57)"/><path class="cls-1" d="M1033.49,672.44c-1.31.06-1.85-.63-1.65-1.65a4.55,4.55,0,0,1,1.35-2.53c1.35-1.25,2.64-2.57,4-3.74a14,14,0,0,1,6.52-2.72,1.77,1.77,0,0,1,.32,0c1.19.07,2.42.07,3.13,1.29s.11,2.15-.52,3a6.78,6.78,0,0,1-2.31,2.19c-3.25,1.45-6.59,2.7-9.91,4A4.24,4.24,0,0,1,1033.49,672.44Z" transform="translate(-587.73 -75.57)"/><path class="cls-1" d="M1012.57,686.75c-.91,1.88-1.61,3.21-2.21,4.59a10.92,10.92,0,0,1-5.82,5.79,57.15,57.15,0,0,1-6.08,2.18,1.87,1.87,0,0,1-1.42-.39,1.06,1.06,0,0,1-.12-1.47c2.25-3.32,4.71-6.44,8.19-8.59a7.42,7.42,0,0,1,2.07-.88C1008.83,687.55,1010.5,687.21,1012.57,686.75Z" transform="translate(-587.73 -75.57)"/><path class="cls-1" d="M955.48,746.5c.43-4.57,1.66-8.33,5.36-10.87,1-.68,1.92-1.41,2.94-2a9.32,9.32,0,0,1,2.37-1,1.81,1.81,0,0,1,2.42,2.09c-.38,2.68-1.48,5.12-4.05,6.24a24.54,24.54,0,0,0-5.64,3.7,21,21,0,0,1-2.1,1.5A5.83,5.83,0,0,1,955.48,746.5Z" transform="translate(-587.73 -75.57)"/><path class="cls-1" d="M1033.34,696.06a10.8,10.8,0,0,1-3.81,6.26,27,27,0,0,1-8.16,3.74,1.23,1.23,0,0,1-1.56-1.46,3.87,3.87,0,0,1,.54-1.49,31.93,31.93,0,0,1,3.18-4,40.15,40.15,0,0,1,4.72-3.89,11.43,11.43,0,0,1,2.86-1.43C1032.49,693.26,1033.41,694,1033.34,696.06Z" transform="translate(-587.73 -75.57)"/><path class="cls-1" d="M1014.13,685.06a9.51,9.51,0,0,1,.83-1.9c1.57-2.19,3.14-4.38,4.84-6.46a12.26,12.26,0,0,1,4.94-3.55,8.11,8.11,0,0,1,2.79-.6,1.8,1.8,0,0,1,1.87,2.61,5.84,5.84,0,0,1-1.33,2.14,27.79,27.79,0,0,1-8.67,6.09c-1.56.72-3.19,1.27-4.79,1.89C1014.54,685.31,1014.43,685.21,1014.13,685.06Z" transform="translate(-587.73 -75.57)"/><path class="cls-1" d="M1036.73,625.27c1.11,0,1.54,0,2,0,1.68.16,2.22,1.26,1.32,2.71a7.53,7.53,0,0,1-3.81,3.39c-2.65.91-5.37,1.65-8.08,2.37a2.48,2.48,0,0,1-1.53-.29,1.67,1.67,0,0,1-.79-2.45c1.66-2.5,3.67-4.58,6.77-5.15C1034.18,625.57,1035.79,625.4,1036.73,625.27Z" transform="translate(-587.73 -75.57)"/><path class="cls-1" d="M1013.42,646.07c-.35-1.31.4-2.14,1.13-2.93a15.94,15.94,0,0,1,6.12-4.15,31.82,31.82,0,0,1,5.63-1.43,2,2,0,0,1,2.46,1.11,2.59,2.59,0,0,1-.76,2.65,2.48,2.48,0,0,1-.49.43c-3.4,2.11-6.82,4.19-10.82,5A3.25,3.25,0,0,1,1013.42,646.07Z" transform="translate(-587.73 -75.57)"/><path class="cls-1" d="M946.35,724.55a6,6,0,0,1,.55,4,3.85,3.85,0,0,1-1.17,2.21c-3.11,2.28-6.06,4.85-9.78,6.16-.09,0-.21,0-.44-.07-.25-4.29,1-7.79,5-10C942.31,725.92,944,724.71,946.35,724.55Z" transform="translate(-587.73 -75.57)"/><path class="cls-1" d="M1038.2,680.69a5.66,5.66,0,0,1-2.43,4.7,25.7,25.7,0,0,1-8.25,3.58,1.82,1.82,0,0,1-2-.71,1.74,1.74,0,0,1,0-2.12c2.48-3.68,5.61-6.53,10.1-7.48A2,2,0,0,1,1038.2,680.69Z" transform="translate(-587.73 -75.57)"/><path class="cls-1" d="M979.58,715.23c.35-2.51,1.58-4.06,2.52-5.7a21.43,21.43,0,0,1,8.35-8,9.66,9.66,0,0,1,1.47-.65,1.4,1.4,0,0,1,1.9,1.17,3.36,3.36,0,0,1-.65,3.06,27.07,27.07,0,0,1-3.34,3.51A75.75,75.75,0,0,1,979.58,715.23Z" transform="translate(-587.73 -75.57)"/><path class="cls-1" d="M977.47,654.81c-.36,2.78-1.3,5.11-3.29,6.69-2.87,2.27-5.95,4.27-8.95,6.37-.15.11-.41.07-.62.1a10.27,10.27,0,0,1,1.75-6.25,24.8,24.8,0,0,1,6.85-6.34A4.37,4.37,0,0,1,977.47,654.81Z" transform="translate(-587.73 -75.57)"/><path class="cls-1" d="M955.39,686.29A1.22,1.22,0,0,1,956,688a10.11,10.11,0,0,1-4.17,5.25c-3.28,1.87-6.73,3.43-10.13,5.08a.85.85,0,0,1-1.15-1,6.77,6.77,0,0,1,1.16-2.27c1.61-1.74,3.31-3.4,5.05-5a9.61,9.61,0,0,1,5.17-2.5A17.86,17.86,0,0,0,955.39,686.29Z" transform="translate(-587.73 -75.57)"/><path class="cls-1" d="M972.58,730.7a11.09,11.09,0,0,1,.19-1.58,12.8,12.8,0,0,1,6.93-8.1,32.33,32.33,0,0,1,3.31-1.28c.7-.25,1.47-.67,2.13-.06a2,2,0,0,1,.23,2.41c-.9,2.12-2,4.11-4.16,5.2-2.39,1.23-4.87,2.29-7.33,3.39C973.62,730.8,973.27,730.7,972.58,730.7Z" transform="translate(-587.73 -75.57)"/><path class="cls-1" d="M1044.17,632c.44,4.27-1.65,7-5.74,7.27a48.24,48.24,0,0,1-5.51,0,1.38,1.38,0,0,1-1.15-1.9,6.61,6.61,0,0,1,.56-1.17A10.43,10.43,0,0,1,1044.17,632Z" transform="translate(-587.73 -75.57)"/><path class="cls-1" d="M1028.6,648.07a4,4,0,0,1-.25-1c.18-2.66,3.39-5.75,6-5.78,1.72,0,3.45,0,5.17.06a1.54,1.54,0,0,1,1.5,1.41,3.64,3.64,0,0,1-.64,2.77c-1.25,1.72-2.76,3-5.07,3S1030.8,648.71,1028.6,648.07Z" transform="translate(-587.73 -75.57)"/><path class="cls-1" d="M1045.71,626.56c.25-.75.42-1.38.67-2,1.39-3.29,2.62-4.08,6.17-4.08,1.29,0,2.59-.12,3.88-.11a15.1,15.1,0,0,1,1.93.29,10.4,10.4,0,0,1-2.29,6,2.27,2.27,0,0,1-1.33.83c-2.79.41-5.58.63-8.3-.42A4.54,4.54,0,0,1,1045.71,626.56Z" transform="translate(-587.73 -75.57)"/><path class="cls-1" d="M1005.54,640.42a6,6,0,0,1,3.12-5.53,33.85,33.85,0,0,1,9.26-3.72,3.5,3.5,0,0,1,1-.06c.73,0,1.49.92,1.2,1.57a8.2,8.2,0,0,1-1.47,2.45,13.38,13.38,0,0,1-2.81,2.14,27.45,27.45,0,0,1-9.06,3.31A4.43,4.43,0,0,1,1005.54,640.42Z" transform="translate(-587.73 -75.57)"/><path class="cls-1" d="M1006,659.33a1.82,1.82,0,0,1-1-2.27,6.09,6.09,0,0,1,1.81-3c2.58-2.71,5.93-3.86,9.46-4.6a3.12,3.12,0,0,1,1.27.15,1.23,1.23,0,0,1,.89,1.49,4.11,4.11,0,0,1-.47,1.19,9.9,9.9,0,0,1-4.25,3.88C1011.08,657.27,1008.48,658.3,1006,659.33Z" transform="translate(-587.73 -75.57)"/><path class="cls-1" d="M1038.83,691.69c1-5.08,5.14-8.88,9.81-9.13a5.09,5.09,0,0,1,1.26.2,1.39,1.39,0,0,1,1.08,1.42,2.78,2.78,0,0,1-.84,2.36c-1.61,1.59-3.24,3.17-4.91,4.71a2.39,2.39,0,0,1-1.4.69C1042.24,691.93,1040.61,692.28,1038.83,691.69Z" transform="translate(-587.73 -75.57)"/><path class="cls-1" d="M1006.81,645a3.19,3.19,0,0,1,.08,3.2,6.64,6.64,0,0,1-3.26,3.44c-3.32,1.52-6.65,3-9.91,4.46a1.35,1.35,0,0,1-.32-2.08,25.89,25.89,0,0,1,2.78-3.55,21.7,21.7,0,0,1,8.78-5.24A9.27,9.27,0,0,1,1006.81,645Z" transform="translate(-587.73 -75.57)"/><path class="cls-1" d="M999,744.86a7.94,7.94,0,0,1,0-1.79c1.53-5.46,4.36-7.72,9.77-8.21a1.41,1.41,0,0,1,1.59,1.83,9.73,9.73,0,0,1-2.38,4.5C1006.23,743.15,1002.31,744.78,999,744.86Z" transform="translate(-587.73 -75.57)"/><path class="cls-1" d="M1043.12,680a8.85,8.85,0,0,1-1.52-.45,1.33,1.33,0,0,1-.76-1.61,9,9,0,0,1,7.63-7,4.71,4.71,0,0,1,1.29-.09,2.61,2.61,0,0,1,2.35,1.46,2.42,2.42,0,0,1-.61,2.94,6.24,6.24,0,0,0-1.33,1.39C1048.58,679.42,1045.81,679.56,1043.12,680Z" transform="translate(-587.73 -75.57)"/><path class="cls-1" d="M1021.37,690.77a8.36,8.36,0,0,1-2.4,6.75,12.53,12.53,0,0,1-5.75,3.49l-4,1.08c-.58-.45-.37-1-.1-1.44,1.15-1.94,2.28-3.9,3.55-5.77a3.75,3.75,0,0,1,1.8-1.29,28,28,0,0,0,5.84-2.72C1020.51,690.72,1020.89,690.8,1021.37,690.77Z" transform="translate(-587.73 -75.57)"/><path class="cls-1" d="M943.05,743c.29-1.15.35-1.56.49-1.94a37.08,37.08,0,0,1,4.07-7.34c1.44-2.16,3.63-3.35,5.87-4.43a1.59,1.59,0,0,1,2.25,1.78,6.22,6.22,0,0,1-.67,1.8,15.56,15.56,0,0,1-3.9,4.71,38.69,38.69,0,0,1-3.09,2.35C946.64,740.84,945.15,741.69,943.05,743Z" transform="translate(-587.73 -75.57)"/><path class="cls-1" d="M956.53,707.92a7.67,7.67,0,0,1-1.55,6.79,14.5,14.5,0,0,1-8.76,5.42,10.13,10.13,0,0,1,2.32-7.24C950.58,710.32,953.06,708.37,956.53,707.92Z" transform="translate(-587.73 -75.57)"/><path class="cls-1" d="M940.16,687.21c.27.93.6,1.45.52,1.9a8.68,8.68,0,0,1-.89,3.06,14.58,14.58,0,0,1-10.22,7.17,4.32,4.32,0,0,1-1,0,1.25,1.25,0,0,1-1-1.65,4.29,4.29,0,0,1,.68-1.08,29.63,29.63,0,0,1,2.49-2.52c2.23-1.87,4.5-3.67,6.79-5.45A23.83,23.83,0,0,1,940.16,687.21Z" transform="translate(-587.73 -75.57)"/><path class="cls-1" d="M961.94,681.7a14.64,14.64,0,0,1,4-7.89,66.77,66.77,0,0,1,6-4.89,1.87,1.87,0,0,1,1.46-.31c.69.22.81.95.77,1.62a7.83,7.83,0,0,1-1.61,4.46,17.87,17.87,0,0,1-6.21,5C965.06,680.31,963.79,680.85,961.94,681.7Z" transform="translate(-587.73 -75.57)"/><path class="cls-1" d="M1011.18,662.1a4,4,0,0,1-.66,5.2,17.85,17.85,0,0,1-3.56,2.78c-2.2,1.36-4.5,2.56-6.77,3.82a4.79,4.79,0,0,1-.88.3c-.76-2.75-.4-4.49,1.58-6a56.59,56.59,0,0,1,5.66-3.75C1007.93,663.59,1009.43,663,1011.18,662.1Z" transform="translate(-587.73 -75.57)"/><path class="cls-1" d="M1023.14,725.27a1.93,1.93,0,0,1,.29,2.52,24.4,24.4,0,0,1-4.79,6.44c-1.53,1.48-3.57,1.36-5.45,1.66-.55.09-.93-.47-1-1a2.21,2.21,0,0,1,.12-1,13.25,13.25,0,0,1,6.63-7.57A16.58,16.58,0,0,1,1023.14,725.27Z" transform="translate(-587.73 -75.57)"/><path class="cls-1" d="M1017.33,662.73a7.84,7.84,0,0,1,2-4.16,27.53,27.53,0,0,1,8.48-6.92c1.33-.75,2.29-.14,2.38,1.41a5.31,5.31,0,0,1-2.22,4.78,21,21,0,0,1-2.75,1.7c-1.9,1-3.82,2-5.77,2.92A7.52,7.52,0,0,1,1017.33,662.73Z" transform="translate(-587.73 -75.57)"/><path class="cls-1" d="M955.91,721.06a8.19,8.19,0,0,1,.6-1.83,45.63,45.63,0,0,1,3.33-4.36c1.66-1.84,3.47-3.55,5.25-5.28a5.11,5.11,0,0,1,1.55-1.12,1.72,1.72,0,0,1,2.46,1.91,8.51,8.51,0,0,1-4.22,6.21c-1.92,1.18-4,2.14-6,3.17C958,720.18,957.17,720.51,955.91,721.06Z" transform="translate(-587.73 -75.57)"/><path class="cls-1" d="M973.8,684.78a5.21,5.21,0,0,1,.36-3.9c.84-1.5,1.68-3,2.61-4.46,1.38-2.17,3.59-3.36,5.74-4.58a1.34,1.34,0,0,1,1.79.9,3.88,3.88,0,0,1-.23,3.42,5.9,5.9,0,0,1-1.18,1.53q-3.37,3-6.84,5.9A13.67,13.67,0,0,1,973.8,684.78Z" transform="translate(-587.73 -75.57)"/><path class="cls-1" d="M911.52,726.88c-1-2.17-.46-4.13.31-6.06a17.81,17.81,0,0,1,4.58-6.22,4.76,4.76,0,0,1,4.3-1.3c.5,1.62-.41,2.91-.86,4.29C918.46,721.89,915,724.34,911.52,726.88Z" transform="translate(-587.73 -75.57)"/><path class="cls-1" d="M946.23,684.84c1-2.57,1.8-4.55,2.58-6.54a8.33,8.33,0,0,1,2.68-3.57c.93-.73,1.87-1.46,2.83-2.15a5.75,5.75,0,0,1,1.41-.74,1.48,1.48,0,0,1,2,1.66,11,11,0,0,1-.82,2.43A15.4,15.4,0,0,1,951,682.6a31.14,31.14,0,0,1-3.13,1.65C947.54,684.43,947.14,684.52,946.23,684.84Z" transform="translate(-587.73 -75.57)"/><path class="cls-1" d="M963.52,704.71c0-.57-.07-.92.06-1.14a25,25,0,0,1,10.14-9.76,7.64,7.64,0,0,1,1.18-.51c1.27-.41,2.06.31,2,1.69a4.15,4.15,0,0,1-1.37,2.86c-2.71,2.47-5.34,5.08-9.14,5.88A22.88,22.88,0,0,0,963.52,704.71Z" transform="translate(-587.73 -75.57)"/><path class="cls-1" d="M1000.68,734.69c-.11-.33-.27-.56-.22-.72,1.61-4.87,4.33-8.86,9-11.25a12.39,12.39,0,0,1,1.17-.54,1.48,1.48,0,0,1,1.93,1.17,3.9,3.9,0,0,1-.74,3.35,8.86,8.86,0,0,1-1.62,1.56c-2.79,2-5.62,4-8.45,5.94A6.11,6.11,0,0,1,1000.68,734.69Z" transform="translate(-587.73 -75.57)"/><path class="cls-1" d="M1004.18,718.66a7,7,0,0,1,1.73-5.4,15.75,15.75,0,0,1,9.72-6.21,7.1,7.1,0,0,1,.09,1.82,10.36,10.36,0,0,1-2.41,4.51A16.79,16.79,0,0,1,1004.18,718.66Z" transform="translate(-587.73 -75.57)"/><path class="cls-1" d="M982.25,689.62a2.39,2.39,0,0,1-.41-3,9.79,9.79,0,0,1,2.85-3.86l5.81-4.6a1.69,1.69,0,0,1,1.8-.33,1.57,1.57,0,0,1,.89,1.58,5.87,5.87,0,0,1-2.23,4.82,45.94,45.94,0,0,1-4.71,3.38C985,688.37,983.61,688.94,982.25,689.62Z" transform="translate(-587.73 -75.57)"/><path class="cls-1" d="M984.19,744.32c-.09-.19-.28-.39-.25-.56a12,12,0,0,1,6.13-9c2-1.13,3.59-.36,4.09,1.89a4.13,4.13,0,0,1-2.2,4.89c-2.34,1.09-4.78,2-7.18,2.91C984.62,744.51,984.39,744.36,984.19,744.32Z" transform="translate(-587.73 -75.57)"/><path class="cls-1" d="M954.12,699.88c.44-1.46.76-2.48,1.07-3.51a5,5,0,0,1,2.33-3c1.21-.71,2.36-1.53,3.61-2.17a16.31,16.31,0,0,0,4.1-2.56,3.7,3.7,0,0,1,1.11-.64,1,1,0,0,1,1.35,1,7,7,0,0,1-.58,2.14,9.6,9.6,0,0,1-3.49,3.77c-2.68,1.63-5.39,3.21-8.1,4.78A5.67,5.67,0,0,1,954.12,699.88Z" transform="translate(-587.73 -75.57)"/><path class="cls-1" d="M986.58,732.23c.88-2,1.55-3.51,2.13-5,1.15-3,3.42-4.9,5.92-6.63a4.93,4.93,0,0,1,1.46-.66c1.53-.41,2.63.6,2.24,2.12a10.23,10.23,0,0,1-2.89,5,7,7,0,0,1-1,.81c-2.06,1.38-4.11,2.75-6.19,4.08A6.52,6.52,0,0,1,986.58,732.23Z" transform="translate(-587.73 -75.57)"/><path class="cls-1" d="M992.89,691a4.37,4.37,0,0,1-.37-1.29,5.26,5.26,0,0,1,1.84-4c1.88-1.61,3.8-3.19,5.79-4.66a4.31,4.31,0,0,1,3.72-1.11,27.94,27.94,0,0,1-1.28,5,1.87,1.87,0,0,1-.51.81c-2.51,2.41-5.19,4.56-8.65,5.44C993.34,691.18,993.23,691.1,992.89,691Z" transform="translate(-587.73 -75.57)"/><path class="cls-1" d="M991.05,717.41a9.16,9.16,0,0,1,2.79-6.22c1.85-1.8,3.82-3.48,5.75-5.2a6.3,6.3,0,0,1,.8-.55,1.46,1.46,0,0,1,2.38,1.1c.41,2.2,0,4-2.06,5.3A80,80,0,0,1,991.05,717.41Z" transform="translate(-587.73 -75.57)"/><path class="cls-1" d="M949.52,702.38a9.88,9.88,0,0,1-.3,2.34,16.61,16.61,0,0,1-6.78,7.55,3.46,3.46,0,0,1-4,0,1.62,1.62,0,0,1-.47-2.5c3.16-2.69,6-5.91,10.06-7.32A6,6,0,0,1,949.52,702.38Z" transform="translate(-587.73 -75.57)"/><path class="cls-1" d="M1034.89,707.23c1.81-4.52,4.31-7.84,8.54-9.61a2,2,0,0,1,2.83,2,6.17,6.17,0,0,1-4.49,6c-1.14.32-2.26.72-3.41,1S1036.3,707,1034.89,707.23Z" transform="translate(-587.73 -75.57)"/><path class="cls-1" d="M911.13,713.06a15.25,15.25,0,0,1,4.62-7.58c1.23-1,2.37-2.2,3.6-3.24a6.8,6.8,0,0,1,1.91-1.12,1.09,1.09,0,0,1,1,.53,2.89,2.89,0,0,1,0,1.57c-1.27,4.7-4.39,7.81-8.63,9.9A2.09,2.09,0,0,1,911.13,713.06Z" transform="translate(-587.73 -75.57)"/><path class="cls-1" d="M925.93,709.83c.22-5.58,3.65-8.9,9.76-9.38a5.09,5.09,0,0,1-1.47,5.84,13.94,13.94,0,0,1-7.72,3.76C926.32,710.07,926.12,709.9,925.93,709.83Z" transform="translate(-587.73 -75.57)"/><path class="cls-1" d="M976.29,706.07a6.53,6.53,0,0,1,1.56-4.87,32.44,32.44,0,0,1,7-6.2,2.43,2.43,0,0,1,.59-.27,1.53,1.53,0,0,1,2.11,1.31,3.29,3.29,0,0,1-.86,2.7c-2.1,2-4.21,4-6.43,5.9A5.67,5.67,0,0,1,976.29,706.07Z" transform="translate(-587.73 -75.57)"/><path class="cls-1" d="M1043.13,650.68c-.18-2.71,1.35-4.22,3-5.57a8.42,8.42,0,0,1,7.4-1.5c-.42,2.59-1,4.95-3.2,6.47A7.08,7.08,0,0,1,1043.13,650.68Z" transform="translate(-587.73 -75.57)"/><path class="cls-1" d="M934.25,721.78a5.87,5.87,0,0,1-.18,5.16,14.92,14.92,0,0,1-8.77,7.83c-.09-.59-.29-1-.18-1.38a13.14,13.14,0,0,1,1.49-3.87c1.81-2.4,3.88-4.61,5.91-6.83A6.18,6.18,0,0,1,934.25,721.78Z" transform="translate(-587.73 -75.57)"/><path class="cls-1" d="M901.58,727.44a13.32,13.32,0,0,1,.2-2.45c.6-2.06,1.3-4.08,2-6.12a10.7,10.7,0,0,1,3-4.88,1.65,1.65,0,0,1,2.83.69,4.77,4.77,0,0,1,.05,3.76,7.1,7.1,0,0,1-1.13,1.94c-1.82,2.11-3.69,4.18-5.57,6.24A7.25,7.25,0,0,1,901.58,727.44Z" transform="translate(-587.73 -75.57)"/><path class="cls-1" d="M998.06,641c.11,1.87-1.06,3.15-2.12,4.49-2.39,3-5.77,4.3-9.24,5.36-.59-.66-.16-1.15,0-1.6a15.76,15.76,0,0,1,7.62-8C995.8,640.42,996.13,640.44,998.06,641Z" transform="translate(-587.73 -75.57)"/><path class="cls-1" d="M1011,676.27c-.18-.28-.47-.53-.48-.78a2.47,2.47,0,0,1,.28-1.23,20.92,20.92,0,0,1,8.46-8.27c.86-.45,1.86-1,2.69-.25s.43,1.86-.12,2.68a9.94,9.94,0,0,1-2.21,2.74c-2.47,1.74-5.08,3.28-7.65,4.87A3.13,3.13,0,0,1,1011,676.27Z" transform="translate(-587.73 -75.57)"/><path class="cls-1" d="M962.45,728.59c-.16-.36-.5-.75-.43-1.05a8.32,8.32,0,0,1,2.19-4.57,71.49,71.49,0,0,1,5.8-4.61,4.81,4.81,0,0,1,2.1-.74,1.58,1.58,0,0,1,1.72,2.29,4.79,4.79,0,0,1-2.54,2.79,16.22,16.22,0,0,0-5.95,4.3,9.38,9.38,0,0,1-1.78,1.35A3.79,3.79,0,0,1,962.45,728.59Z" transform="translate(-587.73 -75.57)"/><path class="cls-1" d="M970.19,744.08a6.4,6.4,0,0,1,1.25-4.87c.81-1,1.61-2,2.34-3.05a9.47,9.47,0,0,1,3.55-3.22,1.49,1.49,0,0,1,2.22,1.11,5.42,5.42,0,0,1-1.94,5.5C975.39,741.24,972.86,742.4,970.19,744.08Z" transform="translate(-587.73 -75.57)"/><path class="cls-1" d="M1031.08,662.3a8.67,8.67,0,0,1,2.07-4.1,17.38,17.38,0,0,1,6-4.38,2,2,0,0,1,2.15.08c.58.43.69,1.32.29,2.4-1,2.83-2.7,4.86-6,5.13A41.45,41.45,0,0,0,1031.08,662.3Z" transform="translate(-587.73 -75.57)"/><path class="cls-1" d="M978.28,666.33a5.22,5.22,0,0,1,2.31-5.85c1.61-1.08,3.27-2.1,4.93-3.11a1.38,1.38,0,0,1,2.06.83,5.09,5.09,0,0,1-1.76,5.2,8.46,8.46,0,0,1-1.72.88C982.19,665,980.27,665.63,978.28,666.33Z" transform="translate(-587.73 -75.57)"/><path class="cls-1" d="M1060,659.3c.36.07.68.11,1,.2a1,1,0,0,1,.83,1.18,8.1,8.1,0,0,1-4.64,6.16,3.13,3.13,0,0,1-3.63-1.34,2.46,2.46,0,0,1-.21-1.52,5,5,0,0,1,4.47-4.4C1058.49,659.43,1059.25,659.38,1060,659.3Z" transform="translate(-587.73 -75.57)"/><path class="cls-1" d="M922.44,725.38a10.23,10.23,0,0,1,2.63-6.75,19,19,0,0,1,5.29-3.69,1.29,1.29,0,0,1,1.9,1.36,3.64,3.64,0,0,1-.46,1.53,15.83,15.83,0,0,1-2.31,3.1C927.52,722.76,925,723.78,922.44,725.38Z" transform="translate(-587.73 -75.57)"/><path class="cls-1" d="M1001.05,658.19c1.08,3.48,0,5.78-3.12,6.57a12.09,12.09,0,0,0-2.49.71,15.13,15.13,0,0,0-2.27,1.82c0-1.5,0-2.55,0-3.6a2.92,2.92,0,0,1,.53-1.49C995.58,659.79,997.88,658.17,1001.05,658.19Z" transform="translate(-587.73 -75.57)"/><path class="cls-1" d="M1053.1,659a9.62,9.62,0,0,1-1.09-.26,1.46,1.46,0,0,1-.88-2.09,44.18,44.18,0,0,0,2.59-4.46c.76-1.36,3.79-1.72,5-.68a1.61,1.61,0,0,1,.4,1.41,28.1,28.1,0,0,1-1.74,3.83C1056.49,658.37,1055,658.9,1053.1,659Z" transform="translate(-587.73 -75.57)"/><path class="cls-1" d="M950.54,435c0,1.34-.8,2-1.6,1.69a4.45,4.45,0,0,1-1.65-.91c-.94-.89-1.8-1.87-2.65-2.85a22,22,0,0,0-12.57-7.48,45,45,0,0,1-11.87-4.23,24.77,24.77,0,0,1-3.56-2.24c-1.29-1-1.73-2.19-1.34-3s1.67-.76,3.22.12a54.83,54.83,0,0,0,11.07,4.57c2.06.63,4.12,1.35,6.23,1.78a19.34,19.34,0,0,1,11.32,7.06,29.1,29.1,0,0,1,2.38,3.08A14.56,14.56,0,0,1,950.54,435Z" transform="translate(-587.73 -75.57)"/></svg>