<svg id="Capa_1" data-name="Capa 1" xmlns="http://www.w3.org/2000/svg" viewBox="0 0 1052.46 1032.9"><defs><style>.cls-1,.cls-3{fill:none;stroke:#fff;stroke-miterlimit:10;}.cls-1{stroke-width:0.25px;}.cls-2{fill:#fff;}.cls-3{stroke-width:2px;}</style></defs><g id="FCEAC"><polygon class="cls-1" points="147.86 690.48 176.36 696.79 195.1 664.91 176.36 632.92 138.74 632.92 144.58 658.65 147.86 690.48"/><polygon class="cls-1" points="138.74 622.23 176.36 622.23 195.1 590.46 176.36 558.36 138.74 558.36 119.94 590.46 138.74 622.23"/><polygon class="cls-1" points="138.74 547.87 176.36 547.87 195.1 515.96 176.36 484.05 138.74 484.05 119.94 515.96 138.74 547.87"/><polygon class="cls-1" points="138.74 473.25 176.36 473.25 195.1 441.42 176.36 409.57 138.74 409.57 119.94 441.42 138.74 473.25"/><polygon class="cls-1" points="138.74 335.04 138.74 367.03 138.74 398.83 176.36 398.83 195.1 367.03 176.36 335.04 138.74 335.04"/><polygon class="cls-1" points="223.27 788.98 242.25 808.32 261.08 776.49 242.25 744.72 204.61 744.72 185.87 776.49 223.27 788.98"/><polygon class="cls-1" points="204.61 733.98 242.25 733.98 261.08 702.04 242.25 670.35 204.61 670.35 185.87 702.04 204.61 733.98"/><polygon class="cls-1" points="204.61 659.53 242.25 659.53 261.08 627.56 242.25 595.65 204.61 595.65 185.87 627.56 204.61 659.53"/><polygon class="cls-1" points="204.61 585 242.25 585 261.08 553.17 242.25 521.23 204.61 521.23 185.87 553.17 204.61 585"/><polygon class="cls-1" points="204.61 446.75 185.87 478.56 204.61 510.6 242.25 510.6 261.08 478.56 242.25 446.75 204.61 446.75"/><polygon class="cls-1" points="204.61 372.22 185.87 404.16 204.61 436.02 242.25 436.02 261.08 404.16 242.25 372.22 204.61 372.22"/><polygon class="cls-1" points="204.61 297.83 185.87 329.65 204.61 361.65 242.25 361.65 261.08 329.65 242.25 297.83 204.61 297.83"/><polygon class="cls-1" points="270.51 845.64 308.1 845.64 326.95 813.84 308.1 781.87 270.51 781.87 251.57 813.84 270.51 845.64"/><polygon class="cls-1" points="270.51 771.3 308.1 771.3 326.95 739.31 308.1 707.42 270.51 707.42 251.57 739.31 270.51 771.3"/><polygon class="cls-1" points="270.51 696.79 308.1 696.79 326.95 664.91 308.1 632.92 270.51 632.92 251.57 664.91 270.51 696.79"/><polygon class="cls-1" points="270.51 622.23 308.1 622.23 326.95 590.46 308.1 558.36 270.51 558.36 251.57 590.46 270.51 622.23"/><polygon class="cls-1" points="270.51 484.05 251.57 515.96 270.51 547.87 308.1 547.87 326.95 515.96 308.1 484.05 270.51 484.05"/><polygon class="cls-1" points="270.51 409.57 251.57 441.42 270.51 473.25 308.1 473.25 326.95 441.42 308.1 409.57 270.51 409.57"/><polygon class="cls-1" points="270.51 335.04 251.57 367.03 270.51 398.83 308.1 398.83 326.95 367.03 308.1 335.04 270.51 335.04"/><polygon class="cls-1" points="270.51 260.59 251.57 292.47 270.51 324.27 308.1 324.27 326.95 292.47 308.1 260.59 270.51 260.59"/><polygon class="cls-1" points="270.51 186.06 251.57 217.99 270.51 249.85 308.1 249.85 326.95 217.99 308.1 186.06 270.51 186.06"/><polygon class="cls-1" points="374.03 882.96 392.85 850.91 374.03 819.25 336.49 819.25 317.58 850.91 336.49 882.96 374.03 882.96"/><polygon class="cls-1" points="336.49 808.32 374.03 808.32 392.85 776.49 374.03 744.72 336.49 744.72 317.58 776.49 336.49 808.32"/><polygon class="cls-1" points="336.49 733.98 374.03 733.98 392.85 702.04 374.03 670.35 336.49 670.35 317.58 702.04 336.49 733.98"/><polygon class="cls-1" points="336.49 595.65 317.58 627.56 336.49 659.53 374.03 659.53 392.85 627.56 374.03 595.65 336.49 595.65"/><polygon class="cls-1" points="336.49 521.23 317.58 553.17 336.49 585 374.03 585 392.85 553.17 374.03 521.23 336.49 521.23"/><polygon class="cls-1" points="336.49 446.75 317.58 478.56 336.49 510.6 374.03 510.6 392.85 478.56 374.03 446.75 336.49 446.75"/><polygon class="cls-1" points="336.49 372.22 317.58 404.16 336.49 436.02 374.03 436.02 392.85 404.16 374.03 372.22 336.49 372.22"/><polygon class="cls-1" points="336.49 297.83 317.58 329.65 336.49 361.65 374.03 361.65 392.85 329.65 374.03 297.83 336.49 297.83"/><polygon class="cls-1" points="336.49 223.32 317.58 255.26 336.49 287.09 374.03 287.09 392.85 255.26 374.03 223.32 336.49 223.32"/><polygon class="cls-1" points="215.78 245.04 202.97 256.43 205.4 287.09 242.91 287.09 261.76 255.26 242.91 223.32 215.78 245.04"/><polygon class="cls-1" points="336.49 148.84 317.58 180.78 336.49 212.64 374.03 212.64 392.85 180.78 374.03 148.84 336.49 148.84"/><polygon class="cls-1" points="439.87 920.17 458.8 888.32 439.87 856.38 402.33 856.38 383.48 888.32 412.68 900.5 439.87 920.17"/><polygon class="cls-1" points="439.87 845.64 458.8 813.84 439.87 781.87 402.33 781.87 383.48 813.84 402.33 845.64 439.87 845.64"/><polygon class="cls-1" points="439.87 771.3 458.8 739.31 439.87 707.42 402.33 707.42 383.48 739.31 402.33 771.3 439.87 771.3"/><polyline class="cls-1" points="444.59 640.89 439.87 632.92 402.33 632.92 383.48 664.91 402.33 696.79 439.87 696.79 452.13 676.14"/><polyline class="cls-1" points="439.87 558.36 402.33 558.36 383.48 590.46 402.33 622.23 443.46 622.23"/><polygon class="cls-1" points="402.33 484.05 383.48 515.96 402.33 547.87 439.87 547.87 458.8 515.96 439.87 484.05 402.33 484.05"/><polygon class="cls-1" points="402.33 409.57 383.48 441.42 402.33 473.25 439.87 473.25 458.8 441.42 439.87 409.57 402.33 409.57"/><polygon class="cls-1" points="402.33 335.04 383.48 367.03 402.33 398.83 439.87 398.83 458.8 367.03 439.87 335.04 402.33 335.04"/><polygon class="cls-1" points="402.33 260.59 383.48 292.47 402.33 324.27 439.87 324.27 458.8 292.47 439.87 260.59 402.33 260.59"/><polygon class="cls-1" points="402.33 186.06 383.48 217.99 402.33 249.85 439.87 249.85 458.8 217.99 439.87 186.06 402.33 186.06"/><polygon class="cls-1" points="402.33 111.58 383.48 143.49 402.33 175.37 439.87 175.37 458.8 143.49 439.87 111.58 402.33 111.58"/><polyline class="cls-1" points="521.5 920.17 505.82 893.59 468.23 893.59 456.67 920.41"/><polygon class="cls-1" points="505.82 882.96 524.7 850.91 505.82 819.25 468.23 819.25 449.35 850.91 468.23 882.96 505.82 882.96"/><polyline class="cls-1" points="483.51 744.72 468.23 744.72 449.35 776.49 468.23 808.32 505.82 808.32 524.7 776.49"/><polyline class="cls-1" points="461.46 682.9 449.35 702.04 468.23 733.98 478.46 733.98"/><polygon class="cls-1" points="468.23 446.75 449.35 478.56 468.23 510.6 505.82 510.6 524.7 478.56 505.82 446.75 468.23 446.75"/><polygon class="cls-1" points="468.23 297.83 449.35 329.65 468.23 361.65 505.82 361.65 524.7 329.65 505.82 297.83 468.23 297.83"/><polygon class="cls-1" points="468.23 223.32 449.35 255.26 468.23 287.09 505.82 287.09 524.7 255.26 505.82 223.32 468.23 223.32"/><polygon class="cls-1" points="468.23 148.84 449.35 180.78 468.23 212.64 505.82 212.64 524.7 180.78 505.82 148.84 468.23 148.84"/><polygon class="cls-1" points="571.72 920.17 590.57 888.32 571.72 856.38 534.04 856.38 515.25 888.32 534.04 920.17 571.72 920.17"/><polygon class="cls-1" points="571.72 845.64 590.57 813.84 571.72 781.87 534.04 781.87 515.25 813.84 534.04 845.64 571.72 845.64"/><polyline class="cls-1" points="534.04 771.3 571.72 771.3 590.57 739.31 571.72 707.42 534.04 707.42"/><polyline class="cls-1" points="534.04 409.57 515.25 441.42 534.04 473.25 571.72 473.25 590.57 441.42 576.05 416.88"/><polygon class="cls-1" points="534.04 260.59 515.25 292.47 534.04 324.27 571.72 324.27 590.57 292.47 571.72 260.59 534.04 260.59"/><polygon class="cls-1" points="534.04 186.06 515.25 217.99 534.04 249.85 571.72 249.85 590.57 217.99 571.72 186.06 534.04 186.06"/><polygon class="cls-1" points="534.04 111.58 515.25 143.49 534.04 175.37 571.72 175.37 590.57 143.49 571.72 111.58 534.04 111.58"/><polyline class="cls-1" points="669.75 925.44 637.53 893.59 599.89 893.59 581.2 925.55 586.03 957.36"/><polygon class="cls-1" points="637.53 882.96 656.41 850.91 637.53 819.25 599.89 819.25 581.2 850.91 599.89 882.96 637.53 882.96"/><polygon class="cls-1" points="637.53 808.32 656.41 776.49 637.53 744.72 599.89 744.72 581.2 776.49 599.89 808.32 637.53 808.32"/><polygon class="cls-1" points="637.53 733.98 656.41 702.04 637.53 670.35 599.89 670.35 581.2 702.04 599.89 733.98 637.53 733.98"/><polygon class="cls-1" points="599.89 595.65 581.2 627.56 599.89 659.53 637.53 659.53 656.41 627.56 637.53 595.65 599.89 595.65"/><polyline class="cls-1" points="605.46 585 637.53 585 656.41 553.17 637.53 521.23 599.89 521.23"/><polygon class="cls-1" points="599.89 446.75 581.2 478.56 599.89 510.6 637.53 510.6 656.41 478.56 637.53 446.75 599.89 446.75"/><polygon class="cls-1" points="599.89 372.22 581.2 404.16 599.89 436.02 637.53 436.02 656.41 404.16 637.53 372.22 599.89 372.22"/><polygon class="cls-1" points="599.89 297.83 581.2 329.65 599.89 361.65 637.53 361.65 656.41 329.65 637.53 297.83 599.89 297.83"/><polygon class="cls-1" points="599.89 223.32 581.2 255.26 599.89 287.09 637.53 287.09 656.41 255.26 637.53 223.32 599.89 223.32"/><polygon class="cls-1" points="599.89 148.84 581.2 180.78 599.89 212.64 637.53 212.64 656.41 180.78 637.53 148.84 599.89 148.84"/><polygon class="cls-1" points="703.57 920.17 722.23 888.32 703.57 856.38 665.89 856.38 647.1 888.32 665.89 920.17 703.57 920.17"/><polygon class="cls-1" points="703.57 845.64 722.23 813.84 703.57 781.87 665.89 781.87 647.1 813.84 665.89 845.64 703.57 845.64"/><polygon class="cls-1" points="703.57 771.3 722.23 739.31 703.57 707.42 665.89 707.42 647.1 739.31 665.89 771.3 703.57 771.3"/><polygon class="cls-1" points="703.57 696.79 722.23 664.91 703.57 632.92 665.89 632.92 647.1 664.91 665.89 696.79 703.57 696.79"/><polygon class="cls-1" points="703.57 558.36 665.89 558.36 647.1 590.46 665.89 622.23 703.57 622.23 722.23 590.46 703.57 558.36"/><polygon class="cls-1" points="665.89 484.05 647.1 515.96 665.89 547.87 703.57 547.87 722.23 515.96 703.57 484.05 665.89 484.05"/><polygon class="cls-1" points="665.89 409.57 647.1 441.42 665.89 473.25 703.57 473.25 722.23 441.42 703.57 409.57 665.89 409.57"/><polygon class="cls-1" points="665.89 335.04 647.1 367.03 665.89 398.83 703.57 398.83 722.23 367.03 703.57 335.04 665.89 335.04"/><polygon class="cls-1" points="665.89 260.59 647.1 292.47 665.89 324.27 703.57 324.27 722.23 292.47 703.57 260.59 665.89 260.59"/><polygon class="cls-1" points="665.89 186.06 647.1 217.99 665.89 249.85 703.57 249.85 722.23 217.99 703.57 186.06 665.89 186.06"/><polygon class="cls-1" points="755.86 864.08 788.16 850.91 769.44 819.25 731.79 819.25 713 850.91 731.79 882.96 755.86 864.08"/><polygon class="cls-1" points="769.44 808.32 788.16 776.49 769.44 744.72 731.79 744.72 713 776.49 731.79 808.32 769.44 808.32"/><polygon class="cls-1" points="769.44 670.35 731.79 670.35 713 702.04 731.79 733.98 769.44 733.98 788.16 702.04 769.44 670.35"/><polygon class="cls-1" points="769.44 595.65 731.79 595.65 713 627.56 731.79 659.53 769.44 659.53 788.16 627.56 769.44 595.65"/><polygon class="cls-1" points="769.44 521.23 731.79 521.23 713 553.17 731.79 585 769.44 585 788.16 553.17 769.44 521.23"/><polygon class="cls-1" points="731.79 446.75 713 478.56 731.79 510.6 769.44 510.6 788.16 478.56 769.44 446.75 731.79 446.75"/><polygon class="cls-1" points="731.79 372.22 713 404.16 731.79 436.02 769.44 436.02 788.16 404.16 769.44 372.22 731.79 372.22"/><polygon class="cls-1" points="731.79 297.83 713 329.65 731.79 361.65 769.44 361.65 788.16 329.65 769.44 297.83 731.79 297.83"/><polygon class="cls-1" points="731.79 223.32 713 255.26 731.79 287.09 769.44 287.09 788.16 255.26 769.44 223.32 731.79 223.32"/><polygon class="cls-1" points="722.23 165.07 713 180.78 731.79 212.64 769.44 212.64 775.67 202.04 755.86 180.73 722.23 165.07"/><polygon class="cls-1" points="817.09 824.11 835.8 792.34 835.37 781.87 797.69 781.87 778.84 813.84 792.86 837.36 817.09 824.11"/><polygon class="cls-1" points="835.37 707.42 797.69 707.42 778.84 739.31 797.69 771.3 835.37 771.3 854.19 739.31 835.37 707.42"/><polygon class="cls-1" points="835.37 632.92 797.69 632.92 778.84 664.91 797.69 696.79 835.37 696.79 854.19 664.91 835.37 632.92"/><polygon class="cls-1" points="835.37 558.36 797.69 558.36 778.84 590.46 797.69 622.23 835.37 622.23 854.19 590.46 835.37 558.36"/><polygon class="cls-1" points="835.37 484.05 797.69 484.05 778.84 515.96 797.69 547.87 835.37 547.87 854.19 515.96 835.37 484.05"/><polygon class="cls-1" points="835.37 409.57 797.69 409.57 778.84 441.42 797.69 473.25 835.37 473.25 854.19 441.42 835.37 409.57"/><polygon class="cls-1" points="797.69 335.04 778.84 367.03 797.69 398.83 835.37 398.83 854.19 367.03 835.37 335.04 797.69 335.04"/><polygon class="cls-1" points="797.69 260.59 778.84 292.47 797.69 324.27 835.37 324.27 854.19 292.47 835.37 260.59 797.69 260.59"/><polygon class="cls-1" points="901.24 670.35 863.51 670.35 844.71 702.04 863.51 733.98 887.22 740.02 879.41 708.27 901.24 670.35"/><polygon class="cls-1" points="901.24 595.65 863.51 595.65 844.71 627.56 863.51 659.53 901.24 659.53 920.09 627.56 901.24 595.65"/><polygon class="cls-1" points="901.24 521.23 863.51 521.23 844.71 553.17 863.51 585 901.24 585 920.09 553.17 901.24 521.23"/><polygon class="cls-1" points="901.24 446.75 863.51 446.75 844.71 478.56 863.51 510.6 901.24 510.6 920.09 478.56 901.24 446.75"/><polygon class="cls-1" points="901.24 372.22 863.51 372.22 844.71 404.16 863.51 436.02 901.24 436.02 920.09 404.16 901.24 372.22"/><polygon class="cls-1" points="863.51 297.83 844.71 329.65 863.51 361.65 901.24 361.65 898.07 346.49 885.77 324.49 863.51 297.83"/><polygon class="cls-1" points="944.49 557.89 929.46 558.36 910.61 590.46 929.46 622.23 931.92 627.62 931.92 590.27 944.49 557.89"/><polygon class="cls-1" points="938.83 491.29 929.46 484.05 910.61 515.96 929.46 547.87 944.49 547.87 936.26 524.02 938.83 491.29"/><path class="cls-2" d="M1198,381.32c-7.46-27.95-13.93-30.49-21.12-30.79a7.84,7.84,0,0,1-1.58-.08l-.74-.3h-.74c-.63-.74-3.47-4.89-3.41-27a3.61,3.61,0,0,0-3.64-3.61h0a3.56,3.56,0,0,0-3.6,3.58c0,23.74,2.86,29.56,5.73,32.27a7.31,7.31,0,0,0,4,1.91,26.64,26.64,0,0,0,3.55.54c3,.06,7.87.33,14.7,25.93.84-.3,1.75-.68,2.84-1A21.66,21.66,0,0,1,1198,381.32Z" transform="translate(-690.54 -27.1)"/><path class="cls-2" d="M1098.28,388.92l-.27.33,40.43,37.15h.11a90.69,90.69,0,0,0,3.72,16.8c2.92,8.88,6.55,16.21,9.26,19.54.6,2.78,2.81,5.95,6.12,8.69a24,24,0,0,0,5.93,3.22,66.23,66.23,0,0,1,7.05-11.15,20.14,20.14,0,0,0-3.61-3.66c-3.85-3.11-8.25-4.29-11.42-3.74a96.52,96.52,0,0,0-3.8-15.9c-3.55-10.79-8-19.46-11-21.07l-36.61-34.34-1.86,1.42c-16.37-2.46-16.2-18.58-16.2-19.37a1.78,1.78,0,0,0-3.55-.08C1082.6,367.09,1082.27,384.49,1098.28,388.92Z" transform="translate(-690.54 -27.1)"/><path class="cls-2" d="M1043.77,409.46l60.33,28c1.26,5.41,5.87,13.17,12.7,20.84a73.11,73.11,0,0,0,6.29,6.48c8.14,2,15.08,3.85,20.43,5.25,0-5.25-5.08-14.27-13.11-23.45-6.5-7.29-13.47-12.73-18.61-14.91l.17-.2-69-31.66c-.62,1-.92,3.74-1.06,5.71-21.39-3.77-24.4-18.09-24.56-18.66a1.76,1.76,0,0,0-2.16-1.45,1.69,1.69,0,0,0-1.4,2C1013.91,388.21,1017.57,405.88,1043.77,409.46Z" transform="translate(-690.54 -27.1)"/><path class="cls-2" d="M1153,506.81l-91.39,3.8-10.93,19.25L1156,517.19A51.3,51.3,0,0,1,1153,506.81Z" transform="translate(-690.54 -27.1)"/><path class="cls-2" d="M1082.6,480.61l6.2,25,63.71-2.49a49.3,49.3,0,0,1-.33-5.71A53.07,53.07,0,0,1,1154.4,482Z" transform="translate(-690.54 -27.1)"/><path class="cls-2" d="M1157.21,541.07l-69.83,21.5,4.56,16.42c25.41-12.52,49.37-26.42,63.77-35.22,2.76-1.69,5.16-3.25,7.29-4.26Z" transform="translate(-690.54 -27.1)"/><path class="cls-2" d="M970.25,514.16l-109.83,4.37c12.27,10.22,31.09,19.94,48.88,28.17l45-5.44Z" transform="translate(-690.54 -27.1)"/><path class="cls-2" d="M1018,557l-60.27,11a288,288,0,0,0,23.39,23L1030,576.09Z" transform="translate(-690.54 -27.1)"/><path class="cls-2" d="M1143.52,473.26c-5.35-1.53-12.29-3.25-20.43-5.28-25.08-6.45-61.45-14.8-99.31-21.14l17.78,29,114.15,2.3a10.89,10.89,0,0,1,.63-1.48C1155,476.29,1150.46,475.11,1143.52,473.26Z" transform="translate(-690.54 -27.1)"/><polygon class="cls-2" points="355.56 503.23 366.54 483.58 284.28 486.83 268.54 513.66 355.56 503.23"/><path class="cls-2" d="M939.82,477.74,854.25,476c-5.52,10.22-8.8,20.65-6.09,27.37,1.36,3.8,4.2,7.68,8.19,11.48l59.26-2.35Z" transform="translate(-690.54 -27.1)"/><path class="cls-2" d="M1037.11,475.77,1019,446l.17-.13c-33.39-5.44-67.54-9.1-95.3-8.06l-10.05,35.57Z" transform="translate(-690.54 -27.1)"/><path class="cls-2" d="M919.9,438c-16,.94-29.51,3.5-39.4,8.39-7.37,3.77-16.88,14.32-24,25.88l53.25,1Z" transform="translate(-690.54 -27.1)"/><polygon class="cls-2" points="394.44 478.56 388.12 453.34 252.42 450.63 253.51 451.34 229.85 485.14 394.44 478.56"/><path class="cls-2" d="M1161.36,527.57c-.73-1.12-1.47-2.38-2.18-3.55a24.79,24.79,0,0,1-1.56-3L916,549.73c18.94,8.28,35.17,14.1,38.39,15.19v-.27Z" transform="translate(-690.54 -27.1)"/><path class="cls-2" d="M1083.58,563.74,984.68,594c7.54,6.2,15.05,11.2,20.49,11.91,19.18,2.65,51.91-10,83.44-25.13Z" transform="translate(-690.54 -27.1)"/><path class="cls-2" d="M1163.91,531h-.09l-141.74,25.54L1033.83,575l126.6-38.82,6.23-1.94A29,29,0,0,1,1163.91,531Z" transform="translate(-690.54 -27.1)"/><path class="cls-2" d="M1162.78,476.67c-.21.49-.4,1.07-.57,1.48-.46,1.39-.9,2.57-1.42,3.82a56.3,56.3,0,0,0-2.16,15.41,36.33,36.33,0,0,0,.44,5.71,23.93,23.93,0,0,0,.41,3.72,52.63,52.63,0,0,0,2.92,10.38A35.12,35.12,0,0,0,1164,521a26.71,26.71,0,0,0,1.59,3c.62,1.17,1.5,2.43,2.18,3.55s1.75,2.35,2.54,3.42,1.86,2.18,2.73,3.22A57,57,0,0,0,1215,552.57h1.15a56.84,56.84,0,0,0,41.69-18.36,28.86,28.86,0,0,0,2.73-3.22,27.53,27.53,0,0,0,2.51-3.42c.79-1.12,1.53-2.38,2.21-3.55.63-1,1.21-2,1.7-3,.46-1.25,1.09-2.48,1.61-3.82a55.38,55.38,0,0,0,2.82-10.38,28.26,28.26,0,0,0,.57-3.72,57,57,0,0,0,.41-5.71,55.2,55.2,0,0,0-2.24-15.41c-.41-1.25-.93-2.43-1.42-3.82-.14-.41-.38-1-.55-1.48a13.75,13.75,0,0,0-.9-2,59.16,59.16,0,0,0-6.89-11.15c-2-2.32-4.15-4.67-6.33-6.77-10.69,8-24.48,12.95-36.83,13.33h-3.42c-12.4-.38-26.06-5.3-36.91-13.33a72.32,72.32,0,0,0-6.25,6.77,66.23,66.23,0,0,0-7.05,11.15A12.11,12.11,0,0,1,1162.78,476.67Z" transform="translate(-690.54 -27.1)"/><path class="cls-2" d="M1199.56,406.46c0,20.76-11.67,38.17-27.82,43.88,1.59,1.52,3.42,2.84,5.14,4.34,11,8.06,25.41,13.11,38.09,13.11h1.15c12.51,0,26.93-5.05,37.92-13.11,1.8-1.5,3.58-2.82,5.22-4.34-16-5.71-27.82-23.12-27.82-43.88a50.72,50.72,0,0,1,5.57-23.72,22.12,22.12,0,0,0-4-1.42,57,57,0,0,0-16.85-2.65h-1a56.93,56.93,0,0,0-17.08,2.65,21.66,21.66,0,0,0-4,1.42A50.58,50.58,0,0,1,1199.56,406.46Z" transform="translate(-690.54 -27.1)"/><path class="cls-3" d="M1158.2,423.26c0,10.19,5.38,19.59,13.54,27.08,16.15-5.71,27.82-23.12,27.82-43.88a50.58,50.58,0,0,0-5.52-23.72c-1.09.33-2,.71-2.84,1C1173.38,391.21,1158.2,406,1158.2,423.26Z" transform="translate(-690.54 -27.1)"/><path class="cls-2" d="M1130.6,563.72l-15.35,35.48-50.17,46.42.25.71a5.06,5.06,0,0,0-2.68-.57,6.45,6.45,0,0,0-6.31,5.33,11.49,11.49,0,0,0-2-.33,6.18,6.18,0,0,0-6.31,6.23,3.33,3.33,0,0,0,.17,1.28l-.17-.19s-24.2-.43-26.91,25.11l3.64-3.47,3.47,7.71s2.37-26.7,24.5-23.88l-.65-.91a6.79,6.79,0,0,0,2.26.39,6,6,0,0,0,6.07-5.38,5.1,5.1,0,0,0,2.21.43,6.07,6.07,0,0,0,5.68-3.77l.28.6,53.14-48.68h.16c15.47-7.32,23.39-52,23.39-52Z" transform="translate(-690.54 -27.1)"/><path class="cls-2" d="M1239.86,383.75c6.77-25.6,11.55-25.87,14.45-25.93a27.18,27.18,0,0,0,3.69-.54,7,7,0,0,0,4-1.91c2.76-2.71,5.9-8.53,5.9-32.27a3.67,3.67,0,0,0-3.71-3.58h0a3.64,3.64,0,0,0-3.67,3.61c.17,22.13-2.75,26.28-3.38,27h-.58l-.82.3a8.42,8.42,0,0,1-1.5.08c-7.21.3-13.77,2.84-21.23,30.79a22.12,22.12,0,0,1,4,1.42C1237.94,383.07,1238.9,383.45,1239.86,383.75Z" transform="translate(-690.54 -27.1)"/><path class="cls-2" d="M1273.3,471.43c3.36-2.74,5.57-5.91,6.28-8.69,2.68-3.33,6.28-10.66,9.05-19.54a95.57,95.57,0,0,0,3.87-16.8h0L1333,389.25l-.46-.33c16.2-4.43,15.84-21.83,15.84-22.16a1.89,1.89,0,0,0-1.88-1.72,1.76,1.76,0,0,0-1.78,1.8c0,.79.25,16.91-16.2,19.37l-1.69-1.42L1290,419.13c-2.79,1.61-7.35,10.28-10.88,21.07a89.47,89.47,0,0,0-3.77,15.9c-3.22-.55-7.46.63-11.42,3.74a17.68,17.68,0,0,0-3.58,3.66,59.16,59.16,0,0,1,6.89,11.15A23.73,23.73,0,0,0,1273.3,471.43Z" transform="translate(-690.54 -27.1)"/><path class="cls-3" d="M1213.79,575a344.71,344.71,0,0,0,71.88-8.63,152,152,0,0,0-10.41-22.57c-2.86-1.69-5.29-3.25-7.35-4.26l5.69,1.56c-.93-1.56-2-3.31-3-4.92l-6.26-1.94A36.3,36.3,0,0,0,1267,531a22.72,22.72,0,0,0-1.7-2.14,56.17,56.17,0,0,1-48,28.17h-3.42a56.33,56.33,0,0,1-48.16-28.17c-.63.66-1.15,1.48-1.72,2.14a29,29,0,0,0,2.75,3.22l-6.23,1.94c-1,1.61-2.13,3.36-3.22,4.92l5.79-1.56c-2.13,1-4.53,2.57-7.29,4.26a144.31,144.31,0,0,0-10.41,22.57,320.82,320.82,0,0,0,68.49,8.28Z" transform="translate(-690.54 -27.1)"/><path class="cls-3" d="M1213.79,744.69v-.14a356,356,0,0,1-55.87-5.16A221.7,221.7,0,0,0,1179,775.75h73.09a217.4,217.4,0,0,0,21-36.36A376.91,376.91,0,0,1,1213.79,744.69Z" transform="translate(-690.54 -27.1)"/><path class="cls-3" d="M1213.79,607.59v-.19a350.3,350.3,0,0,1-76.74-9.56,202.26,202.26,0,0,0-2.9,35.49,326.52,326.52,0,0,0,79.64,11.34v.22a328.4,328.4,0,0,0,83-11.56,195,195,0,0,0-2.79-35.49A354.4,354.4,0,0,1,1213.79,607.59Z" transform="translate(-690.54 -27.1)"/><path class="cls-3" d="M1213.79,677.42h0a370,370,0,0,1-76.74-9.42,298.92,298.92,0,0,0,7.4,35.24,321.18,321.18,0,0,0,69.34,8.61V712a330.59,330.59,0,0,0,72.62-8.72A283.53,283.53,0,0,0,1294,668,367.58,367.58,0,0,1,1213.79,677.42Z" transform="translate(-690.54 -27.1)"/><path class="cls-2" d="M1213.79,712v-.11a321.18,321.18,0,0,1-69.34-8.61,304,304,0,0,0,13.47,36.15,356,356,0,0,0,55.87,5.16v.14a376.91,376.91,0,0,0,59.32-5.3,272.75,272.75,0,0,0,13.3-36.15A330.59,330.59,0,0,1,1213.79,712Z" transform="translate(-690.54 -27.1)"/><path class="cls-2" d="M1213.79,644.89v-.22a326.52,326.52,0,0,1-79.64-11.34c0,6,.27,12.18.88,18.25.62,5.52,1.09,10.9,2,16.42a370,370,0,0,0,76.74,9.42h0A367.58,367.58,0,0,0,1294,668c.79-5.52,1.45-10.9,2-16.42.58-6.07.8-12.21.8-18.25A328.4,328.4,0,0,1,1213.79,644.89Z" transform="translate(-690.54 -27.1)"/><path class="cls-2" d="M1213.79,607.59a354.4,354.4,0,0,0,80.19-9.75,185.12,185.12,0,0,0-8.31-31.5,344.71,344.71,0,0,1-71.88,8.63v-.35a320.82,320.82,0,0,1-68.49-8.28,165.9,165.9,0,0,0-8.25,31.5,350.3,350.3,0,0,0,76.74,9.56Z" transform="translate(-690.54 -27.1)"/><path class="cls-2" d="M1213.79,775.75H1179c12,16.67,25,28.53,36.07,34.18v.36l.24-.17v.17a.23.23,0,0,1,.14-.22,1.13,1.13,0,0,1,.33.22v-.36c11.23-5.65,24.09-17.51,36.31-34.18h-38.31Z" transform="translate(-690.54 -27.1)"/><path class="cls-2" d="M1319.2,431.65c-5.25,2.18-12.19,7.62-18.69,14.91-7.9,9.18-12.92,18.2-13.09,23.45,5.44-1.4,12.32-3.23,20.38-5.25,2.11-2,4.29-4.07,6.42-6.48,6.81-7.67,11.4-15.43,12.71-20.84l60.27-28c26.25-3.58,29.86-21.25,30-22a1.72,1.72,0,0,0-1.52-2,1.56,1.56,0,0,0-2,1.45c-.14.57-3.23,14.89-24.76,18.66-.1-2-.21-4.7-1.06-5.71l-69,31.66Z" transform="translate(-690.54 -27.1)"/><path class="cls-2" d="M1369.33,510.61l-91.36-3.8a69.87,69.87,0,0,1-2.92,10.38l105.18,12.67Z" transform="translate(-690.54 -27.1)"/><path class="cls-2" d="M1342.09,505.58l6.31-25L1276.58,482a51.44,51.44,0,0,1,2.24,15.41,43.47,43.47,0,0,1-.39,5.71Z" transform="translate(-690.54 -27.1)"/><path class="cls-2" d="M1275.26,543.77c14.46,8.8,38.5,22.7,63.72,35.22l4.89-16.42-70.27-21.5-5.69-1.56C1270,540.52,1272.4,542.08,1275.26,543.77Z" transform="translate(-690.54 -27.1)"/><path class="cls-2" d="M1476.78,541.26l44.87,5.44c17.75-8.23,36.69-18,49.06-28.17l-110.07-4.37Z" transform="translate(-690.54 -27.1)"/><path class="cls-2" d="M1400.91,576.09,1449.85,591c9.69-8.36,19-18.31,23.49-23l-60.57-11Z" transform="translate(-690.54 -27.1)"/><path class="cls-2" d="M1407.17,446.84c-37.65,6.34-74.15,14.69-99.37,21.14-8.06,2-14.94,3.75-20.38,5.28-7.05,1.85-11.53,3-12.73,3.41a12.69,12.69,0,0,0,.57,1.48l114-2.3Z" transform="translate(-690.54 -27.1)"/><polygon class="cls-2" points="781.49 513.66 765.53 486.83 683.19 483.58 694.42 503.23 781.49 513.66"/><path class="cls-2" d="M1576.75,476l-85.65,1.72,24.18,34.78,59.45,2.35a34.31,34.31,0,0,0,8.17-11.48C1585.49,496.67,1582.3,486.24,1576.75,476Z" transform="translate(-690.54 -27.1)"/><path class="cls-2" d="M1412.14,446l-18.3,29.73,123.43-2.35-10.21-35.57c-27.71-1-61.8,2.62-95.3,8.06Z" transform="translate(-690.54 -27.1)"/><path class="cls-2" d="M1574.4,472.25c-7.05-11.56-16.5-22.11-24-25.88-9.78-4.89-23.39-7.45-39.26-8.39l10,35.28Z" transform="translate(-690.54 -27.1)"/><polygon class="cls-2" points="661.85 453.34 655.51 478.56 819.96 485.14 796.43 451.34 797.5 450.63 661.85 453.34"/><path class="cls-2" d="M1271.74,524a40.51,40.51,0,0,1-2.24,3.55l207,37.08v.27c3.25-1.09,19.45-6.91,38.3-15.19L1273.43,521C1272.83,522,1272.37,523,1271.74,524Z" transform="translate(-690.54 -27.1)"/><path class="cls-2" d="M1342.45,580.74c31.28,15.1,64.23,27.78,83.27,25.13,5.49-.71,13-5.71,20.68-11.91l-99-30.22Z" transform="translate(-690.54 -27.1)"/><path class="cls-2" d="M1270.57,536.15,1397.12,575l11.69-18.44L1267.2,531h-.08c-1,1.17-1.86,2.18-2.81,3.22Z" transform="translate(-690.54 -27.1)"/><path class="cls-3" d="M1231.44,406.46c0,20.76,11.78,38.17,27.82,43.88,8-7.49,13.54-16.89,13.54-27.08,0-17.24-15.18-32.05-32.94-39.51-1-.3-1.92-.68-2.85-1A50.72,50.72,0,0,0,1231.44,406.46Z" transform="translate(-690.54 -27.1)"/><path class="cls-2" d="M1382.88,658.08l-.22.19a4.1,4.1,0,0,0,.22-1.28,6.16,6.16,0,0,0-6.31-6.23,14.44,14.44,0,0,0-2,.33,6.18,6.18,0,0,0-6.18-5.33,4.44,4.44,0,0,0-2.59.57l.22-.71-50.22-46.42-15.44-35.48-14.56-9.46s7.79,44.65,23.25,52h.14l53.17,48.68.24-.6a6.12,6.12,0,0,0,5.79,3.77,4.21,4.21,0,0,0,2-.43,6.25,6.25,0,0,0,6.2,5.38,6.76,6.76,0,0,0,2.32-.39l-.68.91c22.1-2.82,24.56,23.88,24.56,23.88l3.44-7.71,3.55,3.47C1407.12,657.65,1382.88,658.08,1382.88,658.08Z" transform="translate(-690.54 -27.1)"/><polygon class="cls-2" points="98.19 669.07 98.19 669.15 111.61 669.01 108.44 660.48 98.19 669.07"/><path class="cls-2" d="M773.43,491.07c-6.88-.85-11.47,1.26-12.26,8.88l-.58,5.52,21.48,2.24.73-6.83C783.27,496.48,781,491.81,773.43,491.07Z" transform="translate(-690.54 -27.1)"/><path class="cls-2" d="M1038.37,156.09c6.3-2.82,6.41-9.18,4.15-14.4-2.43-5.57-7.13-9.81-13.36-7-6.45,2.77-6.48,9.1-4.16,14.65C1027.38,154.64,1032,158.9,1038.37,156.09Z" transform="translate(-690.54 -27.1)"/><polygon class="cls-2" points="70.63 508.39 83.22 513.17 83.36 504.13 70.63 508.31 70.63 508.39"/><polygon class="cls-2" points="221.79 202.04 209.85 195.84 209.85 195.89 215.1 208.29 221.79 202.04"/><path class="cls-2" d="M782.67,440.61c-6.81-1.59-11.67-.14-13.34,7.35l-1.17,5.43,21.15,4.78,1.5-6.74C791.79,447.14,790.05,442.22,782.67,440.61Z" transform="translate(-690.54 -27.1)"/><polygon class="cls-2" points="549.34 72.89 549.34 72.89 544.01 85.27 553.11 85.73 549.34 72.89"/><path class="cls-2" d="M1108.83,132.26c6.69-1.5,7.86-7.86,6.55-13.36-1.42-6-5.44-10.9-12.21-9.2s-7.9,7.89-6.39,13.71C1098.12,129,1102.11,134,1108.83,132.26Z" transform="translate(-690.54 -27.1)"/><polygon class="cls-2" points="938.67 337.33 938.64 337.17 925.25 338.29 928.94 346.49 938.67 337.33"/><path class="cls-2" d="M1216.94,39.18c-283.62,0-514.08,226.25-514.08,504.37s230.46,504.32,514.08,504.32c283.31,0,513.76-226.19,513.76-504.32S1500.25,39.18,1216.94,39.18ZM1676.61,531c.24,10.82-7.49,17.37-17.68,17.67-9.94.36-18-6-18.19-16.69-.5-10.84,7.37-17.54,17.26-17.87C1668.25,513.83,1676.34,520.06,1676.61,531Zm-13.2-22.3-.93-7.4c3.34-.9,5.52-4.53,5.11-8.28-.87-6.94-6.86-8.77-12.81-8.11-5.79.65-11.26,3.82-10.27,10.79.43,4.7,4,7,8.52,7l.9,7.38c-8.6.16-14.83-5.22-15.84-13.8-1.23-10.77,5.9-17.92,15.76-19.18,10.11-1.09,18.8,4.32,20,15.13C1674.83,500,1671.28,506.81,1663.41,508.66ZM1662,432.55l-11.26,11,15,4.84,1.89,8.31L1644.12,449l-12.76,3-1.8-7.57,13-2.95L1660.05,424Zm-11.26-39.78c2.4,6.86,1.67,14.4-5.82,17.16l-2.4-7.19c3.68-1.69,3.63-4.92,2.45-8.3-.82-2.33-2.75-4.73-5.43-3.69-2.46.87-2.21,2.46-1.39,11.61.29,2.62,1.39,10.65-6,13.22-5.9,2.11-12.11-1-15.3-10.08-2.54-7.4-1.42-15.43,6.5-18.22l2.54,7c-4.37,1.5-4.78,5.57-3.44,9.48.9,2.57,3.09,6.17,6.36,5.08,3.58-1.31,2.38-6.45,1.81-11.78-.41-5.38-.33-11,5.82-13.22C1643.06,381.4,1648.49,386.7,1650.71,392.77Zm-12.19-28.2-26,26.09-3.25-7.26,5.87-5.57-5.3-12-8.11.63-3.2-7.08,36.8-2Zm-19.59-39.31-17.65,18.25.12.14,25-4.35,3.8,7-35.76,6-4.13-7.67,24.78-26.34Zm-6.06-10.6-29.54,17.84-4-6.5,29.54-17.93Zm-23.44-35.3,16.23,23.69-5.17,3.6-5.9-8.71-23.14,15.9-4.32-6.42,23-15.79-5.88-8.83Zm-6.92-9.15-19,31.47-5-6.2,4.43-6.8-8.12-10.41-7.7,2.57-4.94-6.29,35.38-10.6Zm-23-27.65c4.29,4.75,3.85,10.49,0,14.07-3,2.73-6.34,3.52-10.11,1.69l-.08.08c1.75,3.39,0,6.67-2.49,9.21-1.45,1.56-4.56,4.29-4.94,6.61l-5.3-5.68c.93-2.05,3.44-4.32,5.27-6.39,2.21-2.87,2.4-5-.22-7.9l-5.22-5.55-9.83,9.05-5.33-5.71,25.33-23.33Zm-38.6-37.73,21.09,19.7-4.29,4.61-7.73-7.21-19,20.52-5.65-5.25,19.07-20.51-7.71-7.16Zm-14.13-12.76c5.82,4.56,9,11.28,4.15,17.46l-5.85-4.7c2.35-3.34.72-6.07-2.21-8.5-1.91-1.45-4.8-2.51-6.61-.13-1.64,1.93-.57,3.33,5,10.51,1.66,2,6.77,8.34,1.91,14.4-4,5-10.9,5.55-18.42-.46-6.06-4.92-9.37-12.46-4-18.91l5.93,4.67c-2.9,3.56-1.2,7.27,2,9.78,2.11,1.64,5.9,3.69,8,1,2.33-2.9-1.34-6.72-4.5-11S1486,197,1490.09,192C1494.54,186.44,1502,188,1506.81,192.07ZM1490,180.4l-20,27.79-6.31-4.43,20-27.86Zm-31.31-21.17-.08,27.29.11.14,12.4-19.48,6,3.8-18.44,29.07-6.51-4.18,0-27.24-.08-.08L1439.82,188l-6.09-3.8,18.41-29ZM1444.38,151,1427.52,181l-6.63-3.79,16.66-30.08Zm-38.77-19.64L1403,156.17h.13l17.08-18.06,9.75,4.64-14.4,31.18-6.66-3,10.38-22.21-.22-.05-18,18.55-5.47-2.6,2.49-25.51L1398,139,1387.8,161l-6.53-3.06,14.48-31.2Zm-46.2-17.87,14.26,5.11c8.56,3.11,13.06,10.63,9.21,21.42-3.31,9.4-10.71,14.67-20.79,11l-14.26-5.3ZM1334,106.17l7.6,2.11,3.79,36.55-7.86-2-.5-8.12-12.75-3.38-4.62,6.64-7.6-2.08Zm-45.68,30a4.54,4.54,0,0,0,4.26-3.88l-3.41-.69,1.23-7.21,7.56,1.28-1.22,7.35c-.8,4.35-4.7,6.64-9,6.56Zm-18.77-22.6c-5-2-10-4.7-9.21-11.09.91-7,8-9.45,14.38-8.69,7.26.93,13.6,5,12.54,12.84l-7.41-1c.3-3.93-2.57-5.46-6.28-6-2.41-.27-5.36.36-5.69,3.25-.38,2.63,1.26,3.2,9.84,6.53,2.32.93,10,3.53,9,11.26-.82,6.26-6.42,10.33-16,9-7.68-1-14.42-5.63-13.36-13.94l7.54.85c-.6,4.62,2.73,6.91,6.81,7.46,2.7.22,7,0,7.34-3.47C1279.69,116.77,1274.5,115.49,1269.58,113.52Zm-33.11-22.18,7.87.43,11.2,35.06-8-.39-2.24-7.89-13.22-.63-3.14,7.43-7.79-.38Zm-32.38-1.09c7.73-.23,14.29,4.07,15.47,11.88l-7.52.27c-.54-3.44-4-5.93-7.76-5.87-6.93.08-9.5,6-9.39,12,.24,5.71,2.89,11.45,9.91,11.29,4.7-.11,7.24-3.34,7.73-7.93l7.55-.16c-.66,8.69-6.59,14.23-15.14,14.42-10.9.3-17.54-7.59-17.76-17.54C1187.05,98.47,1193.28,90.35,1204.09,90.25ZM1180.16,92l2.76,34.32-7.68.65-2.78-34.45Zm-43.33,5.19,11.67,22.16.08-.11,4.18-24.42,10.79-1.56,5.08,34-7.21,1.12-3.64-24.12h0l-4.92,25.24-5.79,1-12.22-22.62h-.13l3.66,23.82-7.13,1.1-5.17-34Zm-36.28-2.73,7.43-1.94-5.63,8.53-4.84,1.14Zm1.14,9c10.63-2.59,18.69,3.56,21.15,13.5,2.4,9.56-1.94,18.88-12.43,21.56-10.68,2.51-18.8-3.64-21.17-13.23C1086.8,115.44,1091.09,106.12,1101.69,103.49Zm-44.61,14.21,21.34,17.21h0l-7.38-22,6.91-2.24,11.07,32.65-7.41,2.32-21.31-17.05h-.11l7.43,21.8-6.94,2.38-11-32.68Zm-30.63,11c10-4.34,19,.44,23.14,9.86,4.05,9.15,1.32,19-8.66,23.34s-18.93-.44-23.06-9.49C1013.8,143.08,1016.56,133.16,1026.45,128.74ZM991.4,145.92c6.86-3.55,14.67-2.81,19.23,3.83l-6.47,3.47c-2.19-2.79-6.37-3.44-9.75-1.64-6,3.31-5.55,9.64-2.66,14.81s7.9,8.93,13.86,5.68c4.2-2.21,5-6.28,3.41-10.57l6.48-3.53c3.39,7.95.73,15.6-6.83,19.7-9.51,5.11-18.94,1.18-23.69-7.48C980.06,161.22,982,151.11,991.4,145.92Zm-19.83,12.3,3.25,5.33-15.47,10.16,4,6.09,14.31-9.21,3.14,4.95-14.31,9.24,4.53,7,16-10.19,3.39,5.3L968.18,201.3l-18.69-28.82Zm-51.48,35.49c5.66-4.54,12.9-6.39,17.84-.22l-5.74,4.62c-2.78-3-5.84-1.91-8.71.24-1.94,1.7-3.47,4.21-1.67,6.48,1.59,2.07,3.17,1.23,11.42-2.46,2.41-1.2,9.54-4.92,14.46,1.07,3.93,5,3,11.88-4.48,17.75-6.13,4.92-14.1,6.62-19.35-.08l5.85-4.75c2.87,3.69,6.8,2.76,10,.14,2.18-1.7,4.81-4.92,2.62-7.63-2.32-2.92-6.75-.11-11.64,2s-10.3,4.07-14.23-.9C912,204.55,915.15,197.59,920.09,193.71ZM897.55,214l33,16.15-5.82,5.52-7.18-3.77-9.54,9,3.26,7.46-5.66,5.33-13.85-34.26Zm-18.74,18.39,25,23.85-5.44,5.57-24.92-23.71Zm-20.54,21.58c4.94-5.93,12.43-8,19.12-3.68l-4.73,5.84c-2.95-1.83-7.13-.9-9.59,1.92-4.4,5.29-1.66,11.06,2.84,14.94s10.55,5.49,15,.14c3.06-3.69,2.33-7.68-.76-11.15L885,256.3c6,6.15,6.29,14.24.77,20.9-7,8.25-17.24,8.09-24.81,1.61C853.18,272.26,851.22,262.2,858.27,253.92Zm-27.9,38,27.19,1.29.08-.11-18.8-13.2L843,274l28.14,19.78-4.5,6.34-27.25-1.42v.14l18.77,13.27-4.18,6-28.05-19.92Zm-8.74,12.79,5.49,3.33L817.67,324,824,327.8l8.68-14.56,5.17,2.89-8.74,14.59,7.26,4.29,9.7-16.34,5.44,3.26-13.58,23-29.53-17.48Zm-17,30,30.46,16-3.69,6.77L801,341.65Zm-14,26.61c3.14-7.13,9.95-11.23,17.51-8.91l-3,6.91c-3.38-1-7.12,1-8.71,4.65-2.81,6.28,1.5,11,7,13.36,5.2,2.46,11.51,2.29,14.27-4,2-4.35.21-8-3.64-10.49l3-6.86c7.48,4.23,9.94,12,6.5,19.94-4.51,9.95-14.29,12.54-23.31,8.56C790.84,380.34,786.16,371.27,790.59,361.38ZM777.2,397.3l6,1.73-5.65,17.78,7.13,2.21,5-16.28,5.66,1.69-5.14,16.4,8,2.48L804,405.12l6,1.91-7.92,25.52-32.85-10.22Zm-13.68,47.33c2-8.94,8.87-14.38,20.13-11.78,9.73,2.21,15.76,9,13.42,19.42l-3.26,14.89-33.57-7.65ZM755,497.38c.9-9.07,7.1-15.27,18.5-14.12,9.89,1.06,16.74,7,15.62,17.67l-1.5,15-34.12-3.41Zm-2.27,33.91,34.59-12.49-.08,7.89-7.71,2.52-.19,13.2,7.54,2.84,0,7.81-34.26-13.9Zm-.33,19.88,6.34-.35.6,10.66,28-1.48.35,7.71-28,1.36.55,10.57L754,580Zm3.17,43.34,27.82-3-1.78-17,6.26-.66,2.67,24.62-34.18,3.74Zm6,38.14,20.9-3.88c3.8-.74,7.27-2.32,6.09-8.45-1-5.46-3.63-6.8-8.66-5.84l-21,3.85-1.48-7.57,21.07-3.88c9.17-1.72,14.56,2.9,16.36,12.19s-1.61,15.57-10.9,17.21l-21,3.91Zm6.45,30.24c-2.08-7.43.49-14.86,7.84-18l2,7.15c-3.17,1.43-4.73,5.39-3.72,9.07,1.86,6.67,8.17,7.63,13.88,6,5.55-1.51,10.46-5.63,8.66-12.41-1.28-4.37-5.13-6-9.59-5.43l-2-7.22c8.5-1.47,15.44,2.82,17.79,11.18,2.92,10.38-3.09,18.66-12.74,21.34C780.32,677.23,771,673.27,768.08,662.89Zm11.28,32.51L806.9,671l2.84,7.52-6.17,5.11,4.56,12.43,8.28-.25,2.62,7.49-36.85-.41Zm17.87,42.24L787,715.16l5.82-2.74,7,15.49,7.18-3.3-6-13.36,5.31-2.46,6.06,13.36,12.92-5.87,3.2,7.07Zm52.29,93c8.83,0,17.65,4.78,23.17,12.52C863.76,843.87,854.41,838.86,849.52,830.64Zm16.26,22.1a30.17,30.17,0,0,1,24.7,11C881.3,865,871.41,860.5,865.78,852.74Zm18.06,21a31.68,31.68,0,0,1,26.09,9.62A27.6,27.6,0,0,1,883.84,873.75Zm19.7,20a33,33,0,0,1,27.35,8A29.07,29.07,0,0,1,903.54,893.75Zm21.28,18.69a35.4,35.4,0,0,1,28.68,6.42A30.39,30.39,0,0,1,924.82,912.44Zm22.92,17.35c10.16-2.65,21.59-.93,30,4.73C967.52,938.12,955.55,936.26,947.74,929.79Zm24.48,16.12c10.35-3.53,22.19-2.54,31.06,2.59C993,952.82,980.5,951.73,972.22,945.91ZM998.12,960c10.52-4,22.81-3.82,32.13.69C1019.79,965.72,1007,965.28,998.12,960Zm64,6.67A386.34,386.34,0,0,1,857.56,815.29a19.62,19.62,0,0,0-4.92-3.14c-7.76-3.58-5.11-8.17-2-6.84-3.11-2.35-6.09-6.69-3.88-9.42,2.93-1.39,5.44,3.2,6.45,7.38-.22-3.83,4.32-5.33,5.11,4a26.05,26.05,0,0,0,1,5.14,384.65,384.65,0,0,0,204.8,151.06C1063.42,964.68,1062.76,965.72,1062.08,966.7ZM874.74,808.57A32.24,32.24,0,0,1,881.32,835C875.09,828.18,872.69,817.75,874.74,808.57Zm16.09,20.57a31.61,31.61,0,0,1,8.31,26.06C892.09,848.76,889.19,838.48,890.83,829.14Zm17.73,19.62a30.23,30.23,0,0,1,9.73,25.65A28.41,28.41,0,0,1,908.56,848.76ZM928,867.31a29.39,29.39,0,0,1,11.2,24.94C931.24,886.73,927.06,876.76,928,867.31Zm20.79,17.32c8,5.27,13.28,14.62,12.89,24.26A27.09,27.09,0,0,1,948.78,884.63Zm22.48,15.93c8.47,4.8,14.24,13.77,14.4,23.27A25.63,25.63,0,0,1,971.26,900.56ZM995.09,915c9.07,4.21,15.41,12.81,15.87,22.32A25.41,25.41,0,0,1,995.09,915Zm25.46,12.81c9.4,3.55,16.29,11.72,17.3,21.15C1027.82,945.8,1021.21,937.19,1020.55,927.82Zm116.39,61.07c-2.24,9-6.53,15.16-12.41,18.22-6.14,3.14-13.52,3.82-22.32,1.72s-15.22-6.12-18.9-11.5-4.65-12.87-2.38-21.83l10.41-41.34,14.45,3.5-10.52,41.25a48.39,48.39,0,0,0-.76,5.47,11.09,11.09,0,0,0,.74,4.94,11.63,11.63,0,0,0,3.38,4.26,17.31,17.31,0,0,0,6.59,3c5.22,1.25,9,.84,11.58-.93s4.46-5.33,5.66-10.25l10.38-41.25,14.37,3.33Zm70,33.82-14.89-1.29-23.87-48h-.11l-4.24,45.57-13.77-1.28,6.2-68.08L1171,951l23.75,48.09h.35l4-45.66,13.9,1.21Zm7.6-85.79c-217,0-393.45-172.8-393.45-385.2s176.44-385.11,393.45-385.11,393.53,172.69,393.53,385.11S1431.51,936.92,1214.53,936.92ZM1550.5,835a32.38,32.38,0,0,1,6.44-26.42C1559.18,817.75,1556.67,828.18,1550.5,835Zm-17.74,20.21a31.58,31.58,0,0,1,8.09-26.06A28.6,28.6,0,0,1,1532.76,855.2Zm-19.31,19.21c-1.1-9.51,3-19.4,9.78-25.65C1524.51,858.1,1520.94,868.29,1513.45,874.41Zm-9.54-7.1a27.65,27.65,0,0,1-11.33,24.94A29.88,29.88,0,0,1,1503.91,867.31Zm-21,17.32a26.88,26.88,0,0,1-12.79,24.26A29.07,29.07,0,0,1,1482.93,884.63Zm-22.43,15.93a25.9,25.9,0,0,1-14.23,23.27C1446.27,914.33,1452.14,905.36,1460.5,900.56ZM1436.59,915a25.1,25.1,0,0,1-15.7,22.32C1421.38,927.82,1427.69,919.22,1436.59,915Zm-25.35,12.81A24.25,24.25,0,0,1,1394,949C1395,939.54,1401.87,931.37,1411.24,927.82Zm-140.79,91.69-6.25-14.81-25.27,1.67L1234.8,1022,1220,1023.2,1240.16,953l15.19-.94,30.51,66.23Zm69.1-13.47-7.16-28.69-26.58,6.42,7.3,28.69-14.62,3.42-16.61-66.28,14.42-3.55,6.42,25.46,26.53-6.37-6.31-25.6,14.45-3.28,16.64,66.31Zm62-45.32c9.35-4.51,21.7-4.65,32.27-.69C1424.93,965.28,1412,965.72,1401.54,960.72Zm27.08-12.22c8.79-5.13,20.71-6.12,31-2.59C1451.18,951.73,1438.83,952.82,1428.62,948.5Zm25.52-14c8.33-5.66,19.77-7.38,29.94-4.73C1476.26,936.26,1464.27,938.12,1454.14,934.52Zm24.2-15.66c7.68-6.15,18.77-8.52,28.72-6.42A30.42,30.42,0,0,1,1478.34,918.86Zm22.59-17.07a33,33,0,0,1,27.3-8A28.9,28.9,0,0,1,1500.93,901.79Zm21-18.42a31.29,31.29,0,0,1,25.92-9.62A27.14,27.14,0,0,1,1522,883.37Zm19.42-19.59c6.12-7.4,15.44-11.64,24.59-11C1560.55,860.5,1550.6,865,1541.37,863.78Zm17.79-20.62c5.4-7.74,14.37-12.52,23.14-12.52C1577.46,838.86,1568.09,843.87,1559.16,843.16Zm20-31a20.48,20.48,0,0,0-4.78,3A386.11,386.11,0,0,1,1369.66,966.7c-.63-1-1.29-2-2-3.22a384.21,384.21,0,0,0,204.76-150.93,19.89,19.89,0,0,0,1.1-5.27c.87-9.34,5.33-7.84,5-4,1.12-4.18,3.53-8.77,6.48-7.38,2.21,2.73-.74,7.07-3.88,9.42C1584.29,804,1587,808.57,1579.18,812.15Zm39.51-49.35c-3.77,6.37-9.89,10.52-16.75,6.53l3.77-6.53c3.69,1.92,6.2-.11,8-3.27,1.25-2.11,1.77-5.09-.66-6.56-2.27-1.34-3.44,0-9.78,6.45-1.91,1.83-7.27,7.75-14,3.82-5.47-3.19-6.92-10-2.08-18.17,4-6.69,11-11.06,18.25-6.66l-3.91,6.53c-4-2.41-7.24-.14-9.45,3.38-1.31,2.38-2.81,6.23.22,8s6.47-2.3,10.22-6c3.82-4,8.22-7.35,13.74-4.1C1622.35,749.8,1621.86,757.39,1618.69,762.8Zm9.26-17.62-5.79-2.81,7.9-16.75-6.7-3.09L1616.2,738l-5.38-2.6,7.32-15.38-7.7-3.47-8,17-5.77-2.81,11.26-24.13,31.2,14.76Zm19.78-45.46-26.2-10.14-6.09,16-6-2.21,8.85-23.23,32.16,12.38Zm9-26.5c-1.8,6.34-5.3,10.22-11.34,8.33a7.52,7.52,0,0,1-5.6-6.67,8.42,8.42,0,0,1-10.19,3.75c-6.67-2-7.76-8.77-6-14.86l4.83-16.37,33,10Zm8.74-33.93-36.25,5.84,1.58-7.92,8.12-1,2.7-13-6.91-4.23,1.61-7.54,30.74,20.08Zm4.07-19.54-6.25-.87,1.39-10.36-27.62-3.9,1-7.65,27.7,3.87,1.5-10.35,6.26.88Zm6-56.77-23.93,13.36v.08l23,1.31-.44,7.27-34.31-1.94.35-7.84,24-13.2v-.16l-23-1.31.44-7.22,34.32,1.94Z" transform="translate(-690.54 -27.1)"/><path class="cls-2" d="M1375.48,138.05c2.29-6.5,1.47-11.55-5.77-14.09l-5.13-2-7.38,20.41,6.53,2.46C1367.94,146.33,1372.83,145.24,1375.48,138.05Z" transform="translate(-690.54 -27.1)"/><path class="cls-2" d="M1658.22,521.89c-5.71.08-11.42,2.89-11.23,9.83s6,9.43,11.7,9.24c6.06-.19,11.74-2.93,11.53-9.86S1664.26,521.64,1658.22,521.89Z" transform="translate(-690.54 -27.1)"/><polygon class="cls-2" points="967.52 606.55 956.18 599.39 954.29 608.25 967.46 606.55 967.52 606.55"/><path class="cls-2" d="M1632.27,671.23c3.28,1.09,5.35-.77,6.25-3.91l2.44-8-9.07-2.73-2.38,7.93C1628.63,667.51,1628.82,670.27,1632.27,671.23Z" transform="translate(-690.54 -27.1)"/><polygon class="cls-2" points="645.1 88.33 644.97 88.33 637.29 99.2 646.09 101.63 645.1 88.33"/><polygon class="cls-2" points="882.71 245.15 882.69 245.04 870.01 249.28 875.47 256.43 882.71 245.15"/><path class="cls-2" d="M1651.47,670l2.11-6.94-7.71-2.3-2.35,7.6c-.68,2.57-.08,4.89,2.65,5.65C1649.42,674.88,1650.79,672.7,1651.47,670Z" transform="translate(-690.54 -27.1)"/><path class="cls-2" d="M1553.37,251.77c2.51-2.3,2.23-4.62-.09-7.22l-5.76-6.17-7.16,6.56,5.85,6.14C1548.39,253.68,1550.82,254,1553.37,251.77Z" transform="translate(-690.54 -27.1)"/><polygon class="cls-2" points="558.33 942.3 551.47 967.96 569.07 966.67 558.52 942.3 558.33 942.3"/><path class="cls-2" d="M1216.94,27.1c-290.18,0-526.4,231.69-526.4,516.45S926.76,1060,1216.94,1060,1743,828.32,1743,543.55,1507.06,27.1,1216.94,27.1Zm0,1026c-287.59,0-520.71-228.22-520.71-509.57S929.35,34,1216.94,34c287.41,0,520.57,228.11,520.57,509.59S1504.35,1053.12,1216.94,1053.12Z" transform="translate(-690.54 -27.1)"/></g></svg>