<svg id="Capa_3" data-name="Capa 3" xmlns="http://www.w3.org/2000/svg" viewBox="0 0 588.98 238.57"><defs><style>.cls-1,.cls-2{fill:#fff;}.cls-1{fill-rule:evenodd;}</style></defs><path class="cls-1" d="M179.24,290.31c.1-.52,0-1.33.33-1.52a11.71,11.71,0,0,1,3.09-1.3c.26-.08.76.62,1.12,1,1.94,2,3.67,2,5.46-.16.73-.9,1.4-1.15,2.4-.58a4.7,4.7,0,0,0,1.21.48c.75.18.94.64.88,1.34a7.43,7.43,0,0,0,0,1.7c.66,4.71,1.35,3.1,3.52,2.69,1.55-.29,2.22.21,2.78,1.62s.63,2.07-.57,3.06c-1.89,1.57-1.75,3.44,0,5.11.46.42,1.17,1,1.11,1.45a8.64,8.64,0,0,1-1.17,3c-.18.28-1,.22-1.59.18-1.58-.09-2.9.38-3.49,1.91a5.46,5.46,0,0,0-.22,2.42c.08.87-.11,1.42-1,1.66a1.44,1.44,0,0,0-.48.2c-1.31.85-2.29.75-3.38-.59-1.41-1.75-3.36-1.55-4.94.17-.42.46-1,1.26-1.4,1.19a11.06,11.06,0,0,1-3.11-1.24c-.21-.11-.18-.79-.17-1.2,0-3.29-1.22-4.44-4.45-4-.77.1-1.25-.05-1.42-.87a3,3,0,0,0-.26-.59c-.86-1.92-.86-1.92.64-3.43a3.16,3.16,0,0,0-.19-4.9c-.49-.45-1.31-1.06-1.24-1.49a8,8,0,0,1,1.21-3c.18-.29,1-.22,1.56-.22C178.23,294.39,179.54,293,179.24,290.31Zm14.82,11.14a7.36,7.36,0,1,0-14.72-.17,7.36,7.36,0,1,0,14.72.17Z" transform="translate(-15.32 -202.35)"/><path class="cls-1" d="M144.34,264c.15-.83,0-2.1.52-2.4a18.83,18.83,0,0,1,4.89-2.07c.42-.11,1.21,1,1.78,1.57,3.08,3.22,5.81,3.23,8.65-.25,1.16-1.42,2.22-1.82,3.81-.91a7.67,7.67,0,0,0,1.91.75c1.18.28,1.49,1,1.4,2.13a12,12,0,0,0,0,2.68,4.79,4.79,0,0,0,5.57,4.27c2.46-.46,3.51.33,4.41,2.57.81,2,1,3.27-.91,4.85-3,2.48-2.77,5.44.1,8.1.71.67,1.84,1.63,1.73,2.29a13.51,13.51,0,0,1-1.85,4.74c-.27.44-1.65.34-2.51.29-2.51-.16-4.59.59-5.54,3a8.8,8.8,0,0,0-.33,3.83c.12,1.38-.18,2.25-1.56,2.63a2.67,2.67,0,0,0-.76.32c-2.08,1.34-3.63,1.18-5.35-.94-2.25-2.76-5.33-2.45-7.83.27-.68.73-1.61,2-2.22,1.89a18,18,0,0,1-4.93-2c-.33-.18-.28-1.25-.27-1.91,0-5.2-1.92-7-7-6.38-1.22.16-2-.09-2.25-1.37a4.92,4.92,0,0,0-.42-.94c-1.37-3-1.37-3,1-5.44s2.25-5.37-.3-7.76c-.76-.72-2.06-1.68-2-2.36a12.69,12.69,0,0,1,1.91-4.73c.28-.45,1.62-.34,2.48-.34C142.74,270.42,144.82,268.24,144.34,264Zm23.48,17.64a11.66,11.66,0,1,0-23.32-.25,11.66,11.66,0,1,0,23.32.25Z" transform="translate(-15.32 -202.35)"/><path class="cls-2" d="M77.26,328.42A11.69,11.69,0,1,1,65.57,317,11.56,11.56,0,0,1,77.26,328.42Z" transform="translate(-15.32 -202.35)"/><path class="cls-2" d="M74.83,323s-5.43-7.31-13-4.25A10.59,10.59,0,0,0,55.2,330.4a11.16,11.16,0,0,0,1.32,4S60.06,321.62,74.83,323Z" transform="translate(-15.32 -202.35)"/><path class="cls-2" d="M109.94,305.64A11.69,11.69,0,1,1,98.25,294.2,11.56,11.56,0,0,1,109.94,305.64Z" transform="translate(-15.32 -202.35)"/><path class="cls-2" d="M107.51,300.18s-5.43-7.31-13.05-4.24a10.59,10.59,0,0,0-6.58,11.67,10.9,10.9,0,0,0,1.32,4S92.74,298.83,107.51,300.18Z" transform="translate(-15.32 -202.35)"/><path class="cls-2" d="M143,319.27a11.69,11.69,0,1,1-11.69-11.45A11.57,11.57,0,0,1,143,319.27Z" transform="translate(-15.32 -202.35)"/><path class="cls-2" d="M140.58,313.81s-5.43-7.31-13.05-4.25A10.59,10.59,0,0,0,121,321.24a11.06,11.06,0,0,0,1.31,4S125.81,312.46,140.58,313.81Z" transform="translate(-15.32 -202.35)"/><path class="cls-2" d="M80.06,355.15v36.49l-9.27,14.48-4.23,2.4c-4-3-3.35-6.88-6.94-10.32l-7.26-43.05a10.77,10.77,0,0,1,10.78-10.77h6.14A10.76,10.76,0,0,1,80.06,355.15Z" transform="translate(-15.32 -202.35)"/><path class="cls-2" d="M112.1,331.66v48.61L97.49,364.38,84.41,384.84V331.66a10.78,10.78,0,0,1,10.78-10.78h6.14A10.78,10.78,0,0,1,112.1,331.66Z" transform="translate(-15.32 -202.35)"/><path class="cls-2" d="M145.17,344.5v29.84l-14.23,26.4-13.47-14.63V344.5a10.78,10.78,0,0,1,10.77-10.79h6.14A10.8,10.8,0,0,1,145.17,344.5Z" transform="translate(-15.32 -202.35)"/><path class="cls-2" d="M77.87,412l21.24-30.53,35.4,34.67,46.21-83.35,23.85,20.65,14.16-20.65,28,21.12s-11.2,80.66-117.78,81.77C128.92,435.69,84.48,428.05,77.87,412Z" transform="translate(-15.32 -202.35)"/><path class="cls-2" d="M134.61,202.35A119.42,119.42,0,0,0,15.32,321.64a118.12,118.12,0,0,0,1.54,19.12L23,339.29l6.13-1.48a106.74,106.74,0,0,1,206.83-49.73l6.14-1.48,6.1-1.46A119.47,119.47,0,0,0,134.61,202.35Z" transform="translate(-15.32 -202.35)"/><path class="cls-2" d="M253.89,321.64A119.23,119.23,0,0,1,78.94,427.1Q74.89,425,71,422.53l6.77-10.59c.38.25.76.49,1.15.72A106.72,106.72,0,0,0,237.46,293.1l6.12-1.47,6.1-1.47A118.87,118.87,0,0,1,253.89,321.64Z" transform="translate(-15.32 -202.35)"/><polygon class="cls-2" points="53.23 217.78 50.4 215.98 82.98 165.02 117.64 202.68 164.41 115.89 188.44 139.17 203.38 118.63 206.1 120.61 188.88 144.28 165.26 121.4 118.36 208.43 83.46 170.51 53.23 217.78"/><polygon class="cls-2" points="215.43 133.47 218.95 100.09 188.29 113.72 215.43 133.47"/><path class="cls-2" d="M283.07,243.42h21.27v96.76H283.07Z" transform="translate(-15.32 -202.35)"/><path class="cls-2" d="M323.05,243.42h21.27v96.76H323.05Z" transform="translate(-15.32 -202.35)"/><path class="cls-2" d="M363,243.42h72.36v17.89H384.3V282h46.89v16.53H384.3v23.72h52.18v17.89H363Z" transform="translate(-15.32 -202.35)"/><path class="cls-2" d="M465.34,308.06c0,12.87,10,17.89,21.42,17.89,7.45,0,18.83-2.17,18.83-12.06,0-10.44-14.5-12.2-28.73-16S448,288.54,448,270.39c0-19.79,18.7-29.27,36.18-29.27,20.19,0,38.76,8.8,38.76,31.16h-20.6c-.68-11.65-8.94-14.63-19.11-14.63-6.77,0-14.64,2.84-14.64,11,0,7.46,4.61,8.41,28.87,14.64,7.05,1.76,28.73,6.23,28.73,28.19,0,17.75-14,31-40.25,31-21.41,0-41.47-10.57-41.2-34.42Z" transform="translate(-15.32 -202.35)"/><path class="cls-2" d="M282.45,352.78h1.95v14.68h-1.95Z" transform="translate(-15.32 -202.35)"/><path class="cls-2" d="M287.67,352.78h2.07l7.73,11.9h0v-11.9h1.85v14.68h-2.14l-7.67-11.78h0v11.78h-1.85Z" transform="translate(-15.32 -202.35)"/><path class="cls-2" d="M311,357.08c-.22-2.1-1.62-3-3.64-3-1.64,0-3.29.59-3.29,2.5s2.35,2.08,4.71,2.61,4.69,1.36,4.69,4.24c0,3.12-3.07,4.38-5.74,4.38-3.29,0-6.06-1.6-6.06-5.18h1.85c0,2.46,2,3.53,4.27,3.53,1.77,0,3.73-.55,3.73-2.67s-2.35-2.36-4.69-2.88-4.71-1.19-4.71-3.88c0-3,2.65-4.3,5.33-4.3,3,0,5.28,1.42,5.4,4.65Z" transform="translate(-15.32 -202.35)"/><path class="cls-2" d="M319.18,354.42h-4.89v-1.64H326v1.64h-4.9v13h-1.95Z" transform="translate(-15.32 -202.35)"/><path class="cls-2" d="M327.73,352.78h2v14.68h-2Z" transform="translate(-15.32 -202.35)"/><path class="cls-2" d="M336.3,354.42h-4.89v-1.64h11.74v1.64h-4.89v13h-2Z" transform="translate(-15.32 -202.35)"/><path class="cls-2" d="M356.49,362.15c0,3.7-2.11,5.66-5.77,5.66s-6-1.75-6-5.66v-9.37h2v9.37c0,2.59,1.48,4,4.07,4s3.82-1.42,3.82-4v-9.37h1.95Z" transform="translate(-15.32 -202.35)"/><path class="cls-2" d="M363,354.42h-4.89v-1.64h11.73v1.64H364.9v13H363Z" transform="translate(-15.32 -202.35)"/><path class="cls-2" d="M377.62,352.43c4.67,0,7,3.7,7,7.69s-2.36,7.69-7,7.69-7-3.71-7-7.69S373,352.43,377.62,352.43Zm0,13.73c3.58,0,5.08-3.08,5.08-6s-1.5-6-5.08-6-5.07,3.08-5.07,6S374.05,366.16,377.62,366.16Z" transform="translate(-15.32 -202.35)"/><path class="cls-2" d="M392.76,352.78h5c4.52,0,7,2.26,7,7,0,4.91-2.16,7.69-7,7.69h-5Zm1.95,13H398c1.33,0,4.93-.37,4.93-5.77,0-3.5-1.29-5.62-4.89-5.62h-3.29Z" transform="translate(-15.32 -202.35)"/><path class="cls-2" d="M407.23,352.78h10.13v1.64h-8.18v4.67h7.63v1.65h-7.63v5.07h8.24v1.65H407.23Z" transform="translate(-15.32 -202.35)"/><path class="cls-2" d="M425.58,352.78h2v14.68h-2Z" transform="translate(-15.32 -202.35)"/><path class="cls-2" d="M430.8,352.78h2.08l7.73,11.9h0v-11.9h1.85v14.68h-2.14l-7.66-11.78h-.05v11.78H430.8Z" transform="translate(-15.32 -202.35)"/><path class="cls-2" d="M451.44,367.46h-2.22L444,352.78h2.12l4.19,12.73h0l4.23-12.73h2Z" transform="translate(-15.32 -202.35)"/><path class="cls-2" d="M458.23,352.78h10.13v1.64h-8.18v4.67h7.63v1.65h-7.63v5.07h8.24v1.65H458.23Z" transform="translate(-15.32 -202.35)"/><path class="cls-2" d="M479.27,357.08c-.22-2.1-1.62-3-3.63-3-1.65,0-3.29.59-3.29,2.5s2.34,2.08,4.71,2.61,4.68,1.36,4.68,4.24c0,3.12-3.06,4.38-5.73,4.38-3.29,0-6.07-1.6-6.07-5.18h1.85c0,2.46,2.06,3.53,4.28,3.53,1.77,0,3.72-.55,3.72-2.67s-2.34-2.36-4.69-2.88-4.7-1.19-4.7-3.88c0-3,2.65-4.3,5.32-4.3,3,0,5.28,1.42,5.41,4.65Z" transform="translate(-15.32 -202.35)"/><path class="cls-2" d="M487.44,354.42h-4.89v-1.64h11.73v1.64h-4.89v13h-1.95Z" transform="translate(-15.32 -202.35)"/><path class="cls-2" d="M496,352.78h1.95v14.68H496Z" transform="translate(-15.32 -202.35)"/><path class="cls-2" d="M512.21,365.63a5.75,5.75,0,0,1-4.71,2.18c-4.38,0-7-3.58-7-7.4,0-4.28,2.34-8,7-8,3.21,0,5.75,1.44,6.31,4.87h-1.95c-.39-2.22-2.18-3.22-4.36-3.22-3.56,0-5,3.08-5,6.22s1.77,5.86,5,5.86a4.43,4.43,0,0,0,4.71-4.79h-4.69v-1.64H514v7.73h-1.23Z" transform="translate(-15.32 -202.35)"/><path class="cls-2" d="M520.82,352.78H523l5.73,14.68h-2.15L525,363h-6.2l-1.65,4.42h-2Zm-1.46,8.61h5l-2.45-6.84h0Z" transform="translate(-15.32 -202.35)"/><path class="cls-2" d="M540.47,357.2a3.85,3.85,0,0,0-4.11-3.12c-3.49,0-5,2.87-5,5.94,0,3.35,1.48,6.14,5,6.14,2.57,0,4-1.81,4.24-4.23h2c-.37,3.66-2.65,5.88-6.35,5.88-4.56,0-6.79-3.38-6.79-7.65s2.43-7.73,7-7.73c3.07,0,5.59,1.65,6,4.77Z" transform="translate(-15.32 -202.35)"/><path class="cls-2" d="M545.08,352.78H547v14.68h-1.95Z" transform="translate(-15.32 -202.35)"/><path class="cls-2" d="M556.53,352.43c4.66,0,7,3.7,7,7.69s-2.37,7.69-7,7.69-7-3.71-7-7.69S551.86,352.43,556.53,352.43Zm0,13.73c3.57,0,5.07-3.08,5.07-6s-1.5-6-5.07-6-5.08,3.08-5.08,6S553,366.16,556.53,366.16Z" transform="translate(-15.32 -202.35)"/><path class="cls-2" d="M565.92,352.78H568l7.73,11.9h0v-11.9h1.85v14.68h-2.14l-7.67-11.78h0v11.78h-1.85Z" transform="translate(-15.32 -202.35)"/><path class="cls-2" d="M580.78,352.78h10.14v1.64h-8.18v4.67h7.62v1.65h-7.62v5.07H591v1.65h-10.2Z" transform="translate(-15.32 -202.35)"/><path class="cls-2" d="M601.83,357.08c-.22-2.1-1.62-3-3.63-3-1.65,0-3.29.59-3.29,2.5s2.34,2.08,4.71,2.61,4.68,1.36,4.68,4.24c0,3.12-3.06,4.38-5.74,4.38-3.28,0-6.06-1.6-6.06-5.18h1.85c0,2.46,2.06,3.53,4.28,3.53,1.76,0,3.72-.55,3.72-2.67s-2.35-2.36-4.69-2.88-4.71-1.19-4.71-3.88c0-3,2.66-4.3,5.33-4.3,3,0,5.28,1.42,5.4,4.65Z" transform="translate(-15.32 -202.35)"/><path class="cls-2" d="M282.18,373.81h11v2.71h-7.75v3.14h7.11v2.51h-7.11v3.6h7.91v2.71H282.18Z" transform="translate(-15.32 -202.35)"/><path class="cls-2" d="M305.29,378.74a3.18,3.18,0,0,0-3.21-2.57c-2.9,0-4,2.47-4,5s1.09,4.91,4,4.91c2,0,3.08-1.36,3.33-3.29h3.12a6.19,6.19,0,0,1-6.45,6c-4.54,0-7.21-3.39-7.21-7.62s2.67-7.75,7.21-7.75c3.23,0,5.94,1.89,6.33,5.28Z" transform="translate(-15.32 -202.35)"/><path class="cls-2" d="M317.31,373.46c4.55,0,7.22,3.39,7.22,7.75s-2.67,7.62-7.22,7.62-7.21-3.39-7.21-7.62S312.77,373.46,317.31,373.46Zm0,12.66c2.9,0,4-2.47,4-4.91s-1.09-5-4-5-4,2.47-4,5S314.41,386.12,317.31,386.12Z" transform="translate(-15.32 -202.35)"/><path class="cls-2" d="M326.73,373.81h3.21l6.12,9.84h0v-9.84h3v14.67H335.9l-6.11-9.82h0v9.82h-3Z" transform="translate(-15.32 -202.35)"/><path class="cls-2" d="M348.54,373.46c4.54,0,7.21,3.39,7.21,7.75s-2.67,7.62-7.21,7.62-7.22-3.39-7.22-7.62S344,373.46,348.54,373.46Zm0,12.66c2.9,0,4-2.47,4-4.91s-1.09-5-4-5-4,2.47-4,5S345.64,386.12,348.54,386.12Zm.49-13.63h-2l2-2.92h3.23Z" transform="translate(-15.32 -202.35)"/><path class="cls-2" d="M358,373.81h4.54l3.44,10.09h0l3.25-10.09h4.54v14.67h-3v-10.4h0l-3.6,10.4h-2.49L361,378.19h0v10.29h-3Z" transform="translate(-15.32 -202.35)"/><path class="cls-2" d="M376.6,373.81h3.23v14.67H376.6Z" transform="translate(-15.32 -202.35)"/><path class="cls-2" d="M392.45,378.74a3.18,3.18,0,0,0-3.21-2.57c-2.9,0-4,2.47-4,5s1.09,4.91,4,4.91c2,0,3.08-1.36,3.33-3.29h3.12a6.19,6.19,0,0,1-6.45,6c-4.54,0-7.21-3.39-7.21-7.62s2.67-7.75,7.21-7.75c3.23,0,5.94,1.89,6.33,5.28Z" transform="translate(-15.32 -202.35)"/><path class="cls-2" d="M401.9,373.81h3.31l5.49,14.67h-3.35l-1.11-3.27h-5.49l-1.15,3.27h-3.27Zm-.3,9h3.8l-1.85-5.39h0Z" transform="translate(-15.32 -202.35)"/><path class="cls-2" d="M414.17,383.61c0,2,1.53,2.71,3.25,2.71,1.13,0,2.86-.32,2.86-1.82s-2.2-1.86-4.36-2.43-4.37-1.42-4.37-4.17c0-3,2.83-4.44,5.48-4.44,3.07,0,5.88,1.33,5.88,4.73h-3.12c-.1-1.77-1.36-2.23-2.9-2.23-1,0-2.22.44-2.22,1.67s.7,1.27,4.38,2.22c1.07.27,4.36.95,4.36,4.27,0,2.7-2.12,4.71-6.11,4.71-3.25,0-6.29-1.6-6.25-5.22Z" transform="translate(-15.32 -202.35)"/><path class="cls-2" d="M434.83,382.77l-5.4-9h3.64l3.43,5.79,3.41-5.79h3.6l-5.45,9v5.63h-3.23Z" transform="translate(-15.32 -202.35)"/><path class="cls-2" d="M452.66,383.61c0,2,1.52,2.71,3.25,2.71,1.13,0,2.85-.32,2.85-1.82s-2.2-1.86-4.36-2.43S450,380.65,450,377.9c0-3,2.83-4.44,5.49-4.44,3.06,0,5.87,1.33,5.87,4.73h-3.12c-.1-1.77-1.36-2.23-2.9-2.23-1,0-2.22.44-2.22,1.67s.7,1.27,4.38,2.22c1.07.27,4.36.95,4.36,4.27,0,2.7-2.12,4.71-6.11,4.71-3.25,0-6.29-1.6-6.25-5.22Z" transform="translate(-15.32 -202.35)"/><path class="cls-2" d="M470.38,373.46c4.54,0,7.21,3.39,7.21,7.75s-2.67,7.62-7.21,7.62-7.22-3.39-7.22-7.62S465.84,373.46,470.38,373.46Zm0,12.66c2.9,0,4-2.47,4-4.91s-1.09-5-4-5-4,2.47-4,5S467.48,386.12,470.38,386.12Z" transform="translate(-15.32 -202.35)"/><path class="cls-2" d="M489.58,378.74a3.18,3.18,0,0,0-3.21-2.57c-2.9,0-4,2.47-4,5s1.09,4.91,4,4.91c2,0,3.08-1.36,3.33-3.29h3.13a6.2,6.2,0,0,1-6.46,6c-4.54,0-7.22-3.39-7.22-7.62s2.68-7.75,7.22-7.75c3.23,0,5.94,1.89,6.33,5.28Z" transform="translate(-15.32 -202.35)"/><path class="cls-2" d="M495,373.81h3.22v14.67H495Z" transform="translate(-15.32 -202.35)"/><path class="cls-2" d="M505.1,373.81h3.31l5.49,14.67h-3.36l-1.11-3.27H504l-1.16,3.27h-3.26Zm-.31,9h3.8l-1.85-5.39h0Z" transform="translate(-15.32 -202.35)"/><path class="cls-2" d="M515.17,373.81h3.23v12h7.15v2.71H515.17Z" transform="translate(-15.32 -202.35)"/><path class="cls-2" d="M527.36,373.81h11v2.71h-7.75v3.14h7.11v2.51h-7.11v3.6h7.91v2.71H527.36Z" transform="translate(-15.32 -202.35)"/><path class="cls-2" d="M542.88,383.61c0,2,1.52,2.71,3.25,2.71,1.13,0,2.85-.32,2.85-1.82s-2.2-1.86-4.35-2.43-4.38-1.42-4.38-4.17c0-3,2.84-4.44,5.49-4.44,3.06,0,5.88,1.33,5.88,4.73h-3.13c-.1-1.77-1.35-2.23-2.9-2.23-1,0-2.22.44-2.22,1.67s.7,1.27,4.38,2.22c1.07.27,4.36.95,4.36,4.27,0,2.7-2.12,4.71-6.1,4.71-3.25,0-6.3-1.6-6.25-5.22Z" transform="translate(-15.32 -202.35)"/><path class="cls-2" d="M26.87,351.79c-.86.43-1.23.95-1,1.83a1.48,1.48,0,0,0,1.81,1.1Z" transform="translate(-15.32 -202.35)"/><path class="cls-2" d="M46.1,391.5c-1.47,1.2-2,2.47-.7,4.06l.93,1.15L50.92,393l-1.16-1.43C49,390.62,47.72,390.2,46.1,391.5Z" transform="translate(-15.32 -202.35)"/><path class="cls-2" d="M52.36,389.59A106.59,106.59,0,0,1,30,343l-6.12,1.47-6.1,1.47a119.29,119.29,0,0,0,34.56,62,115.69,115.69,0,0,0,10.91,9.23l6.78-10.6A108.1,108.1,0,0,1,52.36,389.59ZM33.8,360l-2.46.88.88,2.46-1.32.48L30,361.38l-2.46.88-.48-1.32,2.47-.89-.89-2.46,1.33-.48.88,2.46,2.47-.88Zm-9.29-6.08c-.62-2.23.95-3.83,3-4.26l1.32,4.72A1.54,1.54,0,0,0,30,352.32a1.52,1.52,0,0,0-1.25-1.17l-.44-1.59A3.06,3.06,0,0,1,31.41,352a3.32,3.32,0,0,1-2.5,4.31A3.42,3.42,0,0,1,24.51,353.94ZM27.27,369l-.72-1.73,1.42-.59.72,1.72Zm1.67-2.73,6.27-2.64.73,1.72L29.66,368Zm3.83,2,1.27-.61,1.14,2.36,2.35-1.13.62,1.26-2.36,1.14,1.14,2.36-1.27.61-1.14-2.36-2.36,1.14-.61-1.27,2.36-1.14Zm-1.13,9.89,1.5-.87,2.49,4.29,1.74-1-2.28-3.93,1.39-.81,2.28,3.94,2-1.16-2.54-4.38,1.5-.87,3.58,6.17-8.13,4.71ZM40,386.65l2.15-1.48L40.7,383l1.17-.79,1.48,2.16,2.15-1.49.8,1.17-2.16,1.48,1.48,2.16-1.16.79L43,386.33l-2.16,1.48Zm6.25,12.75-2.55-3.14c-1.54-1.89-1.5-4.27.92-6.24,2.11-1.71,4.57-1.9,6.37.32l2.55,3.15ZM51.49,401l1.9-1.81-1.81-1.89,1-1,1.81,1.89,1.89-1.8,1,1-1.89,1.81,1.8,1.89-1,1-1.81-1.89L52.47,402Zm3.7,7.54-1.51-1.42,6.44-6.84,1.51,1.42Z" transform="translate(-15.32 -202.35)"/></svg>