<svg id="Capa_1" data-name="Capa 1" xmlns="http://www.w3.org/2000/svg" viewBox="0 0 564.48 564.2"><defs><style>.cls-1{fill:#fff;}.cls-2{fill:none;}.cls-3{fill:#a46022;}</style></defs><path class="cls-1" d="M304,37.08c157.5.31,283.38,128.43,282.17,284.44-1.2,154-126.92,280.26-283.25,279.76C147.14,600.78,21,473.74,21.68,317.85,22.37,164.39,146.82,37.37,304,37.08ZM571.84,319.13c0-147.29-119.69-267-266.85-267.33-147.78-.33-267.65,119-268.37,266-.73,147.82,119.06,268.46,267.54,268.72C451.44,586.76,571.83,466.75,571.84,319.13Z" transform="translate(-21.68 -37.08)"/><path class="cls-1" d="M332.65,332a12.73,12.73,0,0,0,1.08,1.5c5.29,5.48,4,13.75-1.06,19.08-4.08,4.25-9.12,7.14-14,10.24-7,4.39-14,8.6-20.48,13.74a5.35,5.35,0,0,0-.67.75,18.42,18.42,0,0,0-7.2,8.57c-1,2.61-1.15,5.23.57,7.68,1.65,3.75,4.42,6.69,7.18,9.56,5.5,5.73,11.19,11.27,16.76,16.93a42.12,42.12,0,0,1,4.73,5.76c3,4.27,4,8.88,2.47,13.94q-1.29,2.58-2.56,5.16c-2.48-1.14-2.55-4-4.12-5.78a7.61,7.61,0,0,0-.37-5.83c-1.62-6.06-6.36-9.65-10.73-13.52-.58-1.33-1.85-2-2.81-3-4.63-4.69-10.37-8.21-14.3-13.66-2.84-3.94-5.89-7.72-6.74-12.69a1.9,1.9,0,0,0,1.39-2.32c-.24-1.83-.31-3.68-.45-5.52a51,51,0,0,1,8.38-10.85l.32-.48,0,0,11.67-8.7a78,78,0,0,0,9.75-7.09c.3-.05.56-.13.64-.47h-.11a45.61,45.61,0,0,0,11.58-8.5c1.88-2,1.4-4.69-.59-6.67,0-.31-.05-.63-.5-.58l0,0c-.24-1.46-1.53-2.05-2.48-2.86-4.78-4.08-10.56-6.23-16.34-8.38-7.83-2.93-15.68-5.82-23.49-8.81a41.51,41.51,0,0,1-15.08-9.69c-8.52-8.71-7.09-17.65.93-25.86a6.92,6.92,0,0,0,2-2.81,7.23,7.23,0,0,1,3.22-3.95,22.62,22.62,0,0,1,15.88-3.35,8.19,8.19,0,0,1,6.11,4.53c.28.54.68,1.31.49,1.74-.65,1.5.37,3.28-1.39,4.7A36.35,36.35,0,0,1,280,291.32a3.94,3.94,0,0,1-1.64.09,3.72,3.72,0,0,0-4,2,4.25,4.25,0,0,0,.05,4.54,13,13,0,0,0,4.11,4,129.77,129.77,0,0,0,22,12.81c8,3.59,16,7.31,23.64,11.6C327.18,328,329.84,330.12,332.65,332Zm-48.13-55.16c-.69.16-1.9-.07-1.9,1.16,0,.89,1,1,1.76,1s2.08,0,2.16-1S285.49,276.94,284.52,276.84Z" transform="translate(-21.68 -37.08)"/><path class="cls-1" d="M474.15,227.36c-14.63-6.75-29.66-12.57-44.59-18.6C412,201.65,394.4,194.62,376.65,188a71.8,71.8,0,0,0-12.52-3.65c-6-1.09-11,1.11-15.58,4.69s-7.66,8.67-10.45,13.79c-2.51,4.61-5.57,8.67-10.13,11.57-2.7,1.71-5.63,2.18-8.62,2.64-2.11.32-4.26.32-6.4.47-.32-2-.09-3.31,2.5-3.13a36.32,36.32,0,0,0,4.93-.51c2.5-.19,4-1.64,5.11-3.72A27.17,27.17,0,0,0,328.27,199c.33-5,.94-9.91,2.92-14.56,3.44-8.12,9.69-12.21,18.36-13.15,12.82-1.38,23.87,3.3,34.54,9.56a477.59,477.59,0,0,0,85.44,39.3,157.55,157.55,0,0,0,15.41,4.11c1,.24,2.77.37,2.74,1.43,0,1.23-1.76,1-2.78,1.09A54.49,54.49,0,0,1,474.15,227.36Z" transform="translate(-21.68 -37.08)"/><path class="cls-1" d="M297.46,218.31a42.81,42.81,0,0,1-9.46-.9c-5.52-1.1-9.62-4.46-12.69-9-2.52-3.72-4.63-7.71-7-11.52a30.58,30.58,0,0,0-9.84-9.36c-5.78-3.7-11.75-2.82-17.78-.94-11.69,3.65-23,8.39-34.35,12.9-19.41,7.71-38.76,15.58-58.09,23.47-3.94,1.61-8,3.06-11.65,5.29a59.7,59.7,0,0,1-11.79-.73c-.79-.14-2,0-2.08-.91,0-1,1.28-1.05,2.08-1.27,4.86-1.34,9.81-2.35,14.63-3.87a345.76,345.76,0,0,0,36.52-14.22c13.46-6,26.81-12.27,39.75-19.37,7.15-3.92,13.95-8.49,21.45-11.79a45.62,45.62,0,0,1,25.72-3.65c9.51,1.44,15,7.35,17.61,16.3,1.41,4.76,1.41,9.7,2.06,14.56a24.13,24.13,0,0,0,2.28,7.5,6.65,6.65,0,0,0,5.59,4.05c1.44.15,2.88.35,4.33.44C297.56,215.48,297.56,215.45,297.46,218.31Z" transform="translate(-21.68 -37.08)"/><path class="cls-2" d="M330,258.8l.15.13.07-.12-.11-.13Z" transform="translate(-21.68 -37.08)"/><path class="cls-2" d="M330.45,259.73s.07.08.11.13l.13-.26-.13-.14A1,1,0,0,0,330.45,259.73Z" transform="translate(-21.68 -37.08)"/><path class="cls-2" d="M358.69,240.89s.07,0,.1.05l-.13-.15A.38.38,0,0,0,358.69,240.89Z" transform="translate(-21.68 -37.08)"/><path class="cls-2" d="M328,214.38c4.56-2.9,7.62-7,10.13-11.57,2.79-5.12,5.71-10.12,10.45-13.79.43-.33.86-.64,1.29-1l.26-.18c.42-.29.84-.57,1.27-.83l.25-.15c.43-.26.85-.5,1.29-.73l.08,0c.44-.23.9-.44,1.35-.64l.29-.12c.45-.19.9-.35,1.36-.5l.25-.08c.45-.14.91-.26,1.36-.36l.14,0c.48-.1,1-.17,1.47-.23l.31,0c.49,0,1-.07,1.5-.08h.3c.35,0,.7,0,1.05.05l.38,0a13.44,13.44,0,0,1,1.38.19A71.8,71.8,0,0,1,376.65,188q13.32,5,26.53,10.21t26.38,10.57c5.6,2.26,11.21,4.49,16.81,6.76s11.19,4.55,16.74,6.93q5.55,2.38,11,4.91c.75,0,1.5.07,2.25.07a63.68,63.68,0,0,0,8.5-.7c1-.13,2.74.14,2.78-1.09,0-1.06-1.71-1.19-2.74-1.43a157.55,157.55,0,0,1-15.41-4.11,477.59,477.59,0,0,1-85.44-39.3c-9.4-5.51-19.09-9.8-30-9.8a43.49,43.49,0,0,0-4.52.24c-8.67.94-14.92,5-18.36,13.15-2,4.65-2.59,9.57-2.92,14.56a27.17,27.17,0,0,1-2.78,11.18c-1.11,2.08-2.61,3.53-5.11,3.72-1.48.11-3,.53-4.45.53l-.48,0H315c-2.18,0-2.36,1.3-2.05,3.14,2.13-.15,4.28-.15,6.39-.47C322.34,216.56,325.27,216.09,328,214.38Z" transform="translate(-21.68 -37.08)"/><path class="cls-2" d="M206.32,199.5c11.37-4.51,22.66-9.25,34.35-12.9l1.13-.34.4-.11.73-.2.37-.09.75-.19.38-.08c.24-.05.49-.11.74-.15l.37-.07.75-.13.41-.05.7-.09.47,0,.65-.05h.5l.58,0h0l.6,0,.51,0q.31,0,.63.06l.48,0,.65.11.46.07.66.16.45.11c.23.06.47.14.7.22l.4.13.74.29.36.15c.27.12.55.26.82.41l.27.13c.37.2.73.41,1.09.64a30.58,30.58,0,0,1,9.84,9.36c2.39,3.81,4.5,7.8,7,11.52,3.07,4.53,7.17,7.89,12.69,9,.74.14,1.48.28,2.23.39l.73.1,1.53.2.88.07c.46,0,.92.08,1.39.1.31,0,.63,0,.94,0,.59,0,1.17,0,1.76,0,.1-2.86.1-2.83-2.73-3-1.45-.09-2.89-.29-4.33-.44a6.65,6.65,0,0,1-5.59-4.05,24.13,24.13,0,0,1-2.28-7.5c-.65-4.86-.65-9.8-2.06-14.56-2.64-8.95-8.1-14.86-17.61-16.3a43.81,43.81,0,0,0-6.71-.52,46.82,46.82,0,0,0-19,4.17c-7.5,3.3-14.3,7.87-21.45,11.79-12.94,7.1-26.29,13.36-39.75,19.37a345.76,345.76,0,0,1-36.52,14.22c-4.82,1.52-9.77,2.53-14.63,3.87-.8.22-2.13.23-2.08,1.27,0,.87,1.29.77,2.08.91a57.56,57.56,0,0,0,9.72.76q1,0,2.07,0c3.67-2.23,7.71-3.68,11.65-5.29C167.56,215.08,186.91,207.21,206.32,199.5Z" transform="translate(-21.68 -37.08)"/><path class="cls-2" d="M236.1,233.72c-.2.07-.23.2-.13.35l.31-.29C236.22,233.76,236.15,233.71,236.1,233.72Z" transform="translate(-21.68 -37.08)"/><path class="cls-2" d="M249.58,244.21l-.24.23.29-.06Z" transform="translate(-21.68 -37.08)"/><path class="cls-2" d="M376.79,216.27s-.09.08-.14.12l.59.34.44.17-.27-.34Z" transform="translate(-21.68 -37.08)"/><path class="cls-2" d="M229.41,197.27c.08,0,.16.14.25.14s.15-.1.23-.16a2.25,2.25,0,0,0-.35-.09S229.45,197.23,229.41,197.27Z" transform="translate(-21.68 -37.08)"/><path class="cls-2" d="M248.34,246l.37-.41.33-.45c.18-.17.42-.32.22-.6a.38.38,0,0,0-.43.37l-.44.39-.44.4c-.31.2-.83.46-.42.82l.06,0,.28-.05-.09.11C248,246.55,248.15,246.13,248.34,246Z" transform="translate(-21.68 -37.08)"/><path class="cls-2" d="M379.21,217.51s-.1.08-.15.12l.22.14.07-.12C379.3,217.6,379.26,217.51,379.21,217.51Z" transform="translate(-21.68 -37.08)"/><path class="cls-2" d="M378.38,217.1s-.09.07-.13.11l.19.13.07-.11S378.43,217.11,378.38,217.1Z" transform="translate(-21.68 -37.08)"/><path class="cls-1" d="M287.61,219.37c-5.59-1.12-10.29-4.42-13.95-9.83-1.54-2.27-2.93-4.64-4.28-6.94-.9-1.53-1.83-3.12-2.78-4.63a28.55,28.55,0,0,0-9.22-8.74A14.05,14.05,0,0,0,249.6,187a27.71,27.71,0,0,0-8.33,1.53c-9.65,3-19.21,6.84-28.45,10.55l-5.76,2.3c-20.09,8-39.78,16-58.07,23.46-.71.3-1.43.58-2.15.87-2.15.86-4.21,1.7-6.2,2.66,4.68.05,9.35-.06,14-.22a7,7,0,0,0,2.6-.62c18.18-7.95,36.52-15.53,54.83-23.16,5.53-2.31,11.07-4.59,16.6-6.88a9.63,9.63,0,0,1-2.77,1.7c-22.69,10.4-45.39,20.79-67.71,32a22.26,22.26,0,0,0-6.13,4.57c-1.85,1.93-1.58,2.83.93,3.56a11.81,11.81,0,0,0,1.21.27,96,96,0,0,0,22.78,1c2.6-.16,5.29,0,7.77-1,13.75-6,27.58-11.8,41-18.58.25-.12.61,0,1,0a2.38,2.38,0,0,1-1.29,1.15c-11.93,6.59-23.91,13.06-36.38,18.6a31.43,31.43,0,0,0-9,5.95c-.94.91-1.94,2-1.43,3.44s1.86,1.52,3,1.9a4.21,4.21,0,0,0,.62.09c6.24,1,12.42.2,18.61-.61a38.69,38.69,0,0,0,17.27-6.5c5.18-3.57,10.64-6.74,16-10,.52-.32.95-1,1.74-.74v0h0c-.1-.15-.07-.28.13-.35s.12,0,.18.06l-.31.29,0,0H236a7.33,7.33,0,0,1-.83.84c-6.34,4.82-12.72,9.58-19.36,14a14.63,14.63,0,0,0-4.45,4.55c-1.14,1.84-2.5,3.82-1.23,6s3.88,2.23,6.16,1.85C227,259.5,237,255.94,245,248.18a4.36,4.36,0,0,1,2.57-1.66l-.06,0c-.41-.36.11-.62.42-.82l.44-.4.44-.39a.38.38,0,0,1,.43-.37s0,0,0,0l.1,0,.24-.23,0,.17-.29.06-.06.05h0c.2.28,0,.43-.22.6l-.33.45-.37.41c-.19.17-.32.59-.56.62-2.24,2.77-4.55,4.89-6.72,7.13a21.94,21.94,0,0,0-5.51,9.84c-.85,3.3.56,5,4,5.12a19,19,0,0,0,5.94-.78c6.66-1.83,12.48-4.85,16.19-11a5.82,5.82,0,0,1,1.93-2.37c.42.66-.08,1.11-.29,1.57a49.3,49.3,0,0,1-4,7c-2.47,3.61-.69,7.73,3.61,8.49a8,8,0,0,0,2.88.05c4.81-.92,8.43-3.68,11.38-7.4,1-1.23,1.76-2.59,2.62-3.89a19.82,19.82,0,0,1-1.89,5.29c-.92,1.83-1.11,3.64.2,5.26s3.13,1.23,4.82.73c7.07-2.12,11.74-7,15.24-13.26a2.88,2.88,0,0,0,.22-1.41q-.42-18.31-.87-36.63h-.92A45.93,45.93,0,0,1,287.61,219.37Zm-58-22c-.09,0-.17-.09-.25-.14s.09-.11.13-.11a2.25,2.25,0,0,1,.35.09C229.81,197.31,229.73,197.41,229.66,197.41Z" transform="translate(-21.68 -37.08)"/><path class="cls-1" d="M428.81,210.61c-16.72-6.77-34.71-14-52.86-20.76a71.88,71.88,0,0,0-12.18-3.56,15.32,15.32,0,0,0-2.67-.24c-3.72,0-7.31,1.45-11.32,4.55-4.4,3.41-7.2,8.17-9.92,13.16-3.08,5.67-6.52,9.58-10.81,12.3-3.11,2-6.45,2.48-9.4,2.93a43.4,43.4,0,0,1-4.62.39l-1.94.1-.18,0q-.45,18.19-.89,36.4a4,4,0,0,0,.55,2.17,28.8,28.8,0,0,0,10.25,10.66,15.1,15.1,0,0,0,6.58,2.34,3.3,3.3,0,0,0,3.81-3.21,5.76,5.76,0,0,0-.71-3.19,11.86,11.86,0,0,1-1.56-4.37c1,1.05,1.6,2.29,2.5,3.3,3.41,3.87,7.24,7.11,12.78,7.17,2.15,0,4.28-.48,5.28-2.61a6,6,0,0,0-.68-6.45,29.37,29.37,0,0,1-4.32-8.45c1.65,1.86,3.05,3.88,4.65,5.75,5.26,6.14,12.27,8.46,20.06,8.71,3.06.11,4.43-1.83,3.72-4.78a21.5,21.5,0,0,0-5.66-10.21,98.28,98.28,0,0,1-7.5-8,.63.63,0,0,1-.28-.2,4.77,4.77,0,0,1-1.71-2c-.12-.16-.24-.32-.37-.47s-.23-.22-.22-.24c.19-.26.26,0,.37.1l.47.36a2.5,2.5,0,0,1,1.51,1.58c.17.19.34.37.52.55,1.09,1,2.17,1.91,3.29,2.83,2.45,2,4.6,4.43,7.45,5.92a78.58,78.58,0,0,0,12.59,5.3c3.82,1.23,7.68,2.39,11.78,1.9,3.11-.36,4.4-2.4,3.22-5.28a14.07,14.07,0,0,0-5.12-6.62c-6.31-4.25-12.55-8.59-18.47-13.38l-1-.68c-.18-.3-.94-.07-.69-.61.1-.23.75-.16,1,.27l1,.59c5.59,3.45,11.3,6.72,16.73,10.39a33.08,33.08,0,0,0,14,5.22c3.36.48,6.72,1,10.09,1.2,3.72.26,7.48.43,11.14-.58,3.13-.86,3.62-2.54,1.42-4.9a25.23,25.23,0,0,0-8.29-5.8c-13.28-5.88-26-12.83-38.73-19.8a11.72,11.72,0,0,1-4.11-2.55,11.84,11.84,0,0,1,4.56,2c13.66,6.51,27.48,12.68,41.4,18.62a8.8,8.8,0,0,0,2.57.73,107.63,107.63,0,0,0,17.21.58c4.21-.22,8.45-.29,12.55-1.49,2.08-.61,2.37-1.45.95-3.06a20.53,20.53,0,0,0-6.37-4.91c-21.68-10.88-43.74-21-65.78-31.1L381.7,197a1.27,1.27,0,0,1,1.06.08c23.38,9.62,46.74,19.3,69.94,29.36a7.11,7.11,0,0,0,2.35.75c4.82.3,9.63.39,14.45.32-10.59-4.75-21.47-9.14-32.05-13.39Zm-98.62,48.32-.15-.13.11-.12.11.13Zm.37.93c0-.05-.12-.1-.11-.13a1,1,0,0,1,.11-.27l.13.14Zm28.13-19a.38.38,0,0,1,0-.1l0,0-.15-.09.17.08,0,0,.13.15S358.71,240.92,358.69,240.89Zm18.55-24.16-.59-.34c.05,0,.11-.13.14-.12l.62.29.27.34Zm1.2.61-.19-.13s.09-.11.13-.11.09.08.13.13Zm.84.43-.22-.14c.05,0,.1-.12.15-.12s.09.09.14.14Z" transform="translate(-21.68 -37.08)"/><path class="cls-1" d="M490.23,173.91c-4.52,3.31-9.07,6.58-13.53,10-1.11.84-1.59.71-2.37-.37-2.14-2.95-2.19-2.91.76-5.09,8.68-6.41,17.38-12.79,26-19.26,1.18-.88,1.72-.77,2.54.41,1.9,2.76,2,2.71-.15,5.43q-5.44,7-10.91,14.09c.94.39,1.69-.12,2.44-.4,5.24-2,10.49-3.89,15.68-6,1.53-.61,2.53-.65,3.34,1a19.13,19.13,0,0,0,1.78,2.46l-20.05,14.8c-3.06,2.26-6.14,4.49-9.16,6.81-.84.64-1.26.65-1.95-.24-2.47-3.15-2.49-3.1.79-5.54q5.93-4.38,11.81-8.8l.53-.49a.6.6,0,0,0-.88.11c-4.35,1.75-8.73,3.44-13,5.29-1.16.49-1.66.18-2.38-.69s-.3-1.53.31-2.26c2.94-3.57,5.84-7.17,8.76-10.77l.18-.44Z" transform="translate(-21.68 -37.08)"/><path class="cls-1" d="M108.51,452.39c-5,3.76-10,7.48-14.85,11.32-1.17.91-1.69.82-2.54-.35-2.18-3-2.24-3,.75-5.27q12.69-9.72,25.36-19.47c1-.78,1.54-.95,2.4.22,2,2.65,2,2.61.35,5.41l-9.88,16.33c1,.45,1.47-.44,2.06-.89,4.47-3.38,8.93-6.78,13.34-10.24,1-.77,1.54-1,2.42.2,2.35,3.1,2.41,3.05-.7,5.44-8.46,6.48-16.93,12.94-25.35,19.48-1.09.84-1.58.79-2.39-.31-1.94-2.64-2-2.59-.29-5.39q4.86-8,9.69-15.94c.34-.21.44-.56.2-.81S108.65,452.19,108.51,452.39Z" transform="translate(-21.68 -37.08)"/><path class="cls-1" d="M289.6,79c.29,6.77.53,13.35.9,19.92.08,1.47-.37,1.83-1.77,1.89-3.63.17-3.59.24-3.75-3.31-.47-10.72-.93-21.45-1.51-32.17-.1-1.81.45-2.09,2.1-2.2,2.1-.15,3.15.42,3.95,2.47,2.14,5.46,4.57,10.81,6.88,16.2.26.61.55,1.2.93,2,0-3,.07-5.74,0-8.44-.11-3.74-.31-7.48-.54-11.21-.06-1,.07-1.44,1.25-1.53,4.2-.34,4.21-.4,4.39,3.77.46,10.59.86,21.18,1.39,31.76.09,1.68-.42,2-2,2.1-2.18.18-3.21-.44-4-2.59-2.21-5.8-4.78-11.47-7.21-17.18A2.52,2.52,0,0,0,289.6,79Z" transform="translate(-21.68 -37.08)"/><path class="cls-1" d="M462.19,145.15c4.22-4.66,8.48-9.28,12.61-14,1.07-1.23,1.62-1.11,2.69-.09,2.56,2.43,2.61,2.37.25,5-7.17,8.06-14.37,16.1-21.49,24.21-1.07,1.22-1.59,1-2.74.12-1.86-1.39-2.07-2.66-1.16-4.8,2.34-5.45,4.37-11,6.51-16.57.21-.55.68-1.08.24-1.74-.75.16-1.06.84-1.51,1.33-3.83,4.27-7.69,8.53-11.46,12.86-.86,1-1.34,1.13-2.36.19-2.8-2.57-2.85-2.51-.27-5.41,7.08-8,14.2-15.89,21.23-23.89,1-1.17,1.53-1.22,2.82-.23,1.86,1.42,2.08,2.67,1.2,4.81-2.45,5.93-4.62,12-6.9,18-.09.22-.28.46,0,.63A2.91,2.91,0,0,0,462.19,145.15Z" transform="translate(-21.68 -37.08)"/><path class="cls-1" d="M517.57,461.17a3.22,3.22,0,0,1-.82,1.9c-2.53,3.29-5,6.6-7.58,9.87-1.51,1.93-2.64,2.1-4.56.63q-12.28-9.36-24.53-18.8c-2.05-1.58-2.14-2.6-.55-4.71q3.69-4.89,7.44-9.71c1.39-1.78,2.69-2,4.44-.65q12.36,9.44,24.69,18.93A3,3,0,0,1,517.57,461.17Zm-28.21-15.94c-1.26,1.62-2.41,3.27-3.72,4.77-.89,1-.62,1.51.34,2.24,5.36,4,10.65,8.16,16,12.2,1.59,1.2,3.21,3.57,4.79,3.21s2.5-2.91,3.8-4.43c.68-.81.67-1.27-.21-1.94C503.36,456,496.4,450.62,489.36,445.23Z" transform="translate(-21.68 -37.08)"/><path class="cls-1" d="M515.78,434.15l17.61,3.67c-.9,1.46-1.73,2.72-2.46,4a1.38,1.38,0,0,1-1.83.75c-5.25-1.2-10.53-2.3-15.8-3.43-.2-.05-.42-.05-.61-.11-3.1-.88-3.57-1.85-1.79-4.4,1.12-1.62,1.24-2.52-.75-3.51a67,67,0,0,1-6.71-4.12c-.91-.6-1.47-.74-2,.4a22.66,22.66,0,0,1-2.19,3.51c-.84,1.1-.42,1.57.58,2.18,8.19,5,16.33,10.13,24.54,15.12,1.45.89,1.88,1.48.78,3.06-2,2.89-1.91,3-4.92,1.11-9.1-5.64-18.19-11.32-27.33-16.91-1.23-.76-1.41-1.27-.6-2.5,2.31-3.52,4.47-7.15,6.7-10.73,1.75-2.79,2.66-3,5.53-1.23l10.22,6.34c3.18,2,3.32,2.52,1.54,5.79C516.12,433.41,516,433.67,515.78,434.15Z" transform="translate(-21.68 -37.08)"/><path class="cls-1" d="M496.73,152.32a3.08,3.08,0,0,1-1.25,2.29q-11.53,10.59-23.08,21.17c-1.69,1.54-3,1.49-4.47-.13q-4.19-4.47-8.28-9c-1.62-1.79-1.58-3,.21-4.61q11.44-10.54,22.92-21.05c1.8-1.64,3-1.58,4.63.15,2.77,3,5.52,6,8.27,9A3.22,3.22,0,0,1,496.73,152.32Zm-11.4-6.12c-.22.18-.4.29-.55.43l-19.42,17.8c-.44.4-.55.73-.09,1.21,1.53,1.59,2.78,3.8,4.64,4.59,1,.42,2.56-2.13,3.95-3.24.43-.35.82-.75,1.23-1.12,4.79-4.4,9.59-8.78,14.35-13.22.36-.34,1.48-.6.59-1.55-1.37-1.46-2.71-2.95-4.07-4.42A4.36,4.36,0,0,0,485.33,146.2Z" transform="translate(-21.68 -37.08)"/><path class="cls-1" d="M424.25,135.36a3.59,3.59,0,0,1,.89-2.06q9.08-12.53,18.16-25c1.52-2.09,2.59-2.25,4.7-.74q4.81,3.43,9.58,6.94c2.09,1.54,2.29,2.66.82,4.69q-9,12.45-18,24.86c-1.71,2.34-2.68,2.48-5,.82-3.15-2.26-6.28-4.55-9.42-6.82C425,137.35,424.18,136.65,424.25,135.36Zm6.28-.08c1.65,1.21,3.25,2.3,4.76,3.51,1,.79,1.52.82,2.34-.33,3.9-5.54,8-11,11.88-16.5,1.13-1.6,3.55-3.24,3-4.85s-3.13-2.51-4.76-3.78c-.66-.52-1-.39-1.45.24Q438.44,124.42,430.53,135.28Z" transform="translate(-21.68 -37.08)"/><path class="cls-1" d="M259.51,567.6c-3.09-.56-6.95-1.3-10.83-2-1.3-.21-.82-1-.69-1.66q2.4-13.35,4.82-26.71c.44-2.45,1-4.88,1.33-7.34.15-1,.41-1.3,1.43-1.1,3.65.74,7.36,1.26,11,2.12a6.21,6.21,0,0,1,4.94,7.48c-1.38,7.89-2.8,15.78-4.31,23.65C266.46,565.85,264,567.7,259.51,567.6Zm-.8-5.05c2.09.06,2.89-.78,3.4-3.59q1.63-9.08,3.29-18.16c.87-4.72.43-5.33-4.35-6.09a1.49,1.49,0,0,1-.21,0c-1.31-.44-1.85-.15-2.11,1.4-1.23,7.29-2.63,14.55-4,21.83-.77,4.18-.77,4.18,3.53,4.6Z" transform="translate(-21.68 -37.08)"/><path class="cls-1" d="M283.59,552c.23-5.6.52-11.2.66-16.81,0-1.56.49-2,2.06-1.84,3.24.28,6.5.29,9.75.5,4.27.28,6.82,2.93,6.67,7.15-.28,8-.67,15.92-1.1,23.87-.18,3.46-2.45,6-5.89,6.1-4,.15-8-.22-12-.32-1.12,0-.93-.73-.9-1.42q.38-8.61.73-17.23Zm12.56.09h.41c.14-2.56.25-5.12.4-7.68.32-5.42-.19-5.92-5.62-6-1.18,0-1.57.29-1.61,1.46q-.48,12.45-1.06,24.89c-.05,1,.26,1.38,1.23,1.35.69,0,1.38.11,2.08.14,3,.11,4-.71,4.14-3.79C296.23,559,296.15,555.51,296.15,552.05Z" transform="translate(-21.68 -37.08)"/><path class="cls-1" d="M228.08,525.47a10.37,10.37,0,0,1-1,3.8q-3.89,9.91-7.81,19.81c-2,5.16-5.19,6.55-10.32,4.54-2.89-1.12-5.75-2.35-8.67-3.39-1.1-.4-1.33-.78-.89-1.89q6.41-16,12.69-32.11c.49-1.24,1-1.32,2.08-.85,3.17,1.35,6.41,2.53,9.59,3.86A6.52,6.52,0,0,1,228.08,525.47Zm-5.84.41a2.67,2.67,0,0,0-1.53-2.61c-1-.49-2.06-.8-3-1.31-1.2-.64-1.68-.28-2.15.94C212.81,530,210,537,207.22,544.05c-1.26,3.22-1.26,3.22,1.9,4.41s4,.74,5.24-2.28q3.64-9.21,7.28-18.44C221.92,527,222.11,526.3,222.24,525.88Z" transform="translate(-21.68 -37.08)"/><path class="cls-1" d="M181.69,499.3a4.22,4.22,0,0,1-.89,2.07c-2.57,3.68-5.12,7.39-7.7,11.07-1.55,2.22-2.61,2.52-4.81,1-1.54-1.08-1.8-.51-2.16.93-1.19,4.76-2.52,9.48-3.71,14.24-.28,1.15-.59,1.12-1.47.55-3.75-2.39-3.76-2.36-2.61-6.58q1.66-6.09,3.31-12.2c.11-.4.2-.81.34-1.19,1.13-3.1,2-3.46,4.48-1.45,1.74,1.4,2.63,1.08,3.7-.71,1.39-2.31,3-4.48,4.59-6.66.54-.74.51-1.2-.28-1.62a1,1,0,0,1-.17-.12c-1.55-1.05-3.13-2.92-4.63-2.86-1.12.05-2.16,2.59-3.19,4.05-4.83,6.92-9.67,13.83-14.43,20.79-.85,1.24-1.37,1.5-2.67.53-3-2.21-3-2.13-.88-5.24,6-8.69,12.1-17.36,18.08-26.09.91-1.34,1.53-1.46,2.84-.5,3.5,2.59,7.12,5,10.7,7.51A2.91,2.91,0,0,1,181.69,499.3Z" transform="translate(-21.68 -37.08)"/><path class="cls-1" d="M186.79,92.15a6,6,0,0,1,5.48,3.16c4.08,7.2,8.16,14.41,12.06,21.71,1.78,3.33.77,6.64-2.46,8.63s-6.38,3.56-9.54,5.4c-.88.52-1.17.18-1.56-.52q-8.53-15.39-17.1-30.76c-.36-.66-.62-1.13.3-1.61,3.29-1.75,6.53-3.59,9.81-5.36A6.22,6.22,0,0,1,186.79,92.15Zm12.37,27.78a5.61,5.61,0,0,0-.92-2.4l-8.75-15.75c-2.72-4.89-3.08-5-7.89-2.24-1.15.64-1.14,1.12-.55,2.15,3.77,6.67,7.47,13.38,11.19,20.08,1.59,2.85,1.59,2.86,4.39,1.25C197.83,122.33,199.11,121.69,199.16,119.93Z" transform="translate(-21.68 -37.08)"/><path class="cls-1" d="M475.25,458.43a6.88,6.88,0,0,1,4.84,2.06c5.65,5.3,11.32,10.58,16.94,15.91,3.2,3,3.36,6.65.44,9.9-2.27,2.52-4.67,4.91-6.94,7.43-.85.95-1.31.85-2.21,0Q475.92,482,463.38,470.3c-.9-.85-1-1.31-.07-2.24,2.4-2.39,4.66-4.92,7-7.37A6.65,6.65,0,0,1,475.25,458.43Zm-.48,5.78c-1.88.17-2.63,1.85-3.89,2.88s-1.07,1.65.05,2.68c5.39,5,10.68,10,16,15,3,2.84,3.06,2.82,5.66-.41,1.49-1.83,1.45-3.06-.26-4.67q-7.59-7.19-15.23-14.33A3.52,3.52,0,0,0,474.77,464.21Z" transform="translate(-21.68 -37.08)"/><path class="cls-1" d="M156.7,111.66a6.49,6.49,0,0,1,5,2.78c4.83,6.32,9.69,12.63,14.44,19,2.57,3.45,2.15,6.85-1.13,9.53-2.68,2.18-5.53,4.16-8.23,6.32-.88.71-1.25.37-1.78-.33q-10.62-14-21.27-27.92c-.62-.81-.49-1.21.3-1.79,2.73-2,5.4-4.09,8.11-6.13A7.16,7.16,0,0,1,156.7,111.66Zm15.24,26.27a4.8,4.8,0,0,0-1.25-2.64q-6.09-8-12.19-16c-1.92-2.51-3-2.64-5.49-.74a8.56,8.56,0,0,1-1.16.87c-1.57.79-1.26,1.61-.33,2.81,4.74,6.12,9.41,12.3,14.09,18.47,1.62,2.13,1.62,2.15,3.79.5C170.55,140.31,171.82,139.52,171.94,137.93Z" transform="translate(-21.68 -37.08)"/><path class="cls-1" d="M116.53,434.17c0,.51-.46.62-.79.82-9.41,5.81-18.81,11.64-28.23,17.41-2,1.2-3.1.89-4.35-1.08q-3.31-5.25-6.52-10.58c-1.21-2-1-3.13,1-4.36,9.33-5.8,18.69-11.54,28-17.34.81-.5,1.22-.49,1.79.36,2.51,3.66,2.54,3.64-1.17,5.94-7.59,4.68-15.15,9.4-22.77,14-1.19.73-1.57,1.25-.62,2.45,1.19,1.49,1.66,4.22,3.26,4.5,1.39.24,3.16-1.66,4.75-2.64l19.58-12.08c3.25-2,3.25-2,5.28,1.33Z" transform="translate(-21.68 -37.08)"/><path class="cls-1" d="M124.72,194.69a3.54,3.54,0,0,1-.7,1.78c-2.16,3.37-4.31,6.76-6.5,10.12-1.34,2-2.46,2.3-4.51,1-9.27-5.92-18.5-11.88-27.79-17.77-1-.67-1-1.13-.4-2.06,2.19-3.45,2.15-3.47,5.62-1.24,7.57,4.85,15.16,9.66,22.68,14.59,1.32.86,1.93.73,2.63-.62.81-1.58,2.71-3.18,2.51-4.53s-2.68-2.1-4.18-3.06c-7.2-4.65-14.4-9.31-21.65-13.88-1.17-.74-1.25-1.22-.5-2.35,2.15-3.25,2.09-3.29,5.36-1.19q12.66,8.11,25.31,16.25C123.65,192.4,124.78,193,124.72,194.69Z" transform="translate(-21.68 -37.08)"/><path class="cls-1" d="M517.3,264.6a2.61,2.61,0,0,1-2.67-2q-1.89-5.91-3.67-11.87a2.43,2.43,0,0,1,1.66-3.31c2.82-.94,5.68-1.74,8.5-2.69.75-.26,1,0,1.2.59.34,1.13.59,2.29,1,3.37.35.87.15,1.22-.71,1.45-1.6.44-3.16,1-4.77,1.42-1.3.31-1.46.89-1,2,.62,1.53.47,3.85,1.72,4.48,1,.53,2.92-.74,4.47-1.05a4.27,4.27,0,0,0,3.29-2.71c1.76-3.75,3.75-7.39,5.57-11.11a5,5,0,0,1,3.15-2.79c2.64-.81,5.27-1.67,7.92-2.43,2.32-.67,3.34-.12,4.09,2.19,1.18,3.68,2.31,7.38,3.45,11.08.53,1.72.06,3-1.73,3.63-2.55.85-5.14,1.62-7.7,2.43-.7.23-1,.12-1.38-.67-1.76-4.2-1.78-4.21,2.51-5.54,2.94-.9,2.94-.9,2-3.77-1.1-3.52-1.07-3.38-4.7-2.48a5.77,5.77,0,0,0-4.28,3.63c-1.58,3.52-3.46,6.92-5.15,10.39a5,5,0,0,1-3.35,2.83C523.62,262.6,520.46,263.62,517.3,264.6Z" transform="translate(-21.68 -37.08)"/><path class="cls-1" d="M200.63,510.34a4,4,0,0,1-.67,1.94c-.76,1.39-1.49,2.81-2.33,4.16-.64,1-1,3-1.94,2.93-1.45-.12-2.8-1.33-4.21-2.06-.49-.26-.48-.6-.24-1s.42-.72.62-1.08c2.75-4.93,2.73-4.89-2.61-7.24-.87-.38-1.07,0-1.39.54-.7,1.26-1.39,2.54-2.14,3.79a2.55,2.55,0,0,0-.19,2.33c1.37,4.21,2.58,8.46,3.95,12.65a5.23,5.23,0,0,1-.46,4.56c-1.4,2.38-2.7,4.82-4.08,7.21-1.27,2.21-2.41,2.57-4.58,1.38q-5-2.75-9.94-5.58c-2.1-1.21-2.41-2.35-1.27-4.46,1.25-2.31,2.61-4.56,3.83-6.88.43-.81.77-.88,1.58-.47,4.06,2,4.07,2,1.87,5.92-1.6,2.87-1.6,2.87,1.31,4.49s2.79,1.54,4.69-1.32a6.92,6.92,0,0,0,.76-6.93c-1.3-3.41-2.19-7-3.33-10.46a5,5,0,0,1,.47-4.36c1.36-2.33,2.62-4.71,4-7,1.18-2,2.2-2.32,4.29-1.19,3.4,1.83,6.77,3.74,10.14,5.64A3,3,0,0,1,200.63,510.34Z" transform="translate(-21.68 -37.08)"/><path class="cls-1" d="M372.63,71.89l5.47,1.67c2,.63,4.1,1.21,6.13,1.89s2.66,1.72,2.07,3.8c-.71,2.45-1.58,4.86-2.23,7.33-.29,1.08-.73,1-1.61.78-4.19-1.13-4.2-1.1-2.93-5.17a7.82,7.82,0,0,1,.44-1.37c.63-1.23.16-1.7-1.07-2-1.6-.36-3.49-1.66-4.64-1.16s-1.07,2.95-1.72,4.47a3.36,3.36,0,0,0,.36,3.28c2.14,3.71,4.14,7.5,6.27,11.22a5,5,0,0,1,.49,4.18c-.85,2.77-1.69,5.54-2.59,8.3-.79,2.45-1.75,3-4.22,2.24-3.57-1.06-7.13-2.17-10.68-3.3-2.22-.71-2.85-1.73-2.25-3.9.74-2.66,1.67-5.26,2.41-7.92.27-1,.65-.92,1.48-.7,4.3,1.12,4.3,1.09,3,5.29-1,3.31-1,3.31,2.25,4.31s2.94.88,4.17-2.22a7.31,7.31,0,0,0-.8-7.3c-1.94-3-3.48-6.28-5.26-9.4a4.73,4.73,0,0,1-.55-3.79c.83-2.85,1.74-5.67,2.63-8.51C369.66,72.64,370.39,71.72,372.63,71.89Z" transform="translate(-21.68 -37.08)"/><path class="cls-1" d="M390.4,517.1a2.37,2.37,0,0,1,2.55,1.51c1,2.56,2,5.15,3,7.72.17.46.36,1-.28,1.23-1.35.53-2.72,1-4.07,1.53-.47.18-.63-.13-.77-.43s-.35-.9-.54-1.35c-.63-1.52-.81-4.17-1.92-4.33-1.68-.23-3.57,1.11-5.39,1.75-.91.32-.64.85-.39,1.47.5,1.29,1,2.57,1.42,3.89a2.87,2.87,0,0,0,1.93,1.93c4.1,1.66,8.15,3.42,12.24,5.06a4.82,4.82,0,0,1,2.93,3c1,2.66,2,5.29,3,7.95s.52,3.57-1.94,4.51q-5.22,2-10.47,3.92c-2.43.89-3.42.44-4.36-1.92s-1.79-4.78-2.75-7.15c-.4-1-.17-1.41.82-1.81,3.91-1.56,3.89-1.6,5.39,2.37,1.27,3.37,1.27,3.37,4.67,2.1,3-1.13,2.83-1.08,1.93-4.22a7.45,7.45,0,0,0-5.36-5.54c-3.27-1-6.36-2.65-9.57-3.91a5.38,5.38,0,0,1-3.32-3.44c-.89-2.53-1.89-5-2.8-7.57-.57-1.57-.3-2.94,1.38-3.6,4-1.56,8-3,12-4.54A2.77,2.77,0,0,1,390.4,517.1Z" transform="translate(-21.68 -37.08)"/><path class="cls-1" d="M308.1,82.85c.39-6.6.69-11.85,1-17.1.15-2.52,1-3.33,3.53-3.2,3.88.2,7.74.42,11.61.66,2.24.14,3.15,1.07,3.08,3.28-.08,2.63-.3,5.25-.41,7.88,0,.91-.26,1.3-1.32,1.31-4.39,0-4.39.08-4.09-4.28.24-3.52.24-3.52-3.21-3.66-3.66-.16-3.73-.16-4,3.46-.49,7.6-.87,15.2-1.34,22.8-.06,1,.13,1.58,1.27,1.54.9,0,1.8.07,2.7.1,3.21.1,3.21.1,3.36-3.22,0-.14,0-.28,0-.41.17-4.24.17-4.21,4.49-3.88,1,.08,1.33.31,1.24,1.34-.23,2.76-.29,5.53-.55,8.29-.22,2.49-.95,3.07-3.5,3-3.73-.16-7.46-.37-11.2-.57-2.8-.15-3.56-1-3.43-3.73C307.63,91.45,307.91,86.48,308.1,82.85Z" transform="translate(-21.68 -37.08)"/><path class="cls-1" d="M253.14,103.39c.09,2-.59,2.83-1.88,3.2-4.11,1.19-8.21,2.43-12.34,3.52-1.92.51-2.93-.6-3.44-2.4-1.89-6.71-3.82-13.4-5.73-20.11-.91-3.18-1.82-6.37-2.7-9.56-.71-2.57-.17-3.62,2.34-4.34q5.58-1.62,11.17-3.12c2.18-.59,3.11-.12,3.79,2,.83,2.63,1.55,5.29,2.34,7.94.21.73.1,1.23-.74,1.36l-.2,0c-4.06,1.4-4.06,1.4-5.27-2.89-.87-3.09-.87-3.09-4-2.2-3.71,1.06-3.7,1.06-2.67,4.69,2,7,4,14.07,5.93,21.13.4,1.43.83,2.18,2.48,1.48s4.1-.41,4.66-1.71-.78-3.21-1.14-4.89c-.18-.81-1.17-2-.27-2.42a21.61,21.61,0,0,1,4.74-1.37c.06,0,.26.29.31.48C251.46,97.45,252.38,100.71,253.14,103.39Z" transform="translate(-21.68 -37.08)"/><path class="cls-1" d="M502.38,224.59a2.47,2.47,0,0,1-2.46-1.57c-1.95-3.65-3.9-7.31-5.82-11a2.65,2.65,0,0,1,1.24-4q14-7.43,28-14.81c1.92-1,3-.59,4.11,1.35q2.88,5.26,5.63,10.6c1,2,.69,3.06-1.21,4.15-2.41,1.36-4.87,2.6-7.3,3.91-.63.34-1.15.51-1.42-.37a1,1,0,0,0-.1-.18c-2.27-3.76-2.27-3.76,1.59-5.81,3-1.59,3-1.59,1.39-4.65-1.72-3.23-1.72-3.23-5.07-1.46-6.52,3.46-13,7-19.59,10.34-1.36.7-1.89,1.27-.91,2.66s1.28,3.92,2.64,4.22,3.11-1.17,4.5-2.14c1.87-1.3,2.73-.74,3.59,1.15,1.22,2.65,1.33,2.6-1.2,4l-5.67,3A3.87,3.87,0,0,1,502.38,224.59Z" transform="translate(-21.68 -37.08)"/><path class="cls-1" d="M419.26,133.13a3.52,3.52,0,0,1-1.92-.66c-3.29-1.9-6.58-3.8-9.84-5.74-2.17-1.29-2.51-2.46-1.26-4.62q7.78-13.44,15.65-26.84c1.2-2,2.43-2.36,4.49-1.18q5.13,2.93,10.19,6c1.89,1.14,2.18,2.22,1.12,4.17-1.33,2.42-2.8,4.76-4.12,7.18-.47.87-.86.77-1.59.39-3.92-2.07-3.93-2.05-1.73-5.82,1.73-3,1.73-3-1.19-4.69-3.17-1.85-3.17-1.85-5,1.3-3.82,6.56-7.61,13.14-11.49,19.68-.63,1.07-.65,1.58.56,2.15,1.62.76,3.37,2.65,4.64,2.33s2.1-2.7,2.83-4.32c.88-2,2-2.31,3.45-.82.74.77,3.11.42,2.07,2.46-1.32,2.58-2.86,5-4.35,7.53A2.57,2.57,0,0,1,419.26,133.13Z" transform="translate(-21.68 -37.08)"/><path class="cls-1" d="M81.76,196.05a15.53,15.53,0,0,1,1.69.64c1.68.81,3.35,1.64,5,2.54.94.53,2.74.86,2.64,1.65-.17,1.48-1.17,2.88-1.93,4.26-.4.73-1,.15-1.41-.08-1.48-.74-3-1.43-4.43-2.25-.86-.49-1.3-.46-1.73.5a33.61,33.61,0,0,1-2.08,4.05c-.63,1-.16,1.39.7,1.83q11.25,5.73,22.48,11.53c.84.44,1.3.43,1.73-.51.65-1.45,1.39-2.86,2.17-4.24.46-.81.22-1.16-.55-1.53-1.69-.8-3.31-1.71-5-2.52-.74-.36-1-.67-.59-1.55,1.78-4.07,1.75-4.09,5.69-2.07,1.66.84,3.34,1.65,5,2.55,1.9,1.05,2.3,2.18,1.35,4.11q-2.65,5.37-5.46,10.69c-1,1.9-2.19,2.32-4.11,1.34q-14-7.12-28-14.34c-2-1-2.34-2.16-1.39-4.09,1.81-3.65,3.71-7.25,5.58-10.87A2.73,2.73,0,0,1,81.76,196.05Z" transform="translate(-21.68 -37.08)"/><path class="cls-1" d="M429.11,539.66c0,.47-.35.44-.55.58-3.58,2.46-4.05,2.38-6.51-1.1-1.86-2.64-1.86-2.64-5.09-1.06-3.06,1.49-3.06,1.49-2.12,4.56,1.21,3.92,1.2,3.9-2.63,5.69-.85.39-1.29.5-1.58-.59Q406,530.34,401.26,513c-.16-.58-.31-1,.38-1.36,1.38-.64,2.75-1.29,4.09-2,.78-.42,1,.21,1.27.61q10.8,14.31,21.58,28.65C428.79,539.14,429,539.44,429.11,539.66Zm-20.83-20.23-.45.17.11.15.33-.37c-.5.67-.12,1.32.08,2,.89,3,1.79,5.94,2.68,8.91,1.42,4.72,1.42,4.72,5.84,2.38a1.37,1.37,0,0,0,.28-.26Q412.71,525.88,408.28,519.43Z" transform="translate(-21.68 -37.08)"/><path class="cls-1" d="M356.67,87.2c0,5.81,0,11.62,0,17.42,0,1.34-.08,1.93-1.76,1.52-3.7-.89-3.72-.77-3.49-4.63.19-3.26.19-3.26-3.06-4-3.55-.77-3.55-.77-4.73,2.43-1.42,3.86-1.89,4.06-5.86,2.69-1.41-.49-.37-1.28-.17-1.76,3.31-8.25,6.69-16.47,10.06-24.7C348.8,73.47,350,70.74,351,68c.35-.93.79-1.08,1.7-.92,4.58.8,4.54.78,4.48,5.42-.05,4.91,0,9.82,0,14.73ZM351.85,78c-1.49,4-3.22,8.61-4.94,13.23-.15.4-.6.91.26,1.08l3.86.8c.7.14.82-.31.82-.85Z" transform="translate(-21.68 -37.08)"/><path class="cls-1" d="M485,499.07c-3.82,3.92-3.85,4-7.81.59-1.21-1-2.12-1.59-3.36-.05-1,1.26-3.26,1.94-3.32,3.42-.05,1.31,1.55,2.65,2.3,4.05.35.66,1.48,1.32.75,2.12a23.17,23.17,0,0,1-3.62,3.06c-.34.24-.58-.46-.77-.78q-9.06-15.45-18.13-30.91c-.35-.61-.5-1,.16-1.56,1.08-.86,2.11-1.79,3.11-2.74a.91.91,0,0,1,1.41,0Q470.39,487.67,485,499.07Zm-25.65-13.33c2,3.25,4.09,6.49,6.12,9.74,2.14,3.42,2.1,3.39,5.14.58.84-.77.85-1.13,0-1.85-3.29-2.62-6.52-5.33-9.77-8C460.41,485.86,460,485.43,459.39,485.74Z" transform="translate(-21.68 -37.08)"/><path class="cls-1" d="M538.88,219.65c.51-.15.78.12,1,.54a1.52,1.52,0,0,0,.06.2c2.34,4.31,2.34,4.31-1.73,7-9,5.89-18.07,11.76-27.07,17.69-1.16.77-1.56.75-2.11-.62-1.42-3.61-1.5-3.57,1.73-5.54,2.95-1.79,2.95-1.79,1.65-4.93s-1.32-3.17-4.55-2.4c-3.87.91-3.83.89-5.32-2.74-.44-1.07-.38-1.51.87-1.76,6.78-1.36,13.53-2.8,20.3-4.2l14.4-3C538.35,219.81,538.62,219.72,538.88,219.65Zm-8,6.85a1.9,1.9,0,0,0-1.8-.09c-3.16.76-6.31,1.52-9.47,2.26-4,.93-3.9.89-2.29,4.58.46,1.06.79,1.17,1.72.56,2.09-1.36,4.24-2.61,6.36-3.91C527.21,228.8,529,227.68,530.89,226.5Z" transform="translate(-21.68 -37.08)"/><path class="cls-1" d="M241.33,563.61c-.15.06-.21.11-.26.1-5.08-1.26-5.17-1.27-4.33-6.48.29-1.82-.39-2.32-2-2.74-4.6-1.21-4.71-1.34-6.44,2.89-.84,2-1.8,2.62-3.78,1.66a18.35,18.35,0,0,0-2.74-.82c1.93-3.81,3.82-7.55,5.72-11.29,3.58-7.08,7.19-14.14,10.72-21.25.6-1.22,1.13-1.55,2.51-1.11,3.86,1.21,3.93,1.13,3.58,5.22q-1.41,16.44-2.87,32.87C241.43,563,241.37,563.33,241.33,563.61Zm-9.1-14.87,4.19,1.28c.77.24,1.1,0,1.19-.85.53-4.94,1.11-9.87,1.68-14.81l-.27-.09C236.77,539.06,234.53,543.85,232.23,548.74Z" transform="translate(-21.68 -37.08)"/><path class="cls-1" d="M97.32,249c-10.43-6.64-20.8-13.26-31.2-19.84-.85-.54-1-.94-.66-1.94,1.65-4.33,1.6-4.3,6-3.42,10.36,2.06,20.73,4.12,31.12,6.09,1.84.35,2.34.84,1.47,2.69-1.36,2.9-1.24,3-4.4,2.25-4-.9-3.84-.85-5.47,2.83-.83,1.88-.8,2.89,1.26,4,4.26,2.22,4.18,2.37,2.19,6.83A4.12,4.12,0,0,1,97.32,249ZM75.68,229.4l-.12.41,10.1,6c3.57,2.12,3.53,2.11,4.92-1.92.27-.79.22-1.06-.6-1.25C85.21,231.58,80.45,230.49,75.68,229.4Z" transform="translate(-21.68 -37.08)"/><path class="cls-1" d="M149.6,164.79c-6.64-10.56-13.17-21-19.74-31.37a1.15,1.15,0,0,1,.2-1.73c3.27-3.4,3.24-3.41,7-.65q12.82,9.54,25.68,19c1.26.93,1.63,1.45.21,2.65-2.68,2.27-2.6,2.37-5.32.23-3-2.36-3-2.36-5.76.16a7.9,7.9,0,0,1-.94.81c-1.28.82-1.37,1.73-.32,2.8a4.57,4.57,0,0,1,.47.68C153.88,161.59,153.88,161.59,149.6,164.79Zm-11.07-26.86-.33.34,8.6,12.88,3.91-3.64C146.56,144.24,142.55,141.08,138.53,137.93Z" transform="translate(-21.68 -37.08)"/><path class="cls-1" d="M305.17,177a10.89,10.89,0,1,1-11,10.86A10.84,10.84,0,0,1,305.17,177Z" transform="translate(-21.68 -37.08)"/><path class="cls-1" d="M450.41,510.59c.28-.93-.29-1.45-.58-2-3.08-6.18-6.14-12.37-9.31-18.49-.73-1.4-.48-2.08.76-2.92,3-2.06,3-2.12,4.55,1.23,4.55,9.75,9.08,19.52,13.72,29.23.74,1.57.7,2.64-.93,3.24-1.17.44-1.84,2.79-3.57,1.16-8.68-8.13-17.3-16.32-26-24.45-.8-.74-.72-1,.09-1.64,3.44-2.67,3.42-2.7,6.46.34q6.53,6.54,13.07,13.06C449.17,509.79,449.5,510.46,450.41,510.59Z" transform="translate(-21.68 -37.08)"/><path class="cls-1" d="M127.63,485.58c6.14-4.37,12.3-8.7,18.39-13.13,1.25-.92,1.95-.88,3,.26,2.47,2.63,2.55,2.59-.38,4.58-9,6.1-18,12.16-26.91,18.32-1.21.83-1.85.85-2.88-.25-2.57-2.73-2.64-2.67-.6-5.71,6.07-9,12.17-18,18.18-27,.9-1.36,1.37-1.18,2.35-.15,2.6,2.69,2.62,2.63.46,5.67-4,5.64-7.95,11.31-11.92,17l-.32.51-.32.22.55.07Z" transform="translate(-21.68 -37.08)"/><path class="cls-1" d="M267.92,477.8c-.73-.48-2.12-.28-1.89-1.79,1.43-2.67,3.25-5,6.14-6.17,5.26-2.2,10.7-.46,14,4.35.37.56.43,1.73,1.75,1.05,6.05-3.16,12.21-2.78,18.41-.48a1.39,1.39,0,0,1-.27,1.31c-5.21-2.55-10.56-2.39-15.92-.64-1.48.48-3,1.25-3,3.27s1.61,2.54,3.05,3.2c3.07,1.41,6.34,1.16,9.58,1.12l4.05.81,2.9,1,2,1.8.94,2c0,.7,0,1.39,0,2.09-.21,2.53-1.92,3.82-4,4.79a22.27,22.27,0,0,1-10.55,1.63l-2.05-.1c-1.46-.58-2.95-1.5-4.09.5-5.77,3.54-11.91,3.73-18.17,1.76-4.81-1.52-5.95-3.75-4.88-8.65.92-1.14.92-1.14.49-2.29,4.67-.87,9.23-2.9,14.17-2l.85.08a4.82,4.82,0,0,0,3.94.15l-1.64-.7a10.64,10.64,0,0,0,1.49-8.32,9,9,0,0,0-8.23-6.49A8.89,8.89,0,0,0,267.92,477.8Zm29,6.49a14.29,14.29,0,0,0-8.69,1.85c-2.37,1.46-2.46,3.69-.33,5.16,4.12,2.84,13.66,3,17.94.31,2.78-1.76,2.82-3.91,0-5.54A15.35,15.35,0,0,0,296.89,484.29Zm-18.45,3.29c-4.46,0-7.56.7-9.57,2.14s-2.06,3.18-.12,4.74a10.81,10.81,0,0,0,5.56,2.1c3.8.49,7.58.5,11.21-1,.81-.33,1.66-.62.43-1.62a4.23,4.23,0,0,1-1.27-4c.11-1.13-.27-1.71-1.51-2A26.63,26.63,0,0,0,278.44,487.58Z" transform="translate(-21.68 -37.08)"/><path class="cls-1" d="M307.24,552.26c-.23-5.67-.43-11.34-.71-17,0-1.06.16-1.42,1.29-1.45,4.22-.12,8.44-.3,12.65-.58,1.29-.09,1.48.41,1.54,1.5.16,3.55.2,3.55-3.34,3.68-.21,0-.42,0-.62,0-1.84.17-4.32-.68-5.34.58-.88,1.07-.22,3.44-.16,5.23.17,5.15.19,5.15,5.33,5h.2c3.09-.1,3.88.9,3.33,4-.15.84-.68.74-1.2.76-1.93.1-3.87.23-5.8.24-1,0-1.46.24-1.38,1.4.2,3,.32,5.94.38,8.92,0,1.09.39,1.43,1.48,1.34,2.28-.18,4.57-.18,6.84-.38,1.19-.1,1.68.11,1.75,1.47.19,3.47.28,3.5-3.2,3.7s-7.06.24-10.58.53c-1.5.12-1.7-.5-1.74-1.74-.19-5.74-.44-11.48-.67-17.22Z" transform="translate(-21.68 -37.08)"/><path class="cls-1" d="M270.8,80.74c1.71-.25,3.43-.43,5.13-.77,1.15-.23,1.7-.08,1.91,1.26.56,3.53.63,3.5-2.9,4-1.6.21-3.85-.21-4.6,1-.65,1,.23,3,.44,4.61s.48,3.42.64,5.14c.11,1.13.57,1.52,1.72,1.32,2.25-.38,4.54-.55,6.78-1,1.1-.22,1.42,0,1.63,1.09.73,3.64.77,3.64-2.81,4.18-3.42.51-6.85,1-10.26,1.51-1.32.22-1.72-.14-1.9-1.5-1.53-11.38-3.15-22.74-4.79-34.11-.17-1.21.07-1.67,1.41-1.82,3.92-.43,7.82-1,11.72-1.63,1.36-.22,1.92.1,2.12,1.52.44,3.21.51,3.22-2.74,3.73-1.71.27-3.43.49-5.15.67-1,.1-1.3.48-1.14,1.47.44,2.8.88,5.61,1.19,8.43C269.33,81.1,270.06,80.79,270.8,80.74Z" transform="translate(-21.68 -37.08)"/><path class="cls-1" d="M347.38,529.6c.38-.09.68.19.86,1,.83,3.76.86,3.76-2.86,4.41-1.7.29-3.41.57-5.12.81-.8.11-1.16.27-.95,1.27.54,2.71,1,5.45,1.33,8.19.14,1.05.4,1.41,1.53,1.16,1.82-.4,3.69-.57,5.52-.91,1.11-.21,1.6.06,1.78,1.27.49,3.26.55,3.25-2.76,3.83-1.64.29-3.87.07-4.72,1s.25,3.11.45,4.73c.22,1.79.62,3.55.81,5.33.12,1.13.6,1.36,1.63,1.16,2.31-.43,4.64-.73,6.95-1.18,1.17-.23,1.56.19,1.75,1.3.57,3.32.62,3.34-2.68,3.92-3.61.62-7.23,1.16-10.84,1.8-1.1.2-1.36-.18-1.52-1.22-1.45-9.22-3-18.43-4.46-27.64-.36-2.25-.74-4.5-1.11-6.75-.11-.62-.28-1.19.71-1.34C338.12,531.11,342.55,530.37,347.38,529.6Z" transform="translate(-21.68 -37.08)"/><path class="cls-1" d="M209,80.82c.46-.13.53.37.72.7,2,3.46,2,3.6-1.65,5.21L205.26,88c-2.71,1.19-2.7,1.19-1.48,4,.78,1.77,1.63,3.51,2.3,5.32.52,1.43,1.11,2,2.63,1.09s3-1.29,4.52-2c1-.5,1.4-.34,1.87.66,1.51,3.24,1.55,3.2-1.77,4.69-1.44.65-3.64,1-4.06,2.12s1,2.81,1.61,4.26c.77,1.77,1.58,3.53,2.29,5.32.37.93.77,1.07,1.68.62,2.11-1,4.29-1.89,6.42-2.88,1-.45,1.45-.47,2,.71,1.44,3.32,1.52,3.29-1.71,4.71s-6.45,2.83-9.65,4.29c-.92.42-1.37.37-1.83-.68q-7-16.12-14.17-32.2c-.33-.76-.41-1.19.52-1.58,4.06-1.73,8.09-3.54,12.13-5.32Z" transform="translate(-21.68 -37.08)"/><path class="cls-1" d="M417.55,89.43c-.59,1.28-1.1,2.49-1.7,3.65-.41.82-1,.17-1.39,0-2-.9-4-1.8-6-2.81-1.13-.59-1.76-.6-2.31.75-1,2.42-2.13,4.79-3.3,7.14-.5,1-.45,1.53.68,2,1.73.69,3.38,1.59,5.1,2.29,1,.41,1.15.83.69,1.83-1.49,3.32-1.45,3.34-4.71,1.82-4.45-2.07-4.49-2.08-6.48,2.33-.95,2.11-3.2,4.49-2.46,6.25.66,1.56,3.82,2,5.83,3.1.8.42,2.35.46,2.22,1.46a11.17,11.17,0,0,1-1.7,3.73c-.33.58-.86.11-1.27-.08-3.88-1.8-7.74-3.64-11.65-5.39-1-.43-1-.85-.56-1.7Q396,99.83,403.4,83.86c.39-.84.69-1.15,1.64-.7,3.85,1.86,7.75,3.63,11.62,5.45C417,88.79,417.67,88.81,417.55,89.43Z" transform="translate(-21.68 -37.08)"/><path class="cls-1" d="M164.89,486.22A23.38,23.38,0,0,1,162,489.5c-.72.59-1.21-.54-1.74-.95-1.69-1.32-3.35-2.68-4.94-4.12-.88-.8-1.34-.46-1.94.28-1.74,2.15-3.5,4.29-5.33,6.37-.64.73-.72,1.11.13,1.75,1.55,1.16,3,2.49,4.48,3.69.77.61,1,1,.26,1.91-2.29,2.77-2.2,2.78-5,.55-1.27-1-2.41-3-3.85-2.73-1.23.24-2.13,2.18-3.16,3.39-1.17,1.37-2.27,2.8-3.49,4.12-.73.79-.73,1.25.16,1.94,1.86,1.44,3.59,3.05,5.44,4.5.85.67,1.12,1.06.26,2-2.28,2.64-2.22,2.7-4.83.52s-5.4-4.55-8.14-6.77c-.84-.68-1.1-1.11-.28-2.09,7.46-8.82,14.86-17.7,22.28-26.55.41-.48.66-1.25,1.58-.46,3.41,2.93,6.89,5.78,10.34,8.66A8.78,8.78,0,0,1,164.89,486.22Z" transform="translate(-21.68 -37.08)"/><path class="cls-1" d="M94.22,259.63c-.46,1.52-.86,2.84-1.28,4.16s-1.19.34-1.67.2c-7.55-2.23-15.08-4.52-22.62-6.79-3.57-1.08-7.14-2.17-10.72-3.22-1-.28-1.29-.6-.92-1.72,1.26-3.87,2.4-7.79,3.52-11.71.32-1.14.7-1.49,2-1.09,3.36,1.07,3.34,1,2.4,4.27-.56,2-2.23,4.32-1.31,5.79.8,1.3,3.57,1.39,5.48,2,4.6,1.4,4.6,1.39,6-3.15,0-.07,0-.14,0-.21.93-3.12,1.92-3.48,4.88-1.91.84.44.56,1,.4,1.56-.5,1.72-.94,3.48-1.59,5.14-.46,1.18,0,1.52,1,1.82,4.38,1.27,8.74,2.59,13.1,3.93C93.4,258.84,94.32,258.76,94.22,259.63Z" transform="translate(-21.68 -37.08)"/><path class="cls-1" d="M145,170a25.74,25.74,0,0,1-3.37,3.55c-.64.48-1.29-.73-1.86-1.24-7.09-6.38-14.19-12.75-21.2-19.22-1.14-1-1.73-.93-2.53.17-.4.55-1,1-1.35,1.57-1,1.52-1.83,1.48-3.1.19-2-2-2-1.9-.17-4,2.93-3.22,5.9-6.4,8.76-9.68.88-1,1.51-1.31,2.38-.14a2,2,0,0,0,.47.4c1.81,1.14,1.86,2.2.25,3.75-2.46,2.38-2.35,2.49.18,4.79l20.42,18.53C144.24,169.08,144.75,169.35,145,170Z" transform="translate(-21.68 -37.08)"/><path class="cls-1" d="M446.3,529.15a6.63,6.63,0,0,1-.79.65c-3.61,2.18-7.24,4.33-10.82,6.55-.86.54-1.16.17-1.56-.51q-9-14.93-18-29.83c-.56-.93-.47-1.33.46-1.91,3.6-2.3,3.58-2.34,5.75,1.26,4.57,7.58,9.18,15.13,13.65,22.76.82,1.4,1.4,1.46,2.61.61,1.53-1.06,3.25-1.84,4.76-2.94,1.19-.86,1.74-.54,2.3.63C445.13,527.35,445.73,528.2,446.3,529.15Z" transform="translate(-21.68 -37.08)"/><path class="cls-1" d="M373.64,561.13c.15.75-.28.91-.91,1.06-4,.94-8.07,1.87-12.07,2.94-1.56.41-1.36-.77-1.53-1.46-2.28-9.25-4.5-18.51-6.74-27.76-.47-1.95-.89-3.91-1.43-5.84-.22-.8,0-1,.76-1.25,4.33-1.39,4.34-1.43,5.42,3,2,8.31,4.14,16.61,6,25,.48,2.14,1.25,2.46,3.13,1.79,1.55-.56,3.24-.71,4.81-1.22,1.24-.4,1.75-.05,1.93,1.18C373.16,559.39,373.43,560.26,373.64,561.13Z" transform="translate(-21.68 -37.08)"/><path class="cls-1" d="M136.77,179.29c-.28.4-.47.67-.67.94-2.45,3.17-4.93,6.32-7.33,9.54-.61.81-1,.84-1.79.24q-13.92-10.81-27.91-21.54c-.87-.66-.7-1.05-.16-1.79,2.51-3.42,2.48-3.43,5.8-.87,7.11,5.49,14.25,11,21.33,16.49,1,.78,1.57,1,2.37-.23,1-1.51,2.27-2.8,3.24-4.31s1.7-1.4,2.81-.29A24.43,24.43,0,0,0,136.77,179.29Z" transform="translate(-21.68 -37.08)"/><path class="cls-1" d="M519.16,181.75c.6-.14.71.34,1,.65,2.78,3.67,2.78,3.66-1.07,6.06-9,5.63-18.07,11.23-27,16.94-1.36.86-1.88.65-2.64-.64-1.92-3.22-2-3.2,1.17-5.18L518,182.5Z" transform="translate(-21.68 -37.08)"/><path class="cls-1" d="M262,411.2c-1.14-.19-1.52.3-1.31,1.4a15.06,15.06,0,0,0,.35,2.45c.85,2.27-.29,2.85-2.27,3.38-4.92,1.32-4.91,1.43-7.19-3.15a1.86,1.86,0,0,0-1.94-1.16,16.85,16.85,0,0,1-4.95-.33c-1.11-.33-1.57.54-2.06,1.32-2.41,3.89-2.41,3.89-6.53,2.13-3.44-1.48-3.49-1.49-2.32-5.19.51-1.63.24-2.63-1-4.06-2.43-2.79-4.85-4-8.26-2.12-1.28.69-1.9.06-2.31-1.09-.09-.25-.25-.49-.36-.74-.66-1.58-2.18-3-1.92-4.71s2.44-2,3.67-3.1c.21-.18.56-.31.61-.53.56-2.34-.34-4.62-.39-6.95,0-1.12-1.63-1.25-2.65-1.62-3.24-1.57-3.29-1.59-2.38-4.78.43-1.48.17-3.59,1.48-4.26,1.15-.59,2.93.07,4.43.18a1.66,1.66,0,0,0,2.18-1A15.8,15.8,0,0,1,229,374c1.3-1.47,1.29-2.75-.11-4.07-1.23-3.52-1.23-3.51,2-5.85.88-.64,1.73-1.31,2.6-2a2.21,2.21,0,0,1,1.83,1.22c1.77,2.65,3.8,2.72,6.78,1.78,2.71-.84,4.09-2,4.27-4.73.13-1.91,1.06-2.69,3-2.32,1.31.6,2.72.33,4.08.42,1.18.08,1.89.48,1.7,1.74-.49,3.35,1.1,4.75,4.15,6.07,2.78,1.2,4.55,1,6.42-1,1.16-1.22,2.13-1.16,3.15.2a18.14,18.14,0,0,0,1.92,1.9c2.4,2.34,2.47,2.39.35,5.12-1.09,1.4-1.64,2.59-.22,4.07a3.3,3.3,0,0,1,.86,1.64c.56,3.15,2.67,3.72,5.42,3.52.74-.05,1.91-.54,2.15.88.14,1.84.21,3.69.45,5.52a1.9,1.9,0,0,1-1.39,2.32c-3.76.31-3.95.48-4.72,3.87a13.68,13.68,0,0,1-.76,2.79,2.1,2.1,0,0,0,.65,2.85c3.26,3,3.22,3,.75,6.67-2.05,3-2,3-5.48,1.39-.72-.34-1.62-1.3-2.21-.75C265.13,408.65,263.05,409.34,262,411.2Zm-13.87-7.14a13.89,13.89,0,0,0,6.92-1.84,14.62,14.62,0,0,0,6.73-17.44c-2.31-6.88-8.84-10.69-16.56-9.66-8.21,1.8-13.08,8.9-11.66,17A14.65,14.65,0,0,0,248.13,404.06Z" transform="translate(-21.68 -37.08)"/><path class="cls-1" d="M254.16,416.43l-.13-.26Z" transform="translate(-21.68 -37.08)"/><path class="cls-1" d="M254.94,417.84s-.06-.1-.09-.15S254.91,417.8,254.94,417.84Z" transform="translate(-21.68 -37.08)"/><path class="cls-1" d="M252.8,414.37a1.43,1.43,0,0,0-.22-.08A1.43,1.43,0,0,1,252.8,414.37Z" transform="translate(-21.68 -37.08)"/><path class="cls-1" d="M251.64,414.12h0Z" transform="translate(-21.68 -37.08)"/><path class="cls-1" d="M252.28,414.18a2.4,2.4,0,0,0-.28,0A2.4,2.4,0,0,1,252.28,414.18Z" transform="translate(-21.68 -37.08)"/><path class="cls-1" d="M254.58,417.22c-.05-.08-.09-.16-.13-.24Z" transform="translate(-21.68 -37.08)"/><path class="cls-1" d="M299.92,426.58a3.65,3.65,0,0,1-2.42-1.66l-6.2-3.79c-7.87-4.13-16.27-6.7-24.81-8.84a3.75,3.75,0,0,0-1,.88l-.53.94a6.15,6.15,0,0,1-.24,4.83c-1.22,2.37-3.71,3-4.9,3.35l-.31.09a17.37,17.37,0,0,1-4.46.84c-3.53,0-5.09-2.35-6.5-5.08h-.88a16.76,16.76,0,0,1-2.13-.12c-1.52,2.4-3,4.34-6,4.34-1.57,0-2.92-.58-5-1.46-2.24-1-4-1.72-4.94-3.78s-.35-3.92.39-6.27l-.2-.25c-.92-1.05-1.68-1.63-2.14-1.63a2.64,2.64,0,0,0-1.2.41,6,6,0,0,1-2.85.77c-1.1,0-3.77-.39-5.08-3.9v0c-.08-.15-.2-.38-.32-.66a5.75,5.75,0,0,0-.4-.73c-.54,7.92.22,15.6,4,22.93a196.85,196.85,0,0,0,12.3,20.65,246.44,246.44,0,0,0,15.26,20.68,9.2,9.2,0,0,0-.78-5.24c-.23-.41-.53-1-.37-1.37,1.54-3.36-1.41-7.45,1.7-10.55.36-.35.06-.77,0-1.17a5.69,5.69,0,0,1,1.75-5.46c0-.05.13-.09.14-.15.84-3.52,3.65-5.66,5.78-8.28.08-.1.09-.28.18-.36,3.11-2.73,6.15-5.61,10.17-6.91a7.06,7.06,0,0,0,2.78-1.12,3.27,3.27,0,0,1,2-.95c2.72.22,5.13-1.51,7.59-1.46,2.94.06,6-.31,8.9.46a8.71,8.71,0,0,0,4.16.55,5,5,0,0,1,3.86,1.22c2,1.5,4.43,1.66,6.66,2.45C303,429,300.84,428.35,299.92,426.58Z" transform="translate(-21.68 -37.08)"/><path class="cls-1" d="M222.37,393.55c0-.48-.12-1-.22-1.62,0-.19-.05-.39-.08-.59-.24.91-.46,1.83-.67,2.75l.86-.48Z" transform="translate(-21.68 -37.08)"/><path class="cls-1" d="M253.07,414.6l.16.13Z" transform="translate(-21.68 -37.08)"/><path class="cls-1" d="M243.41,365.3c.23-.06.46-.12.7-.2C243.87,365.18,243.64,365.24,243.41,365.3Z" transform="translate(-21.68 -37.08)"/><path class="cls-1" d="M241.94,365.6a4.69,4.69,0,0,0,.62-.1A4.69,4.69,0,0,1,241.94,365.6Z" transform="translate(-21.68 -37.08)"/><path class="cls-1" d="M242.66,365.48c.18,0,.38-.08.57-.13C243,365.4,242.84,365.45,242.66,365.48Z" transform="translate(-21.68 -37.08)"/><path class="cls-1" d="M241.3,365.64l.49,0Z" transform="translate(-21.68 -37.08)"/><path class="cls-1" d="M238.65,361.1a3.31,3.31,0,0,0,.44.54h.12a6.66,6.66,0,0,0,1.71-.36,3.68,3.68,0,0,0,1.36-.61h0a1.31,1.31,0,0,0,.11-.58c.3-4.53,3.47-6.14,6.09-6.14a8.42,8.42,0,0,1,1.62.17l.41.08c.09-.31.19-.61.27-.92.29-1.11.75-1.49,2-1.39a8.29,8.29,0,0,0,7-2.46,4.26,4.26,0,0,0,.09-6c-3.91-4.45-12.28-3-14.44,2.51a6.17,6.17,0,0,1-1.18,1.68,124.8,124.8,0,0,0-8.52,10.94A6.56,6.56,0,0,1,238.65,361.1Z" transform="translate(-21.68 -37.08)"/><path class="cls-1" d="M227.77,378.31a1.23,1.23,0,0,1-.39.06A1.23,1.23,0,0,0,227.77,378.31Z" transform="translate(-21.68 -37.08)"/><path class="cls-1" d="M228.53,377.81a1.74,1.74,0,0,1-.31.3A1.74,1.74,0,0,0,228.53,377.81Z" transform="translate(-21.68 -37.08)"/><path class="cls-1" d="M228.88,377.28a3,3,0,0,1-.28.44A3,3,0,0,0,228.88,377.28Z" transform="translate(-21.68 -37.08)"/><path class="cls-1" d="M228.21,378.12a2.16,2.16,0,0,1-.34.17A2.16,2.16,0,0,0,228.21,378.12Z" transform="translate(-21.68 -37.08)"/><path class="cls-1" d="M226.7,378.27a3.22,3.22,0,0,0,.65.1A3.22,3.22,0,0,1,226.7,378.27Z" transform="translate(-21.68 -37.08)"/><path class="cls-1" d="M237.5,391.42a10.68,10.68,0,0,0,7.93,8.36,20.48,20.48,0,0,1-1.49-6.51,64.29,64.29,0,0,1,.6-13.8A10.36,10.36,0,0,0,237.5,391.42Z" transform="translate(-21.68 -37.08)"/><path class="cls-1" d="M192.85,546.69c-1.43-.69-2.88-1.33-4.28-2.07-.69-.36-.11-.88.06-1.23q7.53-15.9,15.11-31.76c.22-.46.34-1.11,1.16-.69,1.23.63,2.51,1.15,3.73,1.78s.22,1.29,0,1.85q-6.53,13.84-13.11,27.67l-1.8,3.72C193.5,546.32,193.43,546.79,192.85,546.69Z" transform="translate(-21.68 -37.08)"/><path class="cls-1" d="M329.45,100.52c1.36-10.48,2.69-20.7,4-30.92.17-1.3.36-2.61.54-3.91.05-.34,0-1,.15-1,1.65-.45,3.25.17,4.87.38,1,.13.51,1.15.44,1.74-.52,4.4-1.1,8.79-1.68,13.18-.92,7-1.89,14-2.74,21-.15,1.19-.52,1.56-1.65,1.31a12.12,12.12,0,0,0-2.46-.33C329.7,102,329,101.62,329.45,100.52Z" transform="translate(-21.68 -37.08)"/><path class="cls-1" d="M255,67.23c.88-.19.78.77.92,1.47q3,14.3,5.89,28.59c.37,1.83.75,3.65,1.17,5.47.21.91,0,1.35-1,1.59-4.09,1-4.12,1-5-3.12C254.8,90.82,252.72,80.4,250.47,70c-.35-1.63.17-2,1.54-2.21C252.9,67.69,253.78,67.47,255,67.23Z" transform="translate(-21.68 -37.08)"/><path class="cls-1" d="M108.28,483.93c-.74-.22-1-.88-1.48-1.37-2.34-2.62-2.33-2.63.3-4.94,8-7,16-14.06,23.92-21.15,1.14-1,1.76-1.2,2.84.12,2.3,2.8,2.38,2.73-.35,5.14l-24,21.11Z" transform="translate(-21.68 -37.08)"/><path class="cls-1" d="M490.13,141.62c2.55-.46,4.69-.82,6.82-1.27a1.47,1.47,0,0,1,1.59.59c1.18,1.33,2.4,2.63,3.83,4.18a47.69,47.69,0,0,1-9.15-.56C491.91,144.39,491.34,142.77,490.13,141.62Z" transform="translate(-21.68 -37.08)"/><path class="cls-1" d="M298.36,198.27l-.12,1.71c-2.8,0-4-1-3.48-2.9.22-.82.5-1.76,1.58-.58A22.84,22.84,0,0,0,298.36,198.27Z" transform="translate(-21.68 -37.08)"/><path class="cls-1" d="M312.05,200c-.06-.57.14-1.18-.23-1.71.47-.38.93-.8,1.42-1.15s.87-1.4,1.57-1.11.65,1.27.6,2a1.79,1.79,0,0,1-1.32,1.86A10.62,10.62,0,0,1,312.05,200Z" transform="translate(-21.68 -37.08)"/><path class="cls-1" d="M290,371.27l-.32.48C289.69,371.52,289.64,371.25,290,371.27Z" transform="translate(-21.68 -37.08)"/><path class="cls-1" d="M327.43,382.11c2.31,5,1.56,9.81-.88,14.52a66.63,66.63,0,0,1-13,14.94c-2.52,2.11-2.46,2.2-4.72-.06-1-1-2-2.08-3-3.13.45-.47.9-.94,1.34-1.42A61.88,61.88,0,0,0,318,394.21a8.82,8.82,0,0,0,.44-9.06c-2.33-4.7-6.17-7.87-10.45-10.64L306.25,373c2.3-1.54,4.61-3,6.88-4.62,1-.67,1.63-.26,2.38.36C320.2,372.54,324.45,376.75,327.43,382.11Z" transform="translate(-21.68 -37.08)"/><path class="cls-1" d="M311.4,355.5c.13-.27.15-.69.64-.47C312,355.37,311.7,355.45,311.4,355.5Z" transform="translate(-21.68 -37.08)"/><path class="cls-1" d="M301.74,421.72l1.31-1.71c2.56,1.64,4.3,3.67,3.64,7a17.43,17.43,0,0,0-.05,3.07l-.79-.35c-.9-1.77-3-2.41-3.93-4.18A13.52,13.52,0,0,0,301.74,421.72Z" transform="translate(-21.68 -37.08)"/><path class="cls-1" d="M306.29,473.6c-6.2-2.3-12.36-2.68-18.41.48-1.32.68-1.38-.49-1.75-1-3.26-4.82-8.7-6.55-14-4.36-2.89,1.2-4.71,3.5-6.14,6.17-2.63-2.3-3.59-5.68-4.7-8.68-.73-2-1.69-4.49-.83-7a6.32,6.32,0,0,0-.09-2.86,1.32,1.32,0,0,1,.27-1.32,3.9,3.9,0,0,0,.95-4.21c-.25-.8.25-1.16.68-1.58a4.33,4.33,0,0,0,1.61-2.8c.07-1.14,1.4-.86,1.76-1.5,1.43-2.48,4.26-3.09,6.3-4.74,1.51-1.22,3.83-1.69,5.95-1.92.48-.05,1.08.17,1.44,0,2.45-1.46,5.14-.34,7.68-.77a2.38,2.38,0,0,1,1.6.29c.48.27,1,.71,1.49.69a10,10,0,0,1,5.81,1.74l2.33,1.38c2.71,1.6,4.7,4,7.22,5.87a7.1,7.1,0,0,1,2.46,4.72c.12.67-.16,1.47.31,2a8.14,8.14,0,0,1,1.51,7c-.58,2.57.71,5.37-1.07,7.7a1.71,1.71,0,0,0-.29,1.18C308.74,471.88,307.78,472.88,306.29,473.6Z" transform="translate(-21.68 -37.08)"/><path class="cls-1" d="M273.12,481.9c1-.16,2-.22,2.68,1a2.36,2.36,0,0,0-1.11-3.11,2.65,2.65,0,0,1-1-3.29,3,3,0,0,1,5.78-.09c.09.26.18.56-.15.71a1.82,1.82,0,0,1-1.95-.4c-.29,1.1-.3,1.9.89,2.58,2.46,1.41,2.43,3.31.06,5.15C276,484.83,274.56,483.35,273.12,481.9Z" transform="translate(-21.68 -37.08)"/><path class="cls-1" d="M253,446.68c1,3.12,3,5.56,4.62,8.29.34.6.67,1.2,1,1.82s.69,1.84.06,2.31-1.22-.56-1.7-1c-2.18-2.18-4.45-4.33-5.23-7.51C251.31,448.89,251.55,448.06,253,446.68Z" transform="translate(-21.68 -37.08)"/><path class="cls-1" d="M319.33,470a51.68,51.68,0,0,0-6.35-7.86,7.76,7.76,0,0,1-1.08-1.52c-.36-.65-1-1.53-.38-2.08s1.31.36,1.89.75c2.18,1.46,4.35,3,5.73,5.3A5,5,0,0,1,319.33,470Z" transform="translate(-21.68 -37.08)"/><path class="cls-1" d="M313.47,482.69a43.18,43.18,0,0,0-2.58-8.74,19.35,19.35,0,0,1-.75-2.57c-.17-.77-.14-1.77.55-2.06s1,.75,1.34,1.26c1.25,2.05,2.74,4,3.25,6.41C315.72,479.07,315.81,481.1,313.47,482.69Z" transform="translate(-21.68 -37.08)"/><path class="cls-1" d="M261.8,435.44a51.05,51.05,0,0,0,.4,8.93,4.82,4.82,0,0,1-.1,1.85c-.17.73-.44,1.69-1.24,1.75s-.76-1-1-1.6c-.65-1.88-1.45-3.76-1.37-5.8S259.23,436.51,261.8,435.44Z" transform="translate(-21.68 -37.08)"/><path class="cls-1" d="M320,456.3c-3.23-2.67-6.84-4-10-6a3.61,3.61,0,0,1-.92-.82c-.31-.42-.87-.9-.47-1.44s.89,0,1.34.07a18.07,18.07,0,0,1,7.63,3.07A5.71,5.71,0,0,1,320,456.3Z" transform="translate(-21.68 -37.08)"/><path class="cls-1" d="M250.89,453.71c2.06,3.5,5.35,5.79,7.73,8.89.48.62,1.09,1.36.47,2s-1.09-.25-1.59-.54a21,21,0,0,1-5.84-4.55C250,457.54,249.74,455.94,250.89,453.71Z" transform="translate(-21.68 -37.08)"/><path class="cls-1" d="M263.65,475c-6.14-.16-12.27-2.83-12.08-7.29C255.28,470.93,260.76,470.78,263.65,475Z" transform="translate(-21.68 -37.08)"/><path class="cls-1" d="M273.67,483.22c-6.53,3-11.89,2.2-13.51-1.94C264.54,482.84,269.19,480.5,273.67,483.22Z" transform="translate(-21.68 -37.08)"/><path class="cls-1" d="M313,442.24a68.32,68.32,0,0,0-9.21-.28,5.26,5.26,0,0,1-1.44-.15c-.91-.26-2.39-.34-2.38-1.29s1.51-.78,2.36-1a15.57,15.57,0,0,1,6.55-.46C310.7,439.39,312.28,440.07,313,442.24Z" transform="translate(-21.68 -37.08)"/><path class="cls-1" d="M274.77,429.15c-1.72,2.8-2.54,5.71-3.58,8.53a4.8,4.8,0,0,1-.84,1.41c-.49.55-1,1.42-1.82,1.1s-.14-1.18-.12-1.79a13.45,13.45,0,0,1,1.58-6.54A5.12,5.12,0,0,1,274.77,429.15Z" transform="translate(-21.68 -37.08)"/><path class="cls-1" d="M288.88,428.51c-2.85,1.88-4.67,4.61-7.11,6.72a3.43,3.43,0,0,1-1,.74c-.68.25-1.5,1-2.08.32s.29-1.25.62-1.8c1.24-2.06,2.32-4.28,4.52-5.54C285.34,428.09,286.9,427.32,288.88,428.51Z" transform="translate(-21.68 -37.08)"/><path class="cls-1" d="M254.4,443.81a10.83,10.83,0,0,1,.5-1.55c.3-.62.75-1.4,1.44-1.34.86.07.38,1,.51,1.54a56.27,56.27,0,0,0,2.76,8.41c.28.65.64,1.23.31,1.95-.24.54-.58,1.17-1.14.42C256.73,450.46,254.76,447.63,254.4,443.81Z" transform="translate(-21.68 -37.08)"/><path class="cls-1" d="M311.1,463.11c5.1,4.67,9.19,10.2,5.89,13.42C316.06,471.68,311.47,468.7,311.1,463.11Z" transform="translate(-21.68 -37.08)"/><path class="cls-1" d="M302.69,433a49.3,49.3,0,0,0-8.5,3.12,4.3,4.3,0,0,1-.79.26c-1.19.24-2.76.87-3.4-.24-.4-.71,1.28-1.35,2.07-1.91,2.19-1.56,4.48-2.95,7.39-2.71A4.41,4.41,0,0,1,302.69,433Z" transform="translate(-21.68 -37.08)"/><path class="cls-1" d="M309.7,487.47l-.94-2c.2-2.86-.89-5.57-1-8.4a5.55,5.55,0,0,1-.06-1.21c.12-.53.27-1.2.87-1.33.79-.17.8.67.94,1.1,1,3.06,2.5,6,1.8,9.4A2.83,2.83,0,0,1,309.7,487.47Z" transform="translate(-21.68 -37.08)"/><path class="cls-1" d="M310.06,452.79a26.79,26.79,0,0,1,8.61,4.83,4,4,0,0,1,1.17,4.78c-2.35-2.93-5.6-4.56-8.37-6.81-.87-.71-1.71-1.48-1.41-2.79Z" transform="translate(-21.68 -37.08)"/><path class="cls-1" d="M257.17,475.26a71.34,71.34,0,0,0,9.26,2.09,7,7,0,0,1,1.18.36c1,.35,2.37.62,2.17,1.77-.14.78-1.58.32-2.43.37-2.79.16-5.55,0-8-1.61-1.08-.73-2.26-1.42-2.18-3Z" transform="translate(-21.68 -37.08)"/><path class="cls-1" d="M250.31,461c2.77,2.63,6,4.27,8.84,6.36a8.1,8.1,0,0,1,1.2,1.14c.35.4.89.88.47,1.42s-.89-.07-1.29-.23c-2.68-1.1-5.4-2.12-7.65-4A4.33,4.33,0,0,1,250.31,461Z" transform="translate(-21.68 -37.08)"/><path class="cls-1" d="M264.07,443.56c-.51-2.9-1-5.67-.14-8.47a5,5,0,0,1,2.7-3.22c.63-.3,1.25-.29.95.59-1,3-.9,6.11-1.67,9.1A2.42,2.42,0,0,1,264.07,443.56Z" transform="translate(-21.68 -37.08)"/><path class="cls-1" d="M281.73,428.09a33.86,33.86,0,0,0-4.34,6.05,18.73,18.73,0,0,1-1.81,2.5c-.45.5-1.17,1.05-1.82.63s0-1.14.13-1.68c.74-2.3,1.5-4.63,3.37-6.3C278.46,428.21,279.83,427.41,281.73,428.09Z" transform="translate(-21.68 -37.08)"/><path class="cls-1" d="M284.32,435.55c2.08-2.65,4.09-5,7.21-6.17a6.12,6.12,0,0,1,3.64-.13.94.94,0,0,1,.59.49c.12.3-.17.47-.44.57-2.86,1.11-5.11,3.22-7.73,4.72A3.66,3.66,0,0,1,284.32,435.55Z" transform="translate(-21.68 -37.08)"/><path class="cls-1" d="M307.72,443.65A13,13,0,0,1,314.5,445a3.85,3.85,0,0,1,1.59,1.28c.31.51.92,1.09.46,1.66s-1-.13-1.46-.26c-3-.78-5.79-2-8.92-2.12-.78,0-1.78-.58-1.7-1.49.06-.74,1-.32,1.6-.39A13,13,0,0,1,307.72,443.65Z" transform="translate(-21.68 -37.08)"/><path class="cls-1" d="M308.61,437c-4.34-.28-7.95,1.54-11.82,1.51a1.15,1.15,0,0,1-1.14-.75C300,434.45,305.6,433.93,308.61,437Z" transform="translate(-21.68 -37.08)"/><path class="cls-1" d="M306.72,483.69l-2.9-1c.36-1.33.21-3.55,1.77-3.45,1.3.09.89,2.34,1.15,3.66A3.67,3.67,0,0,1,306.72,483.69Z" transform="translate(-21.68 -37.08)"/><path class="cls-1" d="M257.19,475.24l-.19-.14s.08,0,.1,0,0,.09.07.14Z" transform="translate(-21.68 -37.08)"/><path class="cls-1" d="M312.06,452.8l-.18-.16s.09,0,.11,0a.46.46,0,0,1,.07.14Z" transform="translate(-21.68 -37.08)"/><path class="cls-3" d="M307.9,432.82l.48.43Z" transform="translate(-21.68 -37.08)"/><path class="cls-2" d="M321.42,322.11h0Z" transform="translate(-21.68 -37.08)"/><path class="cls-2" d="M320.74,322.2h0Z" transform="translate(-21.68 -37.08)"/><path class="cls-2" d="M325.64,277l.11,0Z" transform="translate(-21.68 -37.08)"/><path class="cls-2" d="M325,276.88h0Z" transform="translate(-21.68 -37.08)"/><path class="cls-2" d="M325.33,276.92l.11,0Z" transform="translate(-21.68 -37.08)"/><path class="cls-2" d="M324.32,276.88h0Z" transform="translate(-21.68 -37.08)"/><path class="cls-2" d="M335.25,295.4c0,.07,0,.13,0,.19S335.25,295.47,335.25,295.4Z" transform="translate(-21.68 -37.08)"/><path class="cls-2" d="M297.34,416.81l.08-.06Z" transform="translate(-21.68 -37.08)"/><path class="cls-2" d="M333.78,292.24l.15.14Z" transform="translate(-21.68 -37.08)"/><path class="cls-2" d="M325.91,277.1l.1.06Z" transform="translate(-21.68 -37.08)"/><path class="cls-2" d="M326.31,277.53l0,.09Z" transform="translate(-21.68 -37.08)"/><path class="cls-2" d="M326.14,277.27l.07.09Z" transform="translate(-21.68 -37.08)"/><path class="cls-2" d="M297.58,416.62l.09-.05Z" transform="translate(-21.68 -37.08)"/><path class="cls-2" d="M335.18,316.23l.08-.07Z" transform="translate(-21.68 -37.08)"/><path class="cls-2" d="M326.54,320.16l-.36.15Z" transform="translate(-21.68 -37.08)"/><path class="cls-2" d="M333.61,292.1a1,1,0,0,0-.16-.12A1,1,0,0,1,333.61,292.1Z" transform="translate(-21.68 -37.08)"/><path class="cls-2" d="M332.51,291.53l-.19,0Z" transform="translate(-21.68 -37.08)"/><path class="cls-2" d="M332.1,291.45h0Z" transform="translate(-21.68 -37.08)"/><path class="cls-2" d="M333.27,291.86l-.18-.1Z" transform="translate(-21.68 -37.08)"/><path class="cls-2" d="M332.9,291.67l-.18-.07Z" transform="translate(-21.68 -37.08)"/><path class="cls-2" d="M331,291.45l.62,0a7.91,7.91,0,0,1-.84,0Z" transform="translate(-21.68 -37.08)"/><path class="cls-2" d="M326.67,290.55l-.53-.22Z" transform="translate(-21.68 -37.08)"/><path class="cls-2" d="M327.55,290.86l-.52-.18Z" transform="translate(-21.68 -37.08)"/><path class="cls-2" d="M330.32,291.42l-.53-.05Z" transform="translate(-21.68 -37.08)"/><path class="cls-2" d="M329.37,291.31l-.52-.1Z" transform="translate(-21.68 -37.08)"/><path class="cls-2" d="M328.45,291.12l-.52-.14Z" transform="translate(-21.68 -37.08)"/><path class="cls-2" d="M335.06,294.25l-.07-.19Z" transform="translate(-21.68 -37.08)"/><path class="cls-2" d="M288.11,324.62h0Z" transform="translate(-21.68 -37.08)"/><path class="cls-2" d="M335.24,295.13l0-.18Z" transform="translate(-21.68 -37.08)"/><path class="cls-2" d="M335.23,296a.76.76,0,0,0,0-.15A.76.76,0,0,1,335.23,296Z" transform="translate(-21.68 -37.08)"/><path class="cls-2" d="M298.15,416.45h0Z" transform="translate(-21.68 -37.08)"/><path class="cls-2" d="M297.82,416.49l.1,0Z" transform="translate(-21.68 -37.08)"/><path class="cls-2" d="M334.23,292.69l-.14-.15Z" transform="translate(-21.68 -37.08)"/><path class="cls-2" d="M334.49,293.05a1.09,1.09,0,0,0-.13-.17A1.09,1.09,0,0,1,334.49,293.05Z" transform="translate(-21.68 -37.08)"/><path class="cls-2" d="M334.91,293.83l-.09-.19Z" transform="translate(-21.68 -37.08)"/><path class="cls-2" d="M335.17,294.69a1.46,1.46,0,0,0-.05-.2A1.46,1.46,0,0,1,335.17,294.69Z" transform="translate(-21.68 -37.08)"/><path class="cls-2" d="M325.81,290.19l-.59-.27Z" transform="translate(-21.68 -37.08)"/><path class="cls-2" d="M335.09,316.33l0,.1Z" transform="translate(-21.68 -37.08)"/><path class="cls-2" d="M335,316.56" transform="translate(-21.68 -37.08)"/><path class="cls-2" d="M335.45,316l-.08.05Z" transform="translate(-21.68 -37.08)"/><path class="cls-2" d="M329.77,319.07l-.48.12Z" transform="translate(-21.68 -37.08)"/><path class="cls-2" d="M323.11,321.56c-.34.12-.69.25-1,.36C322.42,321.81,322.77,321.68,323.11,321.56Z" transform="translate(-21.68 -37.08)"/><path class="cls-2" d="M335.68,315.92l-.09,0Z" transform="translate(-21.68 -37.08)"/><path class="cls-2" d="M324.14,321.15l-.66.26Z" transform="translate(-21.68 -37.08)"/><path class="cls-2" d="M325.35,320.65l-.92.38Z" transform="translate(-21.68 -37.08)"/><path class="cls-2" d="M327.67,319.72l-.47.17Z" transform="translate(-21.68 -37.08)"/><path class="cls-2" d="M299,378.62l-.17.2-.22.15a16.34,16.34,0,0,0-6.46,7.64c-.91,2.32-.8,4.17.35,5.8l.11.17.08.18.1.2,8.43-2.62c0,1.48.12,3,.17,4.43-.05-1.47-.14-2.95-.17-4.43l-.09-11.06-1.85-1v0Z" transform="translate(-21.68 -37.08)"/><path class="cls-2" d="M328.71,319.37c-.16.05-.32.09-.47.15C328.39,319.46,328.55,319.42,328.71,319.37Z" transform="translate(-21.68 -37.08)"/><path class="cls-2" d="M325,289.8l-.84-.41Z" transform="translate(-21.68 -37.08)"/><path class="cls-2" d="M331.08,274c.33.08.65.18,1,.27C331.73,274.21,331.41,274.11,331.08,274Z" transform="translate(-21.68 -37.08)"/><path class="cls-2" d="M327.68,273.45l1,.12Z" transform="translate(-21.68 -37.08)"/><path class="cls-2" d="M329.39,273.68l1,.19Z" transform="translate(-21.68 -37.08)"/><path class="cls-2" d="M324.9,273.3l-1.29,0c.53,0,1.05,0,1.58,0Z" transform="translate(-21.68 -37.08)"/><path class="cls-2" d="M325.93,273.33l1,.05Z" transform="translate(-21.68 -37.08)"/><path class="cls-2" d="M336,275.85c.52.27,1,.56,1.55.88C337,276.41,336.47,276.12,336,275.85Z" transform="translate(-21.68 -37.08)"/><path class="cls-2" d="M336,315.77l-.18.08Z" transform="translate(-21.68 -37.08)"/><path class="cls-2" d="M332.74,274.51c.33.11.66.23,1,.36C333.4,274.74,333.07,274.62,332.74,274.51Z" transform="translate(-21.68 -37.08)"/><path class="cls-2" d="M336.33,315.63l-.2.11Z" transform="translate(-21.68 -37.08)"/><path class="cls-2" d="M334.36,275.11c.36.15.71.32,1.06.49C335.07,275.43,334.72,275.26,334.36,275.11Z" transform="translate(-21.68 -37.08)"/><path class="cls-2" d="M334.71,293.43c0-.07-.07-.12-.1-.18S334.68,293.36,334.71,293.43Z" transform="translate(-21.68 -37.08)"/><path class="cls-2" d="M305.31,410.74l-.93-1-1.33-1.37.07-.08c-1.7-1.72-3.4-3.45-5.08-5.2-2.76-2.87-5.53-5.81-7.18-9.56-1.72-2.45-1.59-5.07-.57-7.68a18.42,18.42,0,0,1,7.2-8.57h0c.11-.12.21-.26.32-.39a2.39,2.39,0,0,1,.35-.36q2.43-1.94,5-3.72l-.14-.12,2.14-1.43,2-1.32c1.61-1.06,3.26-2.16,4.86-3.27a4,4,0,0,1,1.47-.64c1.73-1.08,3.46-2.15,5.18-3.24,4.91-3.1,9.95-6,14-10.24,5.1-5.33,6.35-13.6,1.06-19.08a12.73,12.73,0,0,1-1.08-1.5c-2.81-1.88-5.47-4-8.44-5.63-1.37-.77-2.77-1.5-4.16-2.24a4.22,4.22,0,0,1-1.23-.4c-3.13-1.57-6.34-3.13-9.44-4.64L306,317.46l-3.28-1.61.08-.05-2.27-1a129.77,129.77,0,0,1-22-12.81,13,13,0,0,1-4.11-4,4.25,4.25,0,0,1-.05-4.54,3.69,3.69,0,0,1,3.3-2,6.07,6.07,0,0,1,.71.05,4.21,4.21,0,0,0,.62,0,3.81,3.81,0,0,0,1-.14,36.35,36.35,0,0,0,12.27-6.75c1.76-1.42.74-3.2,1.39-4.7.19-.43-.21-1.2-.49-1.74a8.19,8.19,0,0,0-6.11-4.53,23.61,23.61,0,0,0-3.62-.28A22.71,22.71,0,0,0,271.21,277,7.23,7.23,0,0,0,268,280.9a6.92,6.92,0,0,1-2,2.81c-8,8.21-9.45,17.15-.93,25.86a41.51,41.51,0,0,0,15.08,9.69q4.44,1.69,8.89,3.35a4.84,4.84,0,0,1,1.11.27l9.18,3.43,3,1.12,3.69,1.38-.15.1c5,1.9,9.94,4,14.1,7.54.95.8,2.22,1.39,2.47,2.82h.05c.37,0,2.89,5.29,1,7.26-.42.43-.84.86-1.28,1.27a36,36,0,0,1-2.73,2.35,52,52,0,0,1-7.57,4.88H312c-.08.34-.34.42-.64.47a51.81,51.81,0,0,1-6,4.61l-1.21,1-3.28,2.61-.07.06-.08.05-.73.46a6.44,6.44,0,0,0-1,.7,7.63,7.63,0,0,1-2.84,1.76L290,371.29l0,0-.32.48a51,51,0,0,0-8.38,10.85c.14,1.84.21,3.69.45,5.52a1.9,1.9,0,0,1-1.39,2.32c.85,5,3.9,8.75,6.74,12.69,3.31,4.6,7.9,7.82,12,11.52a4,4,0,0,1,1.34,1c.85.9,1.75,1.74,2.7,2.63.41.38.82.75,1.22,1.14l.5.48.09.6a45.91,45.91,0,0,1,7.26,7.29A16.66,16.66,0,0,1,315,433.3h0a7.61,7.61,0,0,1,.37,5.83c1.57,1.79,1.64,4.64,4.12,5.78q1.28-2.58,2.56-5.16h0a14.8,14.8,0,0,0-.27-9.83c-.21-.56-.46-1.12-.73-1.67a19.91,19.91,0,0,0-1.46-2.44,42.12,42.12,0,0,0-4.73-5.76c-1.76-1.79-3.53-3.56-5.3-5.33a12,12,0,0,1-2.07-1.8C306.71,412.2,306,411.47,305.31,410.74Zm-20.79-133.9c1,.1,2.1.12,2,1.13s-1,1-1.78,1h-.38c-.76,0-1.77-.12-1.76-1C282.62,276.77,283.83,277,284.52,276.84Z" transform="translate(-21.68 -37.08)"/><path class="cls-2" d="M306.36,373.06l1.6,1.45a32,32,0,0,1,8.44,7.38,21.42,21.42,0,0,1,2,3.26,8.82,8.82,0,0,1-.44,9.06A61.88,61.88,0,0,1,307.16,407c-.41.45-.83.89-1.25,1.33l4,4,.76.76a1,1,0,0,0,.4.1h0l.12,0h.1l.14,0,.09,0,.15-.07.1-.05.17-.11.11-.07.22-.16.08-.07c.1-.08.21-.16.32-.26h0A3.48,3.48,0,0,1,313,412l.55-.46a61.41,61.41,0,0,0,5.41-5.15,71.63,71.63,0,0,0,7.58-9.79h0c2.44-4.71,3.19-9.53.88-14.52-3-5.36-7.23-9.57-11.92-13.41l-.31-.25-.1-.06-.23-.15-.11-.06-.24-.1-.09,0a1.35,1.35,0,0,0-.29-.05C311.54,369.64,308.93,371.32,306.36,373.06Z" transform="translate(-21.68 -37.08)"/><path class="cls-2" d="M308.82,335.9c1.79-1.71,2.44-2.32,3.57-2-1.47-.75-3-1.42-4.55-2.05C308.7,332.53,308.74,333.5,308.82,335.9Z" transform="translate(-21.68 -37.08)"/><path class="cls-2" d="M330.08,321.74l-.52.3v-.35L325.48,324l.82-1.59-.19.08c-.9.38-1.84.76-2.8,1.1l1.88,1a67.8,67.8,0,0,1,5.85,3.83l1,.69c-.52-2.41-1.06-4.81-1.65-7.2l-.33.23Z" transform="translate(-21.68 -37.08)"/><path class="cls-2" d="M322.42,339.28" transform="translate(-21.68 -37.08)"/><path class="cls-2" d="M288.11,340.1c-.86.93-1.87,2.32-1.76,3.64a4.12,4.12,0,0,0,1.83,2.73c4.34,3.38,8.46,6.34,12.56,9q-.17-11.62-.34-23.25A29.92,29.92,0,0,0,288.11,340.1Z" transform="translate(-21.68 -37.08)"/><path class="cls-2" d="M308.67,348.43h0a2.18,2.18,0,0,0-.25,1.78,7.67,7.67,0,0,1-.27,4.58l2.83-1.52c.33-.17.63-.35.95-.53a4.57,4.57,0,0,0-.65-.89C310.33,350.78,309.53,349.57,308.67,348.43Z" transform="translate(-21.68 -37.08)"/><path class="cls-1" d="M314.43,368.05l.09,0Z" transform="translate(-21.68 -37.08)"/><polygon class="cls-1" points="289.42 376.1 289.42 376.1 289.41 376.1 289.42 376.1"/><path class="cls-1" d="M321,428.25c.27.55.52,1.11.73,1.67C321.51,429.36,321.26,428.8,321,428.25Z" transform="translate(-21.68 -37.08)"/><path class="cls-1" d="M311.32,413.15h0Z" transform="translate(-21.68 -37.08)"/><path class="cls-1" d="M311.55,413.07l-.09,0Z" transform="translate(-21.68 -37.08)"/><path class="cls-1" d="M312.38,412.54l-.08.07Z" transform="translate(-21.68 -37.08)"/><path class="cls-1" d="M311.8,413l-.1.05Z" transform="translate(-21.68 -37.08)"/><path class="cls-1" d="M312.73,412.27h0Z" transform="translate(-21.68 -37.08)"/><path class="cls-1" d="M315.1,368.39l.1.06Z" transform="translate(-21.68 -37.08)"/><path class="cls-1" d="M312.08,412.77l-.11.07Z" transform="translate(-21.68 -37.08)"/><path class="cls-1" d="M314.76,368.18l.11.06Z" transform="translate(-21.68 -37.08)"/><path class="cls-1" d="M300.66,376.5c-.43.53-.87,1.05-1.29,1.6,0,0-.06.12-.09.18l1.12,1A6.43,6.43,0,0,1,300.66,376.5Z" transform="translate(-21.68 -37.08)"/><path class="cls-1" d="M319,406.42a71.63,71.63,0,0,0,7.58-9.79h0A71.63,71.63,0,0,1,319,406.42Z" transform="translate(-21.68 -37.08)"/><path class="cls-1" d="M297.49,377.31h0c.11-.12.21-.26.32-.39C297.7,377.05,297.6,377.19,297.49,377.31Z" transform="translate(-21.68 -37.08)"/><path class="cls-1" d="M299.69,399.19c.07-1.46.06-2.94,0-4.42s-.1-2.95-.12-4.43L294.05,393a35.51,35.51,0,0,0,4.41,8.78c.64,1,1.29,2,1.94,3A14.19,14.19,0,0,1,299.69,399.19Z" transform="translate(-21.68 -37.08)"/><path class="cls-1" d="M449.09,394.2c-3.65-1.07-7.26-2.26-10.9-3.37a1.6,1.6,0,0,1-1.37-1.7c-.12-2.56-.39-5.11-.68-7.65a2,2,0,0,1,1.09-2.34c3.41-1.82,6.73-3.82,10.13-5.68.92-.5,1.27-.91.95-2.06-.77-2.87-1.67-5.7-2.62-8.52a1.52,1.52,0,0,0-1.94-1.24c-3.7.49-7.43.83-11.14,1.31A2.09,2.09,0,0,1,430,361.6a61.63,61.63,0,0,0-3.73-6.69,2,2,0,0,1,.15-2.72c2.33-3,4.52-6.13,6.84-9.15.67-.87.73-1.45,0-2.28-1.92-2.09-3.8-4.21-5.6-6.4-.92-1.11-1.68-1-2.79-.31-3.18,2-6.45,3.77-9.63,5.73a1.65,1.65,0,0,1-2.34-.21,49.12,49.12,0,0,0-6.83-5.07,1.55,1.55,0,0,1-.82-2c.92-3.69,1.66-7.42,2.52-11.13.29-1.23.18-2-1.17-2.58-2.5-1-4.95-2.14-7.37-3.32a1.71,1.71,0,0,0-2.55.72c-2.11,3.08-4.35,6.08-6.46,9.16a1.82,1.82,0,0,1-2.4.9,44.59,44.59,0,0,0-8.09-1.78c-1.21-.17-1.74-.52-2-1.82-.64-3.68-1.58-7.3-2.2-11-.23-1.35-.82-1.66-2-1.72-2.7-.15-5.4-.1-8.1,0-1.39,0-1.87.62-2.1,1.92-.64,3.61-1.45,7.19-2.11,10.79-.22,1.2-.72,1.64-2,1.84a80.07,80.07,0,0,0-8.1,1.77,1.88,1.88,0,0,1-2.4-.89c-2.16-3.13-4.44-6.19-6.59-9.33a2.17,2.17,0,0,0-.8-.76c-.85.63-1.74,1.24-2.69,1.85l-.31.2-.33.18-2,2-.82.36-.69.34-1.29.69-.6.3-.57.39-.22.15,0-.16s.63,5.13,1.15,7.54l1.74,1.2.31.2.22.31c.13.18.25.37.37.56a5.54,5.54,0,0,0,.51.71c5.68,5.89,5.23,15.28-1.06,21.84-3.72,3.89-8.2,6.68-12.53,9.38l-1.87,1.17-3.3,2.07-.21.13c.23.16.43.32.58.44,5.26,4.3,8.86,8.21,11.5,12.48a48.22,48.22,0,0,1,5-10.52A42.15,42.15,0,1,1,328,399.53a66.7,66.7,0,0,1-12.16,13.57l-.23.19a11.07,11.07,0,0,1-2.16,1.57l3.77,3.78a46.3,46.3,0,0,1,4.95,6c3.45,5,4.37,10.26,2.73,15.66l-.05.16-.07.15-2.39,4.82-.17.34-.74,1.5a13.65,13.65,0,0,0,2.56,5.3c1,1.17.91,3,.48,4.58-.23.82-.17,1.32.56,1.71.22.17.24.35.07.54,1.32.1,2.5,1.53,4-.29,1.78-2.18,4.29-3.75,6.17-5.86s3.89-2.77,6.44-.95a13.89,13.89,0,0,0,3.81,1.62A1.76,1.76,0,0,1,347,456c-.14,3.81-.06,7.63-.21,11.43-.06,1.27.43,1.7,1.52,1.95,2.82.66,5.67,1.24,8.51,1.81,1.68.34,2.44,0,3.06-1.6,1.29-3.35,2.88-6.59,4.24-9.91a1.94,1.94,0,0,1,2.25-1.49,46.26,46.26,0,0,0,6.23,0,2,2,0,0,1,2.3,1.47c1.45,3.51,3.06,7,4.49,10.48.46,1.13,1,1.36,2.17,1.14,2.93-.53,5.84-1.12,8.73-1.8,1.36-.32,1.94-.8,1.87-2.32-.15-3.6,0-7.2-.13-10.8,0-1.36.25-2.09,1.67-2.55a35.48,35.48,0,0,0,5.69-2.5,1.81,1.81,0,0,1,2.5.33c2.75,2.64,5.63,5.13,8.38,7.77a1.75,1.75,0,0,0,2.64.21c2.53-1.71,5-3.47,7.43-5.32a1.6,1.6,0,0,0,.59-2.38c-1.67-3.41-3.14-6.92-4.78-10.35a1.83,1.83,0,0,1,.47-2.5,56.05,56.05,0,0,0,4.5-4.88,2,2,0,0,1,2.66-.66c3.58,1.28,7.22,2.37,10.8,3.65a1.58,1.58,0,0,0,2.21-.74q2.55-3.91,4.78-8a1.52,1.52,0,0,0-.43-2.26c-2.9-2.47-5.7-5.06-8.6-7.53a1.82,1.82,0,0,1-.6-2.46,65.91,65.91,0,0,0,2.36-6.85,1.76,1.76,0,0,1,1.85-1.48c3.86-.31,7.72-.79,11.58-1.08,1.23-.1,1.64-.56,1.75-1.74.27-2.89.62-5.78,1.06-8.65C450.74,395.08,450.29,394.56,449.09,394.2Z" transform="translate(-21.68 -37.08)"/><path class="cls-1" d="M313.56,411.57,313,412Z" transform="translate(-21.68 -37.08)"/><path class="cls-1" d="M322,439.75h0a14.86,14.86,0,0,0-.28-9.83A14.8,14.8,0,0,1,322,439.75Z" transform="translate(-21.68 -37.08)"/><path class="cls-1" d="M324.12,459.47l0,0h0Z" transform="translate(-21.68 -37.08)"/><path class="cls-1" d="M304.92,314.54l1-.59.14-.08,2.19-1.33.14-.09.15-.06.81-.35c.19-7,.39-14,.56-21q.44-18.15.83-36.3.53-25,1-50c0-1.59.22-3.17.33-4.76-.06-.57.14-1.17-.23-1.71a13.53,13.53,0,0,1-13.46,0l-.12,1.71c.28,14.67.58,29.33.81,44,.34,20.48.61,41,1,61.44,0,2.39-.94,5.31.51,7l.19.17.68.32Z" transform="translate(-21.68 -37.08)"/><path class="cls-1" d="M304.92,314.54l-3.53-1.6-.68-.32a10.14,10.14,0,0,0,3.88,2.12Z" transform="translate(-21.68 -37.08)"/><path class="cls-1" d="M335,316.56l.06-.13,0-.1.09-.1.08-.07.11-.08.08-.05.14-.07.09,0,.18-.07.18-.08.09,0,.2-.11c4.51-2.84,8.51-6.19,11.26-10.84a12.72,12.72,0,0,0,2.15-7.87,20.42,20.42,0,0,0-7.19-13.6,4.25,4.25,0,0,1-1.37-2,8.1,8.1,0,0,0-3.68-4.58c-.51-.32-1-.61-1.55-.88l-.53-.25c-.35-.17-.7-.34-1.06-.49s-.42-.16-.64-.24-.65-.25-1-.36l-.69-.21c-.32-.09-.64-.19-1-.27l-.72-.16-1-.19-.73-.11-1-.12-.75-.07-1-.05-.74,0c-.53,0-1.05,0-1.58,0a8.8,8.8,0,0,0-7.68,4.57,5.71,5.71,0,0,0,.95,6.7,26.92,26.92,0,0,0,7.23,4.79l.84.41.27.12.59.27.33.14.53.22.36.13.52.18.38.12.52.14.4.09.52.1.42.06.53.05.44,0a7.91,7.91,0,0,0,.84,0h.5l.22,0,.19,0,.21.07.18.07.19.09.18.1.18.12a1,1,0,0,1,.16.12l.17.14.15.14a1.21,1.21,0,0,1,.16.16l.14.15.13.19a1.09,1.09,0,0,1,.13.17l.12.2c0,.06.07.11.1.18l.11.21.09.19c0,.07,0,.15.08.23l.07.19.06.24a1.46,1.46,0,0,1,.05.2,2,2,0,0,1,0,.26l0,.18a2.44,2.44,0,0,1,0,.27c0,.07,0,.13,0,.19s0,.2,0,.3a.76.76,0,0,1,0,.15,3.11,3.11,0,0,1-.08.44,7.54,7.54,0,0,1-3.12,4.28c-7.14,5.25-14.51,10.14-22.78,13.49l-2.13,1.29c4.44,2.06,9,4.26,13.57,6.65h.09a3.06,3.06,0,0,0,.59-.07h.05c.21-.05.43-.12.65-.19s.7-.24,1-.36l.37-.15.66-.26.29-.12.92-.38.83-.34.36-.15.66-.27.47-.17c.19-.07.37-.14.57-.2s.31-.1.47-.15l.58-.18.48-.12M324.39,279c-.74-.06-1.81,0-1.88-1s1-1.09,1.81-1.12h.76a2.13,2.13,0,0,1,.25,0l.11,0,.2,0,.11,0,.16.08.1.06a.69.69,0,0,1,.13.11l.07.09a1,1,0,0,1,.1.17l0,.09a1.16,1.16,0,0,1,0,.34C326.42,278.88,325.32,279,324.39,279Z" transform="translate(-21.68 -37.08)"/><path class="cls-1" d="M307.12,315.54l-.2.12c4.27,2.09,8.55,4.15,12.79,6.28a2.09,2.09,0,0,0,.49.18l.07,0a1.51,1.51,0,0,0,.42.05C316.13,319.8,311.56,317.6,307.12,315.54Z" transform="translate(-21.68 -37.08)"/><path class="cls-1" d="M300.45,361l.05,0,0,0,1.46-1,.79-.52L301,358.06l-.17-.13c-4.76-3.08-9.36-6.4-13.83-9.89-3.37-2.62-3.47-5.88-.31-9.29a32.27,32.27,0,0,1,13.73-8.61l1.13-.74-5.31-2-7.65-2.85a1.45,1.45,0,0,0-.29,0h-.14a2.11,2.11,0,0,0-.45.18c-4.46,2.39-8.79,5-12.15,8.86-4.43,5.15-4.77,10.87-1,16.56a27.23,27.23,0,0,0,7.9,7.52c3.17,2.1,6.39,4.1,9.59,6.15a5.16,5.16,0,0,0,.7.51,2.39,2.39,0,0,0,.22.12c.16.08.31.16.46.22l.27.08a3.06,3.06,0,0,0,.41.1l.27,0h.36a2.12,2.12,0,0,0,.44-.05l.12,0Z" transform="translate(-21.68 -37.08)"/><path class="cls-1" d="M296.19,327.42l5.31,2,.14-.09-12.2-4.56a4.43,4.43,0,0,0-.44-.14h-.15l-.29,0h0Z" transform="translate(-21.68 -37.08)"/><path class="cls-1" d="M302.9,359.52l-.11-.08L302,360l-1.46,1,0,0-.05,0-5.21,3.88.18,0a2.75,2.75,0,0,0,.45-.17c.09,0,.19-.07.28-.12a5.4,5.4,0,0,0,.49-.3l.23-.15a7.39,7.39,0,0,0,.71-.59,9.06,9.06,0,0,1,1.52-1l.52-.33Z" transform="translate(-21.68 -37.08)"/><path class="cls-1" d="M310.25,335.9q-.06,6.27-.13,12.53c.77,1.14,1.49,2.35,2.34,3.42a5,5,0,0,1,.58.89,38.92,38.92,0,0,0,9.09-7.59c1.32-1.55,0-3.33-.44-3.81l-.69.05-.16-.95-3.16-2.61,1.12-.14a28.46,28.46,0,0,0-5.34-3.81C312.45,333.58,311.86,334.19,310.25,335.9Z" transform="translate(-21.68 -37.08)"/><path class="cls-1" d="M322.42,339.28l0,0h0Z" transform="translate(-21.68 -37.08)"/><path class="cls-1" d="M301.83,331.58l-.36.23-.22.15L301,332l-.61.22q.18,11.63.34,23.25l1.13.74.05,0,.06,0,2.12,1.58.45.34c.57-.38,1.13-.77,1.68-1.16l-2.4,0,4.32-2.32a7.67,7.67,0,0,0,.27-4.58,2.18,2.18,0,0,1,.25-1.78h0l.15-12.53c-.08-2.4-.12-3.37-1-4.07-1.31-.54-2.66-1.05-4-1.56l-1.08.71Z" transform="translate(-21.68 -37.08)"/><path class="cls-1" d="M307.84,331.83a11.4,11.4,0,0,0-3.08-1.42l-.75-.27-.19.13C305.18,330.78,306.53,331.29,307.84,331.83Z" transform="translate(-21.68 -37.08)"/><path class="cls-1" d="M306.23,357.09c-.55.39-1.11.78-1.68,1.16l.29.22a8.06,8.06,0,0,0,3.31-3.68l-4.32,2.32Z" transform="translate(-21.68 -37.08)"/><path class="cls-1" d="M301,358.06l1.84,1.38h0Z" transform="translate(-21.68 -37.08)"/><path class="cls-1" d="M302.9,359.52l-.11-.09h0l.11.08Z" transform="translate(-21.68 -37.08)"/><path class="cls-1" d="M301,332l.24-.08.22-.15.36-.23.91-.6,1.08-.71-.75-.28-.13-.05-1.44-.54-1.13.74,0,2.12Z" transform="translate(-21.68 -37.08)"/><path class="cls-1" d="M304.55,358.25l-.45-.34L302,356.33l-.06,0-.05,0-1.13-.74c0,.81,0,1.61,0,2.42l.17.13,1.84,1.37C303.38,359,304,358.65,304.55,358.25Z" transform="translate(-21.68 -37.08)"/><path class="cls-1" d="M302.79,359.43l.11.09h0a17,17,0,0,0,1.94-1l-.29-.22C304,358.65,303.38,359,302.79,359.43Z" transform="translate(-21.68 -37.08)"/><path class="cls-1" d="M302.94,329.94l.13.05.75.28.19-.13-2.37-.83-.14.09Z" transform="translate(-21.68 -37.08)"/><path class="cls-1" d="M308.67,348.43h0l.15-12.53Z" transform="translate(-21.68 -37.08)"/><path class="cls-1" d="M292.69,364.4a5.16,5.16,0,0,1-.7-.51A5.16,5.16,0,0,0,292.69,364.4Z" transform="translate(-21.68 -37.08)"/><path class="cls-1" d="M295.12,364.9l.1,0h0Z" transform="translate(-21.68 -37.08)"/><path class="cls-1" d="M293.37,364.74c-.15-.06-.3-.14-.46-.22C293.07,364.6,293.22,364.68,293.37,364.74Z" transform="translate(-21.68 -37.08)"/><path class="cls-1" d="M294.53,365l.15,0h-.36Z" transform="translate(-21.68 -37.08)"/><path class="cls-1" d="M294.05,364.92a3.06,3.06,0,0,1-.41-.1A3.06,3.06,0,0,0,294.05,364.92Z" transform="translate(-21.68 -37.08)"/><path class="cls-1" d="M295.24,364.87h0l.2-.05Z" transform="translate(-21.68 -37.08)"/><path class="cls-1" d="M296.15,364.54c-.09,0-.19.08-.28.12C296,364.62,296.06,364.59,296.15,364.54Z" transform="translate(-21.68 -37.08)"/><path class="cls-1" d="M296.87,364.09l-.23.15Z" transform="translate(-21.68 -37.08)"/><path class="cls-1" d="M301.13,379.28l.09,11.06c0,1.48.12,3,.17,4.43a36.18,36.18,0,0,1,0,4.42,9.79,9.79,0,0,0,1.08,5.57c.69.7,1.37,1.41,2.07,2.11l1-1,.23-.24,0,0,.05-.05,1.43-1.37q.34-13.63.68-27.26l-1-.69-.14-.08-.12-.11-1.47-1.33-.24-.22-.24-.21c-1.06.74-2.09,1.5-3.11,2.27A4.1,4.1,0,0,0,301.13,379.28Z" transform="translate(-21.68 -37.08)"/><path class="cls-1" d="M301.56,376.5c1-.77,2.05-1.53,3.11-2.27l-.17-.16A7.45,7.45,0,0,0,301.56,376.5Z" transform="translate(-21.68 -37.08)"/><path class="cls-1" d="M304.5,406.87c-.7-.7-1.38-1.41-2.07-2.11a9.93,9.93,0,0,0,1.83,2.36l.11-.11Z" transform="translate(-21.68 -37.08)"/><path class="cls-1" d="M305.8,405.5l-.05.05,0,0-.23.24-1,1,1.41,1.42c.42-.44.84-.88,1.25-1.33,0-.94,0-1.89.07-2.83Z" transform="translate(-21.68 -37.08)"/><path class="cls-1" d="M305.15,374.66l1.47,1.33.12.11.14.08,1,.69c0-.79,0-1.58,0-2.36l-1.6-1.45c-.56.39-1.13.77-1.69,1.17l.24.21Z" transform="translate(-21.68 -37.08)"/><path class="cls-1" d="M305.91,408.29l-1.41-1.42-.13.14-.11.11a13.4,13.4,0,0,0,1.38,1.16l.18.1Z" transform="translate(-21.68 -37.08)"/><path class="cls-1" d="M306.36,373.06l-.11-.1a15.32,15.32,0,0,1-1.75,1.11l.17.16C305.23,373.83,305.8,373.45,306.36,373.06Z" transform="translate(-21.68 -37.08)"/><path class="cls-1" d="M312.26,427.75A16.66,16.66,0,0,1,315,433.3h0A16.66,16.66,0,0,0,312.26,427.75Z" transform="translate(-21.68 -37.08)"/><path class="cls-1" d="M314.83,393.16A12.16,12.16,0,0,0,315,386a24.33,24.33,0,0,0-4.61-9.17L310,404.13A63.86,63.86,0,0,0,314.83,393.16Z" transform="translate(-21.68 -37.08)"/><path class="cls-1" d="M300.33,476.75a2.31,2.31,0,0,1-.16.31c-.6.65-1.88-.57-2,.44s1.23.47,1.81.93c.39.3.87.49.89,1s-.47.94-1,1.19c-1.52.74-3,1.19-4.62.17-.48-.31-1.43-.37-1.11-1.18.2-.5,1-.32,1.51-.15a7,7,0,0,1,1,.47c.34-1.31-.82-1.09-1.33-1.41s-1.08-.64-1-1.4.62-.9,1.14-1.05C297.14,475.6,298.82,475.5,300.33,476.75Z" transform="translate(-21.68 -37.08)"/><path class="cls-1" d="M300.17,487c-.77.68-1.69-.11-2.54.25.16,1.19,1.23.94,1.89,1.25s1.2.53,1.22,1.25-.53.92-1,1.2a4.78,4.78,0,0,1-6.11-.78c.24-.63.8-.32,1.23-.42s1.12.8,1.4-.06-.6-.71-1.08-.86l-.39-.15c-.44-.21-.87-.42-.92-1s.32-1,.84-1.28A4.64,4.64,0,0,1,300.17,487Z" transform="translate(-21.68 -37.08)"/><path class="cls-1" d="M283.57,490.37l-2.64.36c.4,1.13,1.42.9,2.07,1.31,1.07.66,1.11,1.51.08,2.06-4.75,2.53-5.75,0-5.34.27-.37-.27-1-.39-.81-1s.82-.28,1.28-.3,1,.71,1.21,0-.6-.73-1.08-.93c-.68-.29-1.62-.47-1.54-1.42s1.08-1.1,1.84-1.38C280.34,488.71,281.76,489.21,283.57,490.37Z" transform="translate(-21.68 -37.08)"/><polygon class="cls-1" points="297.13 300.62 300.01 304.26 298.97 305.55 295.46 303.48 294.73 300.85 297.13 300.62"/></svg>